<?xml version="1.0" encoding="UTF-8" standalone="no"?>
<svg
   xmlns:dc="http://purl.org/dc/elements/1.1/"
   xmlns:cc="http://creativecommons.org/ns#"
   xmlns:rdf="http://www.w3.org/1999/02/22-rdf-syntax-ns#"
   xmlns:svg="http://www.w3.org/2000/svg"
   xmlns="http://www.w3.org/2000/svg"
   xml:space="preserve"
   enable-background="new 0 0 488.122 215.085"
   viewBox="0 0 403.84499 202.363"
   height="202.36301"
   width="403.845"
   y="0px"
   x="0px"
   id="Layer_1"
   version="1.1"><metadata
     id="metadata135"><rdf:RDF><cc:Work
         rdf:about=""><dc:format>image/svg+xml</dc:format><dc:type
           rdf:resource="http://purl.org/dc/dcmitype/StillImage" /><dc:title></dc:title></cc:Work></rdf:RDF></metadata><defs
     id="defs133" /><g
     id="g3"><g
       id="g5"><g
         id="g7"><path
           style="fill:#6ab5c0"
           id="path9"
           d="m 135.154,49.054 0.895,-1.652 c -8.28,-4.412 -16.798,-7.3 -25.366,-8.524 -3.545,-0.507 -7.122,-0.76 -10.627,-0.76 -28.267,0 -53.551,17.005 -62.932,42.305 l 9.106,3.373 c 7.973,-21.517 29.6,-35.974 53.826,-35.974 3.051,0 6.165,0.225 9.256,0.654 16.426,2.356 32.212,11.315 46.911,26.633 l 5.361,-5.138 c -7.235,-7.739 -16.072,-15.312 -26.43,-20.917 z" /><path
           style="fill:#6ab5c0"
           id="path11"
           d="M 68.836,162.349 C 44.475,151.024 28.725,127.073 28.725,101.325 c 0,-13.024 3.821,-25.628 11.037,-36.45 2.744,-4.118 5.992,-7.983 9.644,-11.478 l 4.472,4.669 c -3.317,3.173 -6.243,6.672 -8.734,10.396 -6.512,9.763 -9.948,21.119 -9.948,32.863 0,23.595 13.932,44.73 36.365,55.163 l -2.725,5.861 z" /><path
           style="fill:#6ab5c0"
           id="path13"
           d="m 187.516,109.274 -2.804,-6.547 c -0.257,-0.507 -0.61,-1.183 -1.033,-1.978 -4.919,9.297 -30.751,54.706 -73.234,60.77 -3.464,0.501 -7.047,1.633 -10.421,1.633 -9.904,-0.006 -19.389,-2.084 -28.204,-6.19 l -3.242,5.933 c 9.851,4.578 20.425,6.903 31.446,6.909 3.737,0 7.573,-0.275 11.403,-0.82 40.997,-5.858 66.85,-43.35 76.385,-59.841 l -0.296,0.131 z" /><path
           style="fill:#f37b21"
           id="path15"
           d="m 196.503,140.879 c -8.311,11.29 -17.483,21.066 -27.318,29.052 l 2.375,2.926 c 9.732,-7.905 18.822,-17.483 27.077,-28.517 16.917,23.069 45.046,50.431 85.826,56.251 l 0.964,-6.759 c -41.688,-5.958 -69.604,-35.43 -86.202,-60.51 -0.775,-1.18 -2.722,7.557 -2.722,7.557 z" /><path
           style="fill:#eeb227"
           id="path17"
           d="m 305.426,168.989 c -5.376,0.354 -10.868,0.144 -16.353,-0.635 -12.514,-1.784 -24.659,-6.79 -36.077,-14.867 l -3.549,5.016 c 12.226,8.643 25.263,14 38.762,15.934 4.049,0.582 8.155,0.873 12.173,0.873 1.69,0 3.373,-0.066 5.044,-0.172 l 0,-6.149 z" /><path
           style="fill:#f37b21"
           id="path19"
           d="m 190.764,107.878 -3.248,1.396 -2.804,-6.547 c -2.097,-4.13 -9.973,-18.7 -23.128,-32.757 l -5.361,5.138 c 11.538,12.026 18.478,23.945 20.916,28.52 l 9.851,17.176 8.411,-4.825 -4.637,-8.101 z" /><path
           style="fill:#6ab5c0"
           id="path21"
           d="m 300.382,163.526 c -3.489,0 -7.019,-0.26 -10.508,-0.76 -43.847,-6.262 -69.501,-50.775 -74.191,-59.631 l 6.784,-3.596 c 2.694,5.073 27.481,49.774 68.496,55.629 3.126,0.451 6.29,0.682 9.419,0.682 l 0,7.676 z" /><path
           style="fill:#0e8b9a"
           id="path23"
           d="m 361.471,84.227 c -2.923,-9.488 -8.374,-18.244 -15.765,-25.325 -9.688,-9.266 -21.989,-15.186 -35.583,-17.13 l 1.246,-8.7 c 15.424,2.203 29.393,8.943 40.405,19.486 8.477,8.108 14.732,18.156 18.103,29.077 l -8.406,2.592 z" /><path
           style="fill:#0e8b9a"
           id="path25"
           d="m 244.105,56.277 -4.137,-4.713 c 14.914,-13.099 31.139,-20.978 48.219,-23.413 4.043,-0.582 8.13,-0.867 12.161,-0.867 20.813,0 40.311,7.679 54.89,21.639 l -4.328,4.541 C 337.492,40.622 319.536,33.556 300.347,33.556 c -3.733,0 -7.526,0.269 -11.259,0.807 -15.868,2.262 -30.998,9.634 -44.983,21.914 z" /><path
           style="fill:#eeb227"
           id="path27"
           d="m 212.231,117.4 -21.764,-10.361 5.179,-10.884 c 3.358,-7.069 16.062,-31.649 38.443,-51.295 l 9.053,-7.954 15.903,18.118 -9.05,7.952 c -19.411,17.029 -30.548,39.256 -32.585,43.54 l -5.179,10.884 z" /><path
           style="fill:#0e8b9a"
           id="path29"
           d="m 27.98,130.39 c -4.018,-9.175 -6.064,-18.947 -6.064,-29.064 0,-20.027 8.092,-38.796 22.793,-52.85 5.132,-4.91 10.921,-9.097 17.217,-12.451 l 3.536,6.653 c -5.68,3.029 -10.915,6.812 -15.556,11.24 -13.19,12.62 -20.459,29.456 -20.459,47.408 0,9.069 1.828,17.824 5.429,26.042 l -6.896,3.022 z" /><path
           style="fill:#eeb227"
           id="path31"
           d="m 53.922,58.114 -4.55,-4.757 C 62.825,40.49 80.83,33.402 100.056,33.402 c 3.752,0 7.541,0.272 11.3,0.801 9.178,1.321 18.24,4.368 26.933,9.068 l -3.135,5.783 c -8.001,-4.325 -16.319,-7.128 -24.724,-8.327 -3.449,-0.494 -6.931,-0.745 -10.373,-0.745 -17.524,10e-4 -33.925,6.434 -46.135,18.132 z" /><path
           style="fill:#eeb227"
           id="path33"
           d="m 8.867,101.325 -4.025,0 c 0,-24.727 9.96,-47.878 28.057,-65.189 l 2.779,2.91 C 18.392,55.582 8.867,77.706 8.867,101.325 Z" /><path
           style="fill:#0e8b9a"
           id="path35"
           d="M 167.823,32.663 C 151.592,19.683 133.796,11.747 114.939,9.05 110.004,8.349 104.997,7.995 100.056,7.995 c -19.536,0 -38.293,5.492 -54.24,15.881 l -2.91,-4.484 C 59.708,8.43 79.482,2.635 100.056,2.635 c 5.191,0 10.442,0.379 15.634,1.114 19.821,2.829 38.484,11.156 55.475,24.733 l -3.342,4.181 z" /><path
           style="fill:#0e8b9a"
           id="path37"
           d="m 205.484,67.436 -10.571,-7.46 C 211.827,36.012 241.042,6.162 284.179,0 l 1.818,12.805 C 247.429,18.306 220.93,45.55 205.484,67.436 Z" /><path
           style="fill:#6ab5c0"
           id="path39"
           d="m 217.582,68.975 -7.47,-5.651 c 14.798,-19.571 40.008,-43.988 76.085,-49.136 4.703,-0.67 9.457,-1.008 14.151,-1.008 12.163,0 23.945,2.219 35.023,6.593 l -3.452,8.715 c -9.97,-3.94 -20.591,-5.94 -31.571,-5.94 -4.256,0 -8.562,0.313 -12.815,0.914 -32.919,4.701 -56.207,27.345 -69.951,45.513 z" /><path
           style="fill:#6ab5c0"
           id="path41"
           d="m 202.511,84.24 -10.452,-4.262 3.098,-7.641 0.272,-0.423 c 13.509,-21.382 43.134,-58.239 89.75,-64.891 5.029,-0.72 10.136,-1.083 15.168,-1.083 l 0,11.3 c -4.497,0 -9.069,0.322 -13.572,0.967 -39.785,5.679 -66.259,35.292 -81.529,59.321 l -2.735,6.712 z" /><path
           style="fill:#6ab5c0"
           id="path43"
           d="m 202.342,72.661 -5.42,-6.643 c -9,-12.742 -19.067,-23.616 -29.941,-32.31 l 5.016,-6.277 c 11.431,9.137 22.002,20.522 31.415,33.836 l 5.145,6.309 -6.215,5.085 z" /><path
           style="fill:#f37b21"
           id="path45"
           d="M 368.581,34.998 C 350.391,17.578 326.148,7.996 300.348,7.996 c -4.938,0 -9.942,0.354 -14.883,1.055 L 284.711,3.75 c 5.198,-0.735 10.452,-1.114 15.637,-1.114 27.196,0 52.74,10.12 71.948,28.489 l -3.715,3.873 z" /><path
           style="fill:#0e8b9a"
           id="path47"
           d="m 113.637,184.442 -1.95,-13.672 c 54.643,-7.798 81.88,-71.46 82.146,-72.101 1.214,-2.913 30.426,-71.538 92.942,-80.462 l 1.95,13.669 c -54.821,7.823 -81.883,71.457 -82.146,72.098 -1.22,2.921 -30.441,71.543 -92.942,80.468 z" /><path
           style="fill:#0e8b9a"
           id="path49"
           d="m 56.212,170.62 5.986,-10.314 c 14.717,8.543 31.759,11.738 49.301,9.225 l 1.69,11.804 c 11.434,-1.634 22.593,-5.545 33.186,-11.628 l -9.998,-17.414 c -8.383,4.81 -17.127,7.895 -26.026,9.163 -3.455,0.491 -6.928,0.741 -10.327,0.741 -17.398,0 -33.655,-6.39 -45.781,-18 -5.87,-5.62 -10.458,-12.138 -13.621,-19.342 L 23.38,132.4 c 4.115,9.4 10.12,18.009 17.846,25.397 l -0.87,0.911 c 4.835,4.614 10.149,8.601 15.856,11.912 z" /><path
           style="fill:#0e8b9a"
           id="path51"
           d="m 100.025,187.53 c -23.951,0 -46.432,-8.893 -63.308,-25.028 l 3.799,-3.968 c 15.847,15.158 36.972,23.507 59.503,23.516 4.34,0 8.762,-0.316 13.133,-0.948 45.071,-6.434 72.317,-44.576 84.584,-66.838 l 3.11,-7.36 5.048,2.141 -3.283,7.739 c -12.724,23.144 -41.169,62.967 -88.677,69.748 -4.637,0.66 -9.315,0.998 -13.909,0.998 z" /><path
           style="fill:#0e8b9a"
           id="path53"
           d="M 100.025,202.363 C 72.231,202.357 46.111,192.005 26.472,173.211 l 6.947,-7.254 c 17.762,16.998 41.419,26.358 66.606,26.367 4.819,0 9.735,-0.357 14.582,-1.052 18.795,-2.675 36.478,-10.683 52.597,-23.77 l 6.327,7.792 c -17.543,14.251 -36.894,22.975 -57.506,25.92 -5.31,0.764 -10.699,1.149 -16,1.149 z" /><path
           style="fill:#eeb227"
           id="path55"
           d="m 115.055,194.377 -1.249,-8.693 c 40.505,-5.78 67.282,-35.905 82.638,-60.195 0.479,-0.82 4.603,-7.992 6.19,-11.002 l 7.773,4.087 c -1.746,3.33 -6.208,11.059 -6.399,11.387 l -0.094,0.147 c -16.332,25.864 -45.012,58.007 -88.859,64.269 z" /><path
           style="fill:#6ab5c0"
           id="path57"
           d="M 56.532,170.072 C 31.317,155.436 16.277,129.736 16.277,101.325 c 0,-4.13 0.319,-8.28 0.957,-12.317 l 6.202,0.979 c -0.588,3.721 -0.892,7.532 -0.892,11.337 0,26.148 13.884,49.818 37.131,63.324 l -3.143,5.424 z" /><path
           style="fill:#f37b21"
           id="path59"
           d="M 26.287,90.448 14.39,88.558 C 17.832,66.847 29.836,47.665 48.18,34.55 66.802,21.216 90.002,15.718 113.509,19.073 c 5.298,0.76 10.571,1.996 15.684,3.674 L 125.425,34.2 C 120.988,32.738 116.4,31.662 111.806,31.005 70.1,25.065 32.521,51.163 26.287,90.448 Z" /><path
           style="fill:#eeb227"
           id="path61"
           d="M 24.732,175.029 C 13.748,164.508 5.415,152.16 0,138.313 l 14.021,-5.492 c 4.622,11.791 11.731,22.327 21.132,31.321 l -10.421,10.887 z" /><path
           style="fill:#6ab5c0"
           id="path63"
           d="M 100.025,195.457 C 74.018,195.451 49.597,185.781 31.241,168.223 14.537,152.245 4.423,130.96 2.721,108.304 l -0.004,-0.166 -0.236,-6.643 8.771,-0.329 0.235,6.565 c 1.549,20.459 10.724,39.682 25.829,54.152 16.71,15.975 38.978,24.79 62.71,24.79 4.559,0 9.191,-0.338 13.781,-0.989 l 1.249,8.693 c -5.005,0.72 -10.058,1.08 -15.031,1.08 z" /><path
           style="fill:#eeb227"
           id="path65"
           d="m 140.364,164.737 -2.729,-4.75 2.375,-1.364 c 31.014,-17.802 48.328,-51.827 51.492,-58.461 l 1.18,-2.484 4.941,2.359 -1.18,2.472 c -3.28,6.9 -21.285,42.264 -53.701,60.867 l -2.378,1.361 z" /><path
           style="fill:#0e8b9a"
           id="path67"
           d="m 208.864,97.73 c -0.279,-0.664 -2.231,-5.27 -5.946,-12.02 l 1.395,-0.767 C 191.374,61.477 162.469,21.075 114.206,14.188 c -4.691,-0.67 -9.457,-1.008 -14.15,-1.008 l 0,9.369 c 4.256,0 8.571,0.313 12.827,0.914 5.213,0.751 10.186,1.943 14.924,3.486 l -3.43,10.427 c 44.554,14.654 66.966,67.038 67.176,67.548 1.242,2.967 30.977,72.84 94.879,81.961 l 2.641,-18.56 C 235.832,160.722 209.12,98.34 208.864,97.73 Z" /><path
           style="fill:#eeb227"
           id="path69"
           d="m 384.731,101.325 -7.526,0 c 0,-20.738 -9.147,-40.574 -25.109,-54.414 C 334.96,32.037 311.7,25.435 288.281,28.767 L 287.22,21.31 c 25.582,-3.646 51.022,3.611 69.82,19.912 17.606,15.274 27.691,37.185 27.691,60.103 z" /><rect
           style="fill:#eeb227"
           id="rect71"
           height="63.192001"
           width="20.368999"
           y="69.738998"
           x="90.517998" /><rect
           style="fill:#0e8b9a"
           id="rect73"
           height="20.368999"
           width="63.188999"
           y="91.152"
           x="69.111" /><path
           style="fill:#6ab5c0"
           id="path75"
           d="m 403.422,110.532 -8.052,-0.745 c 0.256,-2.782 0.388,-5.63 0.388,-8.462 0,-24.796 -9.986,-48.003 -28.11,-65.339 l 5.583,-5.852 c 19.742,18.888 30.614,44.173 30.614,71.191 0,3.086 -0.144,6.181 -0.423,9.207 z" /><path
           style="fill:#0e8b9a"
           id="path77"
           d="m 375.728,115.235 -5.257,-1.045 c 0.835,-4.246 1.264,-8.609 1.264,-12.971 0,-18.25 -7.376,-35.367 -20.791,-48.197 l 3.708,-3.874 c 14.467,13.85 22.443,32.347 22.443,52.071 10e-4,4.707 -0.466,9.422 -1.367,14.016 z" /><path
           style="fill:#f37b21"
           id="path79"
           d="m 366.522,116.521 -12.16,-3.092 c 1.001,-3.93 1.502,-8.002 1.502,-12.104 0,-28.714 -24.909,-52.087 -55.516,-52.087 -2.976,0 -6.03,0.226 -9.056,0.654 -0.804,0.119 -1.599,0.241 -2.397,0.394 L 286.63,37.938 c 0.967,-0.178 1.918,-0.338 2.895,-0.473 3.611,-0.513 7.25,-0.773 10.824,-0.773 37.532,0 68.07,28.996 68.07,64.632 -10e-4,5.155 -0.639,10.259 -1.897,15.197 z" /><path
           style="fill:#0e8b9a"
           id="path81"
           d="m 265.96,52.077 -1.446,-2.613 c -28.817,15.975 -45.693,47.249 -48.782,53.354 l -3.045,6.212 -3.235,-1.583 -1.327,2.954 11.447,5.141 5.138,-11.431 c 3.017,-5.595 26.464,-46.873 64.184,-53.823 l -1.139,-6.165 c -7.4,1.364 -14.722,4.033 -21.795,7.954 z" /><path
           style="fill:#6ab5c0"
           id="path83"
           d="m 300.382,190.44 c -4.734,0 -9.553,-0.347 -14.329,-1.026 -21.307,-3.048 -41.068,-12.949 -58.758,-29.428 l 7.704,-8.268 c 15.963,14.883 33.677,23.798 52.656,26.511 5.079,0.714 10.167,0.995 15.171,0.876 l 0.263,11.297 c -0.901,0.02 -1.806,0.038 -2.707,0.038 z" /></g></g></g></svg>