<?xml version="1.0" encoding="utf-8"?>
<!-- Generator: Adobe Illustrator 17.0.0, SVG Export Plug-In . SVG Version: 6.00 Build 0)  -->
<!DOCTYPE svg PUBLIC "-//W3C//DTD SVG 1.1//EN" "http://www.w3.org/Graphics/SVG/1.1/DTD/svg11.dtd">
<svg version="1.1" id="Layer_1" xmlns="http://www.w3.org/2000/svg" xmlns:xlink="http://www.w3.org/1999/xlink" x="0px" y="0px"
	 width="488.122px" height="215.085px" viewBox="0 0 488.122 215.085" enable-background="new 0 0 488.122 215.085"
	 xml:space="preserve">
<g>
	<g>
		<g>
			<path fill="#6AB5C0" d="M135.154,49.054l0.895-1.652c-8.28-4.412-16.798-7.3-25.366-8.524c-3.545-0.507-7.122-0.76-10.627-0.76
				c-28.267,0-53.551,17.005-62.932,42.305l9.106,3.373c7.973-21.517,29.6-35.974,53.826-35.974c3.051,0,6.165,0.225,9.256,0.654
				c16.426,2.356,32.212,11.315,46.911,26.633l5.361-5.138C154.349,62.232,145.512,54.659,135.154,49.054z"/>
			<path fill="#6AB5C0" d="M68.836,162.349c-24.361-11.325-40.111-35.276-40.111-61.024c0-13.024,3.821-25.628,11.037-36.45
				c2.744-4.118,5.992-7.983,9.644-11.478l4.472,4.669c-3.317,3.173-6.243,6.672-8.734,10.396
				c-6.512,9.763-9.948,21.119-9.948,32.863c0,23.595,13.932,44.73,36.365,55.163L68.836,162.349z"/>
			<path fill="#6AB5C0" d="M187.516,109.274l-2.804-6.547c-0.257-0.507-0.61-1.183-1.033-1.978
				c-4.919,9.297-30.751,54.706-73.234,60.77c-3.464,0.501-7.047,1.633-10.421,1.633c-9.904-0.006-19.389-2.084-28.204-6.19
				l-3.242,5.933c9.851,4.578,20.425,6.903,31.446,6.909c3.737,0,7.573-0.275,11.403-0.82c40.997-5.858,66.85-43.35,76.385-59.841
				L187.516,109.274z"/>
			<path fill="#F37B21" d="M196.503,140.879c-8.311,11.29-17.483,21.066-27.318,29.052l2.375,2.926
				c9.732-7.905,18.822-17.483,27.077-28.517c16.917,23.069,45.046,50.431,85.826,56.251l0.964-6.759
				c-41.688-5.958-69.604-35.43-86.202-60.51C198.45,132.142,196.503,140.879,196.503,140.879z"/>
			<path fill="#EEB227" d="M305.426,168.989c-5.376,0.354-10.868,0.144-16.353-0.635c-12.514-1.784-24.659-6.79-36.077-14.867
				l-3.549,5.016c12.226,8.643,25.263,14,38.762,15.934c4.049,0.582,8.155,0.873,12.173,0.873c1.69,0,3.373-0.066,5.044-0.172
				V168.989z"/>
			<path fill="#F37B21" d="M190.764,107.878l-3.248,1.396l-2.804-6.547c-2.097-4.13-9.973-18.7-23.128-32.757l-5.361,5.138
				c11.538,12.026,18.478,23.945,20.916,28.52l9.851,17.176l8.411-4.825L190.764,107.878z"/>
			<path fill="#6AB5C0" d="M300.382,163.526c-3.489,0-7.019-0.26-10.508-0.76c-43.847-6.262-69.501-50.775-74.191-59.631
				l6.784-3.596c2.694,5.073,27.481,49.774,68.496,55.629c3.126,0.451,6.29,0.682,9.419,0.682V163.526z"/>
			<path fill="#0E8B9A" d="M361.471,84.227c-2.923-9.488-8.374-18.244-15.765-25.325c-9.688-9.266-21.989-15.186-35.583-17.13
				l1.246-8.7c15.424,2.203,29.393,8.943,40.405,19.486c8.477,8.108,14.732,18.156,18.103,29.077L361.471,84.227z"/>
			<path fill="#0E8B9A" d="M244.105,56.277l-4.137-4.713c14.914-13.099,31.139-20.978,48.219-23.413
				c4.043-0.582,8.13-0.867,12.161-0.867c20.813,0,40.311,7.679,54.89,21.639l-4.328,4.541
				c-13.418-12.842-31.374-19.908-50.563-19.908c-3.733,0-7.526,0.269-11.259,0.807C273.22,36.625,258.09,43.997,244.105,56.277z"/>
			<path fill="#EEB227" d="M212.231,117.4l-21.764-10.361l5.179-10.884c3.358-7.069,16.062-31.649,38.443-51.295l9.053-7.954
				l15.903,18.118l-9.05,7.952c-19.411,17.029-30.548,39.256-32.585,43.54L212.231,117.4z"/>
			<path fill="#0E8B9A" d="M27.98,130.39c-4.018-9.175-6.064-18.947-6.064-29.064c0-20.027,8.092-38.796,22.793-52.85
				c5.132-4.91,10.921-9.097,17.217-12.451l3.536,6.653c-5.68,3.029-10.915,6.812-15.556,11.24
				c-13.19,12.62-20.459,29.456-20.459,47.408c0,9.069,1.828,17.824,5.429,26.042L27.98,130.39z"/>
			<path fill="#EEB227" d="M53.922,58.114l-4.55-4.757C62.825,40.49,80.83,33.402,100.056,33.402c3.752,0,7.541,0.272,11.3,0.801
				c9.178,1.321,18.24,4.368,26.933,9.068l-3.135,5.783c-8.001-4.325-16.319-7.128-24.724-8.327
				c-3.449-0.494-6.931-0.745-10.373-0.745C82.533,39.983,66.132,46.416,53.922,58.114z"/>
			<path fill="#EEB227" d="M8.867,101.325H4.842c0-24.727,9.96-47.878,28.057-65.189l2.779,2.91
				C18.392,55.582,8.867,77.706,8.867,101.325z"/>
			<path fill="#0E8B9A" d="M167.823,32.663c-16.231-12.98-34.027-20.916-52.884-23.613c-4.935-0.701-9.942-1.055-14.883-1.055
				c-19.536,0-38.293,5.492-54.24,15.881l-2.91-4.484C59.708,8.43,79.482,2.635,100.056,2.635c5.191,0,10.442,0.379,15.634,1.114
				c19.821,2.829,38.484,11.156,55.475,24.733L167.823,32.663z"/>
			<path fill="#0E8B9A" d="M205.484,67.436l-10.571-7.46C211.827,36.012,241.042,6.162,284.179,0l1.818,12.805
				C247.429,18.306,220.93,45.55,205.484,67.436z"/>
			<path fill="#6AB5C0" d="M217.582,68.975l-7.47-5.651c14.798-19.571,40.008-43.988,76.085-49.136
				c4.703-0.67,9.457-1.008,14.151-1.008c12.163,0,23.945,2.219,35.023,6.593l-3.452,8.715c-9.97-3.94-20.591-5.94-31.571-5.94
				c-4.256,0-8.562,0.313-12.815,0.914C254.614,28.163,231.326,50.807,217.582,68.975z"/>
			<path fill="#6AB5C0" d="M202.511,84.24l-10.452-4.262l3.098-7.641l0.272-0.423c13.509-21.382,43.134-58.239,89.75-64.891
				c5.029-0.72,10.136-1.083,15.168-1.083v11.3c-4.497,0-9.069,0.322-13.572,0.967c-39.785,5.679-66.259,35.292-81.529,59.321
				L202.511,84.24z"/>
			<path fill="#6AB5C0" d="M202.342,72.661l-5.42-6.643c-9-12.742-19.067-23.616-29.941-32.31l5.016-6.277
				c11.431,9.137,22.002,20.522,31.415,33.836l5.145,6.309L202.342,72.661z"/>
			<path fill="#F37B21" d="M368.581,34.998c-18.19-17.42-42.433-27.002-68.233-27.002c-4.938,0-9.942,0.354-14.883,1.055
				l-0.754-5.301c5.198-0.735,10.452-1.114,15.637-1.114c27.196,0,52.74,10.12,71.948,28.489L368.581,34.998z"/>
			<path fill="#0E8B9A" d="M113.637,184.442l-1.95-13.672c54.643-7.798,81.88-71.46,82.146-72.101
				c1.214-2.913,30.426-71.538,92.942-80.462l1.95,13.669c-54.821,7.823-81.883,71.457-82.146,72.098
				C205.359,106.895,176.138,175.517,113.637,184.442z"/>
			<path fill="#0E8B9A" d="M56.212,170.62l5.986-10.314c14.717,8.543,31.759,11.738,49.301,9.225l1.69,11.804
				c11.434-1.634,22.593-5.545,33.186-11.628l-9.998-17.414c-8.383,4.81-17.127,7.895-26.026,9.163
				c-3.455,0.491-6.928,0.741-10.327,0.741c-17.398,0-33.655-6.39-45.781-18c-5.87-5.62-10.458-12.138-13.621-19.342l-17.242,7.545
				c4.115,9.4,10.12,18.009,17.846,25.397l-0.87,0.911C45.191,163.322,50.505,167.309,56.212,170.62z"/>
			<path fill="#0E8B9A" d="M100.025,187.53c-23.951,0-46.432-8.893-63.308-25.028l3.799-3.968
				c15.847,15.158,36.972,23.507,59.503,23.516c4.34,0,8.762-0.316,13.133-0.948c45.071-6.434,72.317-44.576,84.584-66.838
				l3.11-7.36l5.048,2.141l-3.283,7.739c-12.724,23.144-41.169,62.967-88.677,69.748C109.297,187.192,104.619,187.53,100.025,187.53
				z"/>
			<path fill="#0E8B9A" d="M100.025,202.363c-27.794-0.006-53.914-10.358-73.553-29.152l6.947-7.254
				c17.762,16.998,41.419,26.358,66.606,26.367c4.819,0,9.735-0.357,14.582-1.052c18.795-2.675,36.478-10.683,52.597-23.77
				l6.327,7.792c-17.543,14.251-36.894,22.975-57.506,25.92C110.715,201.978,105.326,202.363,100.025,202.363z"/>
			<path fill="#EEB227" d="M115.055,194.377l-1.249-8.693c40.505-5.78,67.282-35.905,82.638-60.195
				c0.479-0.82,4.603-7.992,6.19-11.002l7.773,4.087c-1.746,3.33-6.208,11.059-6.399,11.387l-0.094,0.147
				C187.582,155.972,158.902,188.115,115.055,194.377z"/>
			<path fill="#6AB5C0" d="M56.532,170.072c-25.215-14.636-40.255-40.336-40.255-68.747c0-4.13,0.319-8.28,0.957-12.317l6.202,0.979
				c-0.588,3.721-0.892,7.532-0.892,11.337c0,26.148,13.884,49.818,37.131,63.324L56.532,170.072z"/>
			<path fill="#F37B21" d="M26.287,90.448l-11.897-1.89c3.442-21.711,15.446-40.893,33.79-54.008
				c18.622-13.334,41.822-18.832,65.329-15.477c5.298,0.76,10.571,1.996,15.684,3.674L125.425,34.2
				c-4.437-1.462-9.025-2.538-13.619-3.195C70.1,25.065,32.521,51.163,26.287,90.448z"/>
			<path fill="#EEB227" d="M24.732,175.029C13.748,164.508,5.415,152.16,0,138.313l14.021-5.492
				c4.622,11.791,11.731,22.327,21.132,31.321L24.732,175.029z"/>
			<path fill="#6AB5C0" d="M100.025,195.457c-26.007-0.006-50.428-9.676-68.784-27.234c-16.704-15.978-26.818-37.263-28.52-59.919
				l-0.004-0.166l-0.236-6.643l8.771-0.329l0.235,6.565c1.549,20.459,10.724,39.682,25.829,54.152
				c16.71,15.975,38.978,24.79,62.71,24.79c4.559,0,9.191-0.338,13.781-0.989l1.249,8.693
				C110.051,195.097,104.998,195.457,100.025,195.457z"/>
			<path fill="#EEB227" d="M140.364,164.737l-2.729-4.75l2.375-1.364c31.014-17.802,48.328-51.827,51.492-58.461l1.18-2.484
				l4.941,2.359l-1.18,2.472c-3.28,6.9-21.285,42.264-53.701,60.867L140.364,164.737z"/>
			<path fill="#0E8B9A" d="M208.864,97.73c-0.279-0.664-2.231-5.27-5.946-12.02l1.395-0.767
				c-12.939-23.466-41.844-63.868-90.107-70.755c-4.691-0.67-9.457-1.008-14.15-1.008v9.369c4.256,0,8.571,0.313,12.827,0.914
				c5.213,0.751,10.186,1.943,14.924,3.486l-3.43,10.427c44.554,14.654,66.966,67.038,67.176,67.548
				c1.242,2.967,30.977,72.84,94.879,81.961l2.641-18.56C235.832,160.722,209.12,98.34,208.864,97.73z"/>
			<path fill="#EEB227" d="M384.731,101.325h-7.526c0-20.738-9.147-40.574-25.109-54.414C334.96,32.037,311.7,25.435,288.281,28.767
				l-1.061-7.457c25.582-3.646,51.022,3.611,69.82,19.912C374.646,56.496,384.731,78.407,384.731,101.325z"/>
			<rect x="90.518" y="69.739" fill="#EEB227" width="20.369" height="63.192"/>
			<rect x="69.111" y="91.152" fill="#0E8B9A" width="63.189" height="20.369"/>
			<path fill="#6AB5C0" d="M403.422,110.532l-8.052-0.745c0.256-2.782,0.388-5.63,0.388-8.462c0-24.796-9.986-48.003-28.11-65.339
				l5.583-5.852c19.742,18.888,30.614,44.173,30.614,71.191C403.845,104.411,403.701,107.506,403.422,110.532z"/>
			<path fill="#0E8B9A" d="M375.728,115.235l-5.257-1.045c0.835-4.246,1.264-8.609,1.264-12.971c0-18.25-7.376-35.367-20.791-48.197
				l3.708-3.874c14.467,13.85,22.443,32.347,22.443,52.071C377.096,105.926,376.629,110.641,375.728,115.235z"/>
			<path fill="#F37B21" d="M366.522,116.521l-12.16-3.092c1.001-3.93,1.502-8.002,1.502-12.104
				c0-28.714-24.909-52.087-55.516-52.087c-2.976,0-6.03,0.226-9.056,0.654c-0.804,0.119-1.599,0.241-2.397,0.394l-2.265-12.348
				c0.967-0.178,1.918-0.338,2.895-0.473c3.611-0.513,7.25-0.773,10.824-0.773c37.532,0,68.07,28.996,68.07,64.632
				C368.418,106.479,367.78,111.583,366.522,116.521z"/>
			<path fill="#0E8B9A" d="M265.96,52.077l-1.446-2.613c-28.817,15.975-45.693,47.249-48.782,53.354l-3.045,6.212l-3.235-1.583
				l-1.327,2.954l11.447,5.141l5.138-11.431c3.017-5.595,26.464-46.873,64.184-53.823l-1.139-6.165
				C280.355,45.487,273.033,48.156,265.96,52.077z"/>
			<path fill="#6AB5C0" d="M300.382,190.44c-4.734,0-9.553-0.347-14.329-1.026c-21.307-3.048-41.068-12.949-58.758-29.428
				l7.704-8.268c15.963,14.883,33.677,23.798,52.656,26.511c5.079,0.714,10.167,0.995,15.171,0.876l0.263,11.297
				C302.188,190.422,301.283,190.44,300.382,190.44z"/>
		</g>
	</g>
	<g>
		<path fill="#0E8B9A" d="M324.535,149.198l7.884-25.106h6.999l7.997,25.106h-6.62l-1.377-5.169h-7.225l-1.283,5.169H324.535z
			 M333.382,139.238h4.753l-2.471-9.205L333.382,139.238z"/>
		<path fill="#0E8B9A" d="M349.434,149.198v-25.106h10.129c1.697,0,3.172,0.207,4.424,0.623c1.251,0.414,2.247,1.002,2.989,1.764
			c0.742,0.76,1.289,1.638,1.642,2.631c0.352,0.993,0.527,2.112,0.527,3.357c0,3.573-1.377,6.107-4.131,7.602l4.904,9.13h-7.337
			l-3.792-7.885h-3.131v7.885H349.434z M355.659,136.258h3.282c2.401,0,3.603-1.25,3.603-3.754c0-1.169-0.271-2.021-0.812-2.555
			c-0.54-0.535-1.509-0.803-2.904-0.803h-3.169V136.258z"/>
		<path fill="#0E8B9A" d="M372.22,149.198v-25.106h8.202c2.308,0,4.273,0.268,5.897,0.802s2.916,1.339,3.875,2.414
			s1.652,2.353,2.079,3.829c0.426,1.479,0.64,3.235,0.64,5.272c0,0.918-0.044,1.78-0.132,2.584
			c-0.088,0.806-0.252,1.651-0.489,2.537c-0.238,0.887-0.549,1.692-0.932,2.415s-0.896,1.418-1.542,2.084
			c-0.646,0.666-1.393,1.227-2.239,1.679c-0.846,0.452-1.874,0.814-3.085,1.085c-1.21,0.271-2.555,0.405-4.034,0.405H372.22z
			 M378.444,144.067h2.358c0.717,0,1.354-0.065,1.914-0.198c0.56-0.132,1.034-0.305,1.425-0.519c0.39-0.214,0.72-0.503,0.99-0.868
			c0.271-0.363,0.48-0.732,0.632-1.104c0.15-0.37,0.267-0.836,0.349-1.395c0.082-0.561,0.135-1.078,0.16-1.557
			s0.038-1.062,0.038-1.754c0-0.78-0.016-1.438-0.047-1.972c-0.032-0.534-0.095-1.087-0.188-1.66
			c-0.095-0.571-0.227-1.04-0.396-1.405c-0.17-0.364-0.402-0.72-0.698-1.065c-0.295-0.346-0.657-0.613-1.084-0.802
			c-0.428-0.189-0.943-0.34-1.547-0.453s-1.302-0.17-2.094-0.17h-1.812V144.067z"/>
		<path fill="#0E8B9A" d="M395.497,140.54v-16.448h6.225v15.298c0,1.019,0.085,1.87,0.255,2.556s0.428,1.214,0.773,1.584
			c0.346,0.371,0.738,0.629,1.179,0.773c0.44,0.146,0.975,0.217,1.604,0.217c1.421,0,2.421-0.373,2.999-1.121
			s0.868-2.072,0.868-3.971v-15.336h6.149v16.486c0,1.421-0.218,2.678-0.651,3.772c-0.434,1.094-0.986,1.962-1.656,2.603
			c-0.67,0.642-1.474,1.167-2.412,1.576c-0.938,0.408-1.854,0.685-2.747,0.829s-1.831,0.218-2.813,0.218
			c-0.943,0-1.833-0.066-2.67-0.199c-0.836-0.131-1.704-0.398-2.603-0.801c-0.899-0.402-1.666-0.925-2.302-1.566
			c-0.635-0.641-1.159-1.515-1.574-2.621C395.705,143.281,395.497,141.999,395.497,140.54z"/>
		<path fill="#0E8B9A" d="M419.018,149.198v-5.131h6.489v-14.845h-6.489v-5.131h19.222v5.131h-6.508v14.845h6.508v5.131H419.018z"/>
		<path fill="#0E8B9A" d="M441.447,149.198v-25.106h7.034l8.132,15.071v-15.071h6.149v25.106h-6.658l-8.546-16.071l0.038,16.071
			H441.447z"/>
		<path fill="#0E8B9A" d="M464.328,136.909c0-1.546,0.119-2.972,0.358-4.278s0.626-2.514,1.16-3.619s1.204-2.046,2.009-2.818
			c0.805-0.773,1.798-1.376,2.98-1.81c1.182-0.434,2.515-0.65,3.999-0.65c1.833,0,3.401,0.224,4.707,0.669
			c1.306,0.446,2.42,1.172,3.343,2.178c0.923,1.005,1.606,2.337,2.053,3.996c0.445,1.658,0.668,3.675,0.668,6.05
			c0,1.511-0.113,2.895-0.339,4.153c-0.226,1.258-0.603,2.438-1.13,3.539s-1.195,2.032-2.006,2.794
			c-0.81,0.761-1.829,1.362-3.06,1.803c-1.229,0.44-2.63,0.661-4.198,0.661c-3.572,0-6.223-1.061-7.951-3.182
			C465.192,144.275,464.328,141.112,464.328,136.909z M470.93,136.909c0,0.933,0.016,1.71,0.047,2.333s0.091,1.249,0.179,1.879
			c0.088,0.629,0.221,1.133,0.396,1.511s0.408,0.722,0.698,1.029c0.289,0.308,0.65,0.528,1.084,0.661
			c0.435,0.132,0.946,0.197,1.538,0.197c0.729,0,1.339-0.094,1.829-0.283c0.49-0.188,0.89-0.455,1.198-0.802
			c0.308-0.347,0.54-0.859,0.697-1.54c0.157-0.68,0.265-1.412,0.321-2.199s0.085-1.811,0.085-3.069c0-1.108-0.017-2.017-0.048-2.729
			c-0.031-0.711-0.104-1.385-0.217-2.02c-0.113-0.637-0.261-1.131-0.443-1.482c-0.182-0.354-0.431-0.662-0.745-0.926
			c-0.314-0.265-0.688-0.444-1.122-0.539c-0.434-0.094-0.965-0.141-1.594-0.141c-0.679,0-1.242,0.088-1.688,0.264
			s-0.82,0.443-1.122,0.803s-0.528,0.875-0.679,1.549c-0.151,0.674-0.259,1.432-0.321,2.275S470.93,135.6,470.93,136.909z"/>
		<path fill="#927C69" d="M325.932,178.037v-25.771h8.419c2.368,0,4.387,0.275,6.054,0.823c1.666,0.549,2.992,1.374,3.978,2.479
			c0.984,1.104,1.695,2.413,2.134,3.931c0.438,1.517,0.656,3.32,0.656,5.411c0,0.942-0.045,1.827-0.136,2.653
			c-0.09,0.826-0.258,1.693-0.502,2.604s-0.562,1.736-0.956,2.479c-0.393,0.742-0.92,1.455-1.583,2.139
			c-0.663,0.686-1.429,1.26-2.298,1.724c-0.869,0.465-1.924,0.836-3.166,1.113c-1.242,0.278-2.623,0.417-4.142,0.417H325.932z
			 M332.322,172.77h2.42c0.736,0,1.391-0.066,1.966-0.203c0.574-0.135,1.062-0.312,1.461-0.531c0.4-0.221,0.739-0.517,1.017-0.891
			c0.277-0.375,0.494-0.752,0.649-1.133c0.154-0.381,0.273-0.859,0.357-1.434s0.139-1.106,0.165-1.598
			c0.025-0.49,0.039-1.09,0.039-1.801c0-0.799-0.017-1.474-0.049-2.022s-0.097-1.116-0.193-1.704
			c-0.097-0.587-0.232-1.068-0.407-1.442c-0.174-0.374-0.413-0.739-0.716-1.094c-0.304-0.354-0.675-0.63-1.113-0.823
			c-0.439-0.193-0.969-0.348-1.588-0.465c-0.619-0.115-1.336-0.174-2.149-0.174h-1.858V172.77z"/>
		<path fill="#927C69" d="M348.315,178.037l8.093-25.771h7.184l8.209,25.771h-6.796l-1.413-5.306h-7.416l-1.316,5.306H348.315z
			 M357.395,167.814h4.88l-2.537-9.448L357.395,167.814z"/>
		<path fill="#927C69" d="M372.459,152.266h6.894l4.928,10.553l4.56-10.553h6.389l-8.055,15.586v10.186h-6.389v-9.991
			L372.459,152.266z"/>
		<path fill="#F37B21" d="M398.327,178.037v-3.787c1.108-0.646,2.289-1.521,3.542-2.627c1.252-1.105,2.427-2.305,3.522-3.597
			s2.003-2.659,2.721-4.101s1.076-2.738,1.076-3.889c0-0.957-0.235-1.721-0.706-2.289c-0.472-0.57-1.198-0.854-2.179-0.854
			c-0.839,0-1.675,0.253-2.507,0.757c-0.833,0.504-1.585,1.171-2.256,1.999l-2.885-4.169c0.09-0.104,0.216-0.232,0.377-0.388
			s0.526-0.438,1.094-0.853c0.568-0.412,1.175-0.777,1.82-1.094s1.481-0.603,2.508-0.861c1.025-0.258,2.088-0.387,3.185-0.387
			c2.465,0,4.404,0.675,5.818,2.024c1.413,1.351,2.12,3.149,2.12,5.396c0,1.242-0.268,2.517-0.804,3.823
			c-0.535,1.308-1.265,2.543-2.188,3.707c-0.923,1.166-1.93,2.249-3.021,3.252c-1.091,1.002-2.256,1.918-3.495,2.746h10.649v5.189
			H398.327z"/>
		<path fill="#F37B21" d="M420.557,165.724c0-1.758,0.113-3.341,0.338-4.751c0.226-1.408,0.593-2.686,1.101-3.829
			c0.509-1.145,1.162-2.098,1.96-2.86s1.779-1.351,2.944-1.765c1.165-0.413,2.508-0.62,4.026-0.62c3.424,0,5.927,1.086,7.51,3.258
			c1.583,2.171,2.374,5.352,2.374,9.539c0,1.65-0.088,3.126-0.262,4.428c-0.175,1.303-0.498,2.549-0.969,3.742
			c-0.472,1.191-1.086,2.185-1.842,2.977c-0.756,0.793-1.747,1.422-2.975,1.886s-2.655,0.696-4.283,0.696
			c-3.385,0-5.885-0.995-7.5-2.986S420.557,170.209,420.557,165.724z M426.87,164.967c0,2.459,0.104,4.205,0.311,5.24l4.581-13.139
			c-0.519-0.117-0.919-0.175-1.204-0.175c-0.725,0-1.329,0.185-1.814,0.554c-0.485,0.368-0.864,0.922-1.136,1.658
			c-0.271,0.738-0.463,1.572-0.572,2.504C426.925,162.541,426.87,163.66,426.87,164.967z M429.84,173.39
			c0.155,0.026,0.446,0.039,0.873,0.039c0.621,0,1.152-0.113,1.593-0.34c0.439-0.226,0.799-0.543,1.077-0.951
			c0.278-0.407,0.491-0.97,0.641-1.688c0.148-0.718,0.252-1.49,0.311-2.318c0.058-0.828,0.087-1.857,0.087-3.086
			c0-1.799-0.064-3.189-0.194-4.173L429.84,173.39z"/>
		<path fill="#F37B21" d="M444.86,178.037v-5.189h5.905v-14.754l-4.782,0.639v-4.724l11.094-2.11v20.949h6.138v5.189H444.86z"/>
		<path fill="#F37B21" d="M467.836,175.561l2.826-4.914c1.88,1.855,3.858,2.782,5.935,2.782c0.912,0,1.74-0.267,2.485-0.798
			s1.117-1.232,1.117-2.102c0-0.57-0.088-1.07-0.265-1.498s-0.489-0.83-0.938-1.206s-1.046-0.681-1.794-0.915
			c-0.747-0.232-1.715-0.418-2.903-0.554s-2.591-0.204-4.207-0.204v-13.887h15.354v5.189h-9.042v4.145
			c1.697,0,3.202,0.227,4.514,0.68c1.312,0.455,2.369,1.078,3.173,1.869c0.803,0.791,1.407,1.689,1.812,2.694
			s0.607,2.099,0.607,3.278c0,1.068-0.212,2.092-0.636,3.07c-0.425,0.979-1.035,1.859-1.833,2.645
			c-0.797,0.786-1.845,1.414-3.144,1.883c-1.299,0.471-2.746,0.705-4.34,0.705C473.175,178.424,470.267,177.47,467.836,175.561z"/>
		<path fill="#EEB227" d="M324.521,206.875l7.194-22.906h6.385l7.297,22.906h-6.04l-1.257-4.715h-6.592l-1.17,4.715H324.521z
			 M332.593,197.788h4.338l-2.255-8.398L332.593,197.788z"/>
		<path fill="#EEB227" d="M345.053,183.969h6.023l4.544,17.589l4.183-17.589h5.852l-6.764,22.906h-6.833L345.053,183.969z"/>
		<path fill="#EEB227" d="M367.39,206.875v-22.906h16.643v4.611H373.07v4.303h9.965v4.613h-9.965v4.698h10.929v4.681H367.39z"/>
		<path fill="#EEB227" d="M388.524,206.875v-22.906h5.68v18.226h10.532v4.681H388.524z"/>
		<path fill="#EEB227" d="M408.884,206.875v-22.906h5.68v18.226h10.532v4.681H408.884z"/>
		<path fill="#EEB227" d="M427.986,206.875v-4.681h5.921V188.65h-5.921v-4.681h17.538v4.681h-5.938v13.545h5.938v4.681H427.986z"/>
		<path fill="#EEB227" d="M447.674,206.875v-22.906h6.418l7.42,13.75v-13.75h5.61v22.906h-6.074l-7.798-14.663l0.034,14.663H447.674
			z"/>
		<path fill="#EEB227" d="M467.775,195.663c0-1.41,0.108-2.712,0.327-3.904c0.218-1.192,0.57-2.293,1.059-3.302
			c0.487-1.009,1.098-1.866,1.832-2.571s1.641-1.255,2.72-1.651c1.078-0.395,2.295-0.594,3.648-0.594
			c1.672,0,3.104,0.204,4.295,0.611s2.208,1.069,3.05,1.986s1.466,2.133,1.873,3.646c0.406,1.513,0.609,3.354,0.609,5.52
			c0,1.379-0.104,2.642-0.309,3.789c-0.207,1.148-0.551,2.225-1.031,3.229c-0.481,1.005-1.091,1.854-1.83,2.55
			c-0.738,0.694-1.669,1.242-2.791,1.645c-1.123,0.401-2.4,0.603-3.832,0.603c-3.259,0-5.677-0.968-7.254-2.902
			C468.563,202.383,467.775,199.498,467.775,195.663z M473.799,195.663c0,0.851,0.015,1.56,0.043,2.128s0.083,1.141,0.164,1.715
			c0.08,0.574,0.2,1.033,0.361,1.379c0.16,0.344,0.372,0.657,0.637,0.938c0.264,0.281,0.594,0.482,0.989,0.603
			c0.396,0.121,0.863,0.182,1.402,0.182c0.666,0,1.223-0.086,1.67-0.259c0.447-0.172,0.812-0.416,1.093-0.731
			c0.281-0.316,0.493-0.785,0.637-1.405s0.241-1.289,0.293-2.007c0.052-0.719,0.077-1.652,0.077-2.801c0-1.01-0.015-1.84-0.043-2.49
			c-0.029-0.648-0.095-1.263-0.198-1.843s-0.238-1.031-0.404-1.353c-0.166-0.322-0.394-0.604-0.68-0.845
			c-0.287-0.241-0.628-0.405-1.024-0.491c-0.396-0.086-0.88-0.129-1.454-0.129c-0.619,0-1.133,0.08-1.54,0.241
			s-0.749,0.405-1.024,0.732s-0.481,0.798-0.619,1.413c-0.138,0.614-0.235,1.307-0.293,2.076S473.799,194.469,473.799,195.663z"/>
	</g>
</g>
</svg>
