<?xml version="1.0" encoding="UTF-8" standalone="no"?>
<svg
   xmlns:dc="http://purl.org/dc/elements/1.1/"
   xmlns:cc="http://creativecommons.org/ns#"
   xmlns:rdf="http://www.w3.org/1999/02/22-rdf-syntax-ns#"
   xmlns:svg="http://www.w3.org/2000/svg"
   xmlns="http://www.w3.org/2000/svg"
   viewBox="0 0 460 152"
   height="152"
   width="460"
   version="1.1"
   id="svg2">
  <metadata
     id="metadata8">
    <rdf:RDF>
      <cc:Work
         rdf:about="">
        <dc:format>image/svg+xml</dc:format>
        <dc:type
           rdf:resource="http://purl.org/dc/dcmitype/StillImage" />
        <dc:title></dc:title>
      </cc:Work>
    </rdf:RDF>
  </metadata>
  <defs
     id="defs6" />
  <path
     id="path4140"
     d="m 139,138 c 0,-8 0.38462,-13 1,-13 0.61538,0 1,5 1,13 0,8 -0.38462,13 -1,13 -0.61538,0 -1,-5 -1,-13 z m 184,0 c 0,-8.49071 0.35275,-12.90003 1,-12.5 0.57588,0.35592 1,5.65738 1,12.5 0,6.84262 -0.42412,12.14408 -1,12.5 -0.64725,0.40003 -1,-4.00929 -1,-12.5 z m -264.998535,3.30902 0.0015,-8.80902 4.132232,-0.28399 C 67.279469,131.86246 70,134.03616 70,138.5 c 0,4.22027 -2.94427,6.88195 -6.960553,6.29248 C 60.41589,144.40743 60,144.65669 60,146.61418 c 0,1.24728 -0.45,2.5459 -1,2.88582 -0.637799,0.39418 -0.999469,-2.5726 -0.998535,-8.19098 z M 67.5,138.5 c 0,-3.90476 -0.08333,-4 -3.5,-4 -3.100462,0 -3.537051,0.32357 -3.824574,2.83447 -0.521518,4.55438 0.425741,5.83038 4.067699,5.4794 C 67.323834,142.51698 67.5,142.28364 67.5,138.5 Z m 161.25,10.9289 C 227.60409,148.26429 227.83738,132 229,132 c 0.55,0 1,0.54 1,1.2 0,0.93333 0.26667,0.93333 1.2,0 1.98905,-1.98905 6.5283,-1.42599 8.2433,1.02251 3.63537,5.19022 0.0503,11.44383 -5.99791,10.46234 -3.11161,-0.50494 -3.3496,-0.34248 -3.63742,2.483 -0.16938,1.66281 -0.64547,2.68028 -1.05797,2.26105 z M 237.8,141.8 c 0.66,-0.66 1.2,-2.145 1.2,-3.3 0,-1.155 -0.54,-2.64 -1.2,-3.3 -0.66,-0.66 -2.145,-1.2 -3.3,-1.2 -1.155,0 -2.64,0.54 -3.3,1.2 -0.66,0.66 -1.2,2.145 -1.2,3.3 0,1.155 0.54,2.64 1.2,3.3 0.66,0.66 2.145,1.2 3.3,1.2 1.155,0 2.64,-0.54 3.3,-1.2 z m 129.86667,7.53333 C 366.31308,147.97974 367.0871,147.5 370.6246,147.5 c 2.85451,0 3.80692,-0.48344 4.47671,-2.27237 0.757,-2.02186 0.6402,-2.15966 -1.05952,-1.25 C 371.19536,145.501 369.22784,145.22784 367,143 c -4.61831,-4.61831 -0.91295,-11.24773 6.02104,-10.7725 l 3.97603,0.2725 10e-4,7.17857 c 0.001,5.19416 -0.43293,7.61297 -1.56996,8.75 -1.57693,1.57694 -6.51422,2.15245 -7.7619,0.90476 z m 7.45765,-8.70684 C 376.55918,137.47731 374.74378,134 371.66482,134 368.83182,134 367,135.7671 367,138.5 c 0,4.7147 6.20505,6.33884 8.12432,2.12649 z m 74.12568,8.71123 c -2.49963,-1.00862 -1.15662,-1.83772 2.97684,-1.83772 3.26536,0 4.30983,-0.40787 4.58219,-1.78936 0.29005,-1.47117 -0.10746,-1.67384 -2.23541,-1.13976 C 450.60298,145.56744 447,142.74212 447,138.63193 c 0,-4.52749 2.59633,-6.67254 7.82822,-6.46753 l 4.17178,0.16347 0,6.61356 c 0,7.8224 -1.73289,11.09904 -5.8067,10.97962 -1.48132,-0.0434 -3.2558,-0.30592 -3.9433,-0.58333 z m 6.69981,-7.77725 c 0.65709,-0.79174 1.04969,-2.70424 0.87245,-4.25 C 456.53744,134.82655 456.09333,134.5 453,134.5 c -3.09333,0 -3.53744,0.32655 -3.82226,2.81047 C 448.80701,140.54367 450.45719,143 453,143 c 0.96531,0 2.29273,-0.64779 2.94981,-1.43953 z M 0.66666667,144.33333 C -0.78559254,142.88107 0.19257429,142.5009 4.5,142.84349 8.738904,143.18062 9,143.05499 9,140.67825 9,138.68029 8.2698855,137.91414 5.4923232,136.99747 0.85543771,135.46716 -0.77707437,132.51614 1.5752834,129.91681 3.4332612,127.86377 10,127.20168 10,129.06739 c 0,0.60546 -0.8491758,0.79787 -1.9622273,0.4446 -2.3562398,-0.74784 -6.3151536,1.15587 -5.7748058,2.77691 0.2114736,0.63442 2.1513179,2.06848 4.3107652,3.18681 4.1743099,2.16176 5.5543939,5.46005 3.3805871,8.07933 -1.2046594,1.45153 -8.041501,2.02444 -9.28765253,0.77829 z m 16.00000033,0 C 16.3,143.96667 16,141.49167 16,138.83333 16,135.2037 15.626437,134 14.5,134 c -0.825,0 -1.5,-0.45 -1.5,-1 0,-0.55 0.675,-1 1.5,-1 0.825,0 1.552201,-0.7875 1.616001,-1.75 0.110478,-1.66667 0.137779,-1.66667 0.573325,0 0.251527,0.9625 1.324326,1.75 2.383998,1.75 C 20.132996,132 21,132.45 21,133 c 0,0.55 -0.925874,1 -2.057498,1 -1.802154,0 -2.019336,0.52744 -1.75,4.25 0.256274,3.54202 0.684783,4.30356 2.572329,4.57149 1.245657,0.17683 2.006599,0.73933 1.690983,1.25 -0.662738,1.07234 -3.806759,1.24423 -4.789147,0.26184 z M 24.2,143.8 C 21.309155,140.90915 24.030765,137 28.934259,137 30.103807,137 31,136.34925 31,135.5 31,134.44764 29.937887,134 27.440983,134 25.322949,134 24.132197,133.59512 24.5,133 c 0.859274,-1.39033 5.846297,-1.2537 7.3,0.2 0.66,0.66 1.2,3.135 1.2,5.5 0,2.365 0.45,4.3 1,4.3 0.55,0 1,0.45 1,1 0,0.55 -0.675,1 -1.5,1 -0.825,0 -1.5,-0.54 -1.5,-1.2 0,-0.93333 -0.266667,-0.93333 -1.2,0 -0.66,0.66 -2.145,1.2 -3.3,1.2 -1.155,0 -2.64,-0.54 -3.3,-1.2 z m 6.619551,-3.55 c 0.363759,-2.56128 0.248309,-2.6065 -3.254451,-1.27475 -3.575191,1.35928 -3.435668,4.25776 0.1849,3.84117 1.969006,-0.22656 2.840752,-0.95541 3.069551,-2.56642 z m 6.182454,-1.3 0.002,-6.45 3.633424,-0.26005 c 1.998383,-0.14303 4.207419,0.21633 4.908968,0.79856 0.888129,0.73708 1.472371,0.74013 1.923588,0.0101 0.879098,-1.42241 4.85119,-1.32738 6.330011,0.15144 1.465364,1.46536 1.655348,12.19945 0.2,11.3 -0.55,-0.33992 -1,-2.87137 -1,-5.62544 0,-4.87267 -0.074,-4.99889 -2.75,-4.69098 -2.564932,0.29513 -2.770341,0.66973 -3.05226,5.56642 C 47.031498,142.6375 46.492514,145 46,145 45.507486,145 44.968502,142.6375 44.80226,139.75 44.522872,134.89727 44.310824,134.5 42,134.5 c -2.249906,0 -2.531325,0.45017 -2.813132,4.5 -0.506581,7.28004 -2.18713,7.24159 -2.184863,-0.05 z m 35.152093,4.8041 C 69.58835,141.18835 72.327625,137 76.571429,137 78.063492,137 79,136.42157 79,135.5 79,134.44764 77.937887,134 75.440983,134 73.322949,134 72.132197,133.59512 72.5,133 c 0.859274,-1.39033 5.846297,-1.2537 7.3,0.2 0.66,0.66 1.2,3.135 1.2,5.5 0,2.365 0.45,4.3 1,4.3 0.55,0 0.999834,0.3375 0.999632,0.75 -6.1e-4,1.24303 -9.602973,1.24666 -10.845534,0.004 z m 6.665453,-3.5041 c 0.363759,-2.56128 0.248309,-2.6065 -3.254451,-1.27475 -3.575191,1.35928 -3.435668,4.25776 0.1849,3.84117 1.969006,-0.22656 2.840752,-0.95541 3.069551,-2.56642 z M 98.5,144 c -0.366227,-0.59257 0.782134,-1 2.81854,-1 4.1977,0 6.5442,-2.25554 4.68146,-4.5 -0.68469,-0.825 -2.31479,-1.5 -3.62244,-1.5 -3.415483,0 -2.931945,-1.63912 0.69768,-2.36505 2.24876,-0.44975 2.9781,-1.08804 2.71378,-2.375 -0.26299,-1.2805 -1.23697,-1.71978 -3.57524,-1.6125 -3.596175,0.16499 -4.311936,-1.16413 -1.16482,-2.16299 2.84157,-0.90188 7.32575,2.1231 6.43353,4.33998 -0.3709,0.92156 -0.90433,2.23806 -1.18541,2.92556 -0.28108,0.6875 -0.0129,1.25 0.59593,1.25 1.96315,0 1.26914,5.84285 -0.82727,6.96482 -2.46236,1.31781 -6.760677,1.3378 -7.56574,0.0352 z m 12.91949,-0.34921 c -0.28476,-0.74207 -0.38314,-4.45457 -0.21862,-8.25 L 111.5,128.5 l 4.69736,-0.30264 C 122.2976,127.80433 125,130.21369 125,136.04545 125,141.62034 121.60849,145 116.01407,145 c -2.49887,0 -4.27724,-0.52222 -4.59458,-1.34921 z m 9.75177,-2.30578 c 2.23971,-2.0269 2.46563,-8.57155 0.35632,-10.32212 -0.80982,-0.67209 -2.94732,-1.2897 -4.75,-1.37244 L 113.5,129.5 l -0.29569,6.75 -0.29569,6.75 3.21695,0 c 1.76932,0 4.03988,-0.74474 5.04569,-1.65499 z m 36.48938,2.55578 c -0.41739,-0.87957 -0.62429,-4.70457 -0.45977,-8.5 L 157.5,128.5 l 4.15623,-0.30292 c 3.38895,-0.24699 4.45046,0.11715 5.75,1.97251 0.87657,1.25148 1.59377,2.62529 1.59377,3.05292 0,1.85554 -4.24434,4.77749 -6.93963,4.77749 -2.66792,0 -2.97205,0.34662 -3.29023,3.75 -0.24377,2.60734 -0.58184,3.26271 -1.1095,2.15079 z m 8.23417,-9.27404 c 1.60145,-1.92963 0.40911,-4.33365 -2.51316,-5.0671 -3.33285,-0.83649 -4.38165,0.001 -4.38165,3.49937 0,2.57328 0.35977,2.94098 2.87756,2.94098 1.58265,0 3.39041,-0.61796 4.01725,-1.37325 z M 171,138.5 c 0,-3.66667 0.4359,-6.5 1,-6.5 0.55,0 1,0.54 1,1.2 0,0.93333 0.26667,0.93333 1.2,0 1.45314,-1.45314 4.8,-1.59259 4.8,-0.2 0,0.55 -0.88417,1 -1.96482,1 C 174.54914,134 173,136.85407 173,141.43426 173,143.39542 172.55,145 172,145 c -0.5641,0 -1,-2.83333 -1,-6.5 z m 9.07258,3.86514 C 178.93266,140.91597 178,139.17666 178,138.5 c 0,-2.65565 4.14006,-6.5 7,-6.5 3.59579,0 7.33471,4.3278 6.39924,7.40713 -1.8094,5.95604 -7.7484,7.50703 -11.32666,2.95801 z m 8.99512,-1.49163 C 190.85451,137.53482 188.79174,134 185.05662,134 c -3.81042,0 -5.77876,3.11967 -4.18094,6.62649 1.4416,3.16397 6.5485,3.31796 8.19202,0.24702 z m 5.83381,1.37649 c -0.57694,-1.5125 -0.86874,-3.9875 -0.64844,-5.5 0.26501,-1.81949 -0.0484,-2.75 -0.92626,-2.75 C 192.59706,134 192,133.55 192,133 c 0,-0.55 0.70156,-1 1.55902,-1 0.85746,0 1.30012,-0.41891 0.98369,-0.9309 -0.31644,-0.512 -0.11799,-1.21356 0.44098,-1.55902 0.55897,-0.34546 1.01631,0.0734 1.01631,0.9309 0,0.89235 0.85524,1.55902 2,1.55902 1.1,0 2,0.45 2,1 0,0.55 -0.92587,1 -2.0575,1 -1.80215,0 -2.01933,0.52744 -1.75,4.25 0.25628,3.54202 0.68478,4.30356 2.57233,4.57149 2.68594,0.38128 1.98586,2.17851 -0.8486,2.17851 -1.22347,0 -2.36183,-1.0384 -3.01472,-2.75 z M 203,143 c -1.1,-1.1 -2,-3.125 -2,-4.5 0,-1.375 0.9,-3.4 2,-4.5 1.1,-1.1 3.125,-2 4.5,-2 1.375,0 3.4,0.9 4.5,2 1.1,1.1 2,3.125 2,4.5 0,1.375 -0.9,3.4 -2,4.5 -1.1,1.1 -3.125,2 -4.5,2 -1.375,0 -3.4,-0.9 -4.5,-2 z m 7.8,-1.2 c 0.66,-0.66 1.2,-2.145 1.2,-3.3 0,-1.155 -0.54,-2.64 -1.2,-3.3 -0.66,-0.66 -2.145,-1.2 -3.3,-1.2 -1.155,0 -2.64,0.54 -3.3,1.2 -0.66,0.66 -1.2,2.145 -1.2,3.3 0,1.155 0.54,2.64 1.2,3.3 0.66,0.66 2.145,1.2 3.3,1.2 1.155,0 2.64,-0.54 3.3,-1.2 z m 6.86667,2.53333 C 217.3,143.96667 217,141.52917 217,138.91667 c 0,-2.82223 -0.50731,-4.98675 -1.25,-5.33334 -1,-0.46666 -1,-0.7 0,-1.16666 0.6875,-0.32084 1.26431,-1.33334 1.2818,-2.25 0.0289,-1.51554 0.15226,-1.50799 1.36025,0.0833 0.73064,0.9625 2.06633,1.75 2.96819,1.75 0.90187,0 1.63976,0.45 1.63976,1 0,0.55 -0.9,1 -2,1 -1.7037,0 -2,0.66667 -2,4.5 0,3.83333 0.2963,4.5 2,4.5 1.1,0 2,0.45 2,1 0,1.11229 -4.28648,1.38019 -5.33333,0.33333 z m 7,0 C 223.60904,143.2757 223.89331,133.18397 225,132.5 c 0.62784,-0.38803 1,1.82295 1,5.94098 0,6.60427 -0.11467,7.11102 -1.33333,5.89235 z m 18.58333,-0.0285 c -0.6875,-0.25934 -1.25,-1.5432 -1.25,-2.85302 0,-2.56872 2.54544,-4.45185 6.01759,-4.45185 3.37726,0 1.74958,-2.45846 -1.86359,-2.81477 C 242.34808,133.80991 242.93201,132 246.85902,132 c 3.82744,0 5.14098,1.71188 5.14098,6.7 0,2.365 0.45,4.3 1,4.3 0.55,0 1,0.37324 1,0.82942 0,0.88418 -8.65212,1.26684 -10.75,0.47545 z m 6.56955,-4.05487 c 0.36376,-2.56128 0.24831,-2.6065 -3.25445,-1.27475 -3.57519,1.35928 -3.43567,4.25776 0.1849,3.84117 1.96901,-0.22656 2.84075,-0.95541 3.06955,-2.56642 z m 5.18045,3.659 c 0,-0.60007 1.60648,-2.96257 3.56996,-5.25 l 3.56996,-4.15896 -3.56996,-0.31037 C 253.1709,133.72025 254.29439,132 260,132 c 2.75,0 5,0.369 5,0.82 0,0.451 -1.575,2.66004 -3.5,4.90897 -1.925,2.24893 -3.5,4.35492 -3.5,4.67999 0,0.32507 1.575,0.59104 3.5,0.59104 1.925,0 3.5,0.45 3.5,1 0,0.55 -2.25,1 -5,1 -2.9448,0 -5,-0.44846 -5,-1.09104 z M 267,138.5 c 0,-3.66667 0.4359,-6.5 1,-6.5 0.5641,0 1,2.83333 1,6.5 0,3.66667 -0.4359,6.5 -1,6.5 -0.5641,0 -1,-2.83333 -1,-6.5 z m 5,4.5 c -4.1258,-4.1258 -1.0366,-11 4.9433,-11 3.31316,0 6.0567,3.04513 6.0567,6.72251 0,3.01409 -3.37907,6.27749 -6.5,6.27749 -1.375,0 -3.4,-0.9 -4.5,-2 z m 7.8,-1.2 c 2.805,-2.805 0.69173,-7.8 -3.3,-7.8 -2.68046,0 -4.5,1.81954 -4.5,4.5 0,2.68046 1.81954,4.5 4.5,4.5 1.155,0 2.64,-0.54 3.3,-1.2 z m 4.95,2.62714 c -0.4125,-0.41826 -0.75,-3.28985 -0.75,-6.38131 l 0,-5.62084 4.20169,-0.16756 c 5.80403,-0.23145 6.8238,0.93418 6.66213,7.61501 -0.0749,3.09516 -0.30876,4.50256 -0.51969,3.12756 -1.37927,-8.99104 -1.38302,-9 -3.767,-9 -3.17075,0 -4.38114,1.74585 -4.75838,6.86343 -0.17531,2.3783 -0.65625,3.98198 -1.06875,3.56371 z m 13.90499,-1.25588 C 294.92138,139.04567 297.74296,132 303.12874,132 c 3.09124,0 4.87126,1.71744 4.87126,4.7 0,2.06472 -0.46783,2.3 -4.57332,2.3 -3.81522,0 -4.51835,0.29009 -4.24169,1.75 0.23178,1.22302 1.45838,1.84346 4.07333,2.06037 4.64283,0.38511 4.96973,2.18963 0.39667,2.18963 -1.9706,0 -4.02502,-0.7514 -5,-1.82874 z M 305.75,135.75 c -0.22917,-0.6875 -1.69167,-1.25 -3.25,-1.25 -1.55833,0 -3.02083,0.5625 -3.25,1.25 -0.28283,0.84848 0.76111,1.25 3.25,1.25 2.48889,0 3.53283,-0.40152 3.25,-1.25 z m 35.25,0.75 0,-8.5 4.5,0 c 2.475,0 4.5,0.45 4.5,1 0,0.55 -1.575,1 -3.5,1 -3.06667,0 -3.5,0.30952 -3.5,2.5 0,2.19048 0.43333,2.5 3.5,2.5 1.925,0 3.5,0.45 3.5,1 0,0.55 -1.575,1 -3.5,1 -3.22222,0 -3.5,0.2381 -3.5,3 0,2.83333 0.22222,3 4,3 2.2,0 4,0.45 4,1 0,0.55 -2.25,1 -5,1 l -5,0 0,-8.5 z m 12,2.16213 0,-6.33786 4.46128,-0.16875 c 5.31536,-0.20105 6.53872,1.34786 6.53872,8.27874 0,6.32548 -1.82691,5.75667 -2.19774,-0.68426 -0.2936,-5.0995 -0.38826,-5.25 -3.30226,-5.25 -2.914,0 -3.00866,0.1505 -3.30226,5.25 C 354.77052,147.17054 353,146.29414 353,138.66213 Z M 380.32814,138.5 c -0.004,-3.85 0.17268,-5.54754 0.39359,-3.7723 0.22091,1.77523 0.22454,4.92523 0.008,7 -0.21648,2.07476 -0.39722,0.6223 -0.40166,-3.2277 z m 3.67333,0.25 0.001,-6.25 3.9095,-0.26761 c 5.31493,-0.36381 7.08757,1.59678 7.08757,7.83904 0,6.59184 -1.815,6.32639 -2.19774,-0.32143 -0.2936,-5.0995 -0.38826,-5.25 -3.30226,-5.25 -2.914,0 -3.00866,0.1505 -3.30226,5.25 -0.42456,7.37426 -2.19805,6.56676 -2.19627,-1 z m 14.48966,4.86717 C 397.22077,142.68826 396.6,141.00854 396.6,138.5 c 0,-5.89666 6.02316,-8.78386 9.74501,-4.67126 C 409.54993,137.37013 408.49565,139 403,139 c -2.75,0 -5,0.36 -5,0.8 0,1.76568 2.58134,3.2 5.75902,3.2 1.9847,0 3.10615,0.40914 2.74098,1 -0.90084,1.45759 -5.81306,1.22279 -8.00887,-0.38283 z m 7.26508,-7.86717 c -0.61362,-1.86875 -5.24086,-2.07588 -6.71425,-0.30056 -1.12782,1.35894 -0.76711,1.55056 2.91893,1.55056 2.91686,0 4.07999,-0.38308 3.79532,-1.25 z m 4.89878,7.42126 C 406.92138,139.04567 409.74296,132 415.12874,132 c 3.09124,0 4.87126,1.71744 4.87126,4.7 0,2.06472 -0.46783,2.3 -4.57332,2.3 -3.81522,0 -4.51835,0.29009 -4.24169,1.75 0.23178,1.22302 1.45838,1.84346 4.07333,2.06037 4.64283,0.38511 4.96973,2.18963 0.39667,2.18963 -1.9706,0 -4.02502,-0.7514 -5,-1.82874 z m 7.30305,-7.72182 c -1.47339,-1.77532 -6.10063,-1.56819 -6.71425,0.30056 -0.28467,0.86692 0.87846,1.25 3.79532,1.25 3.68604,0 4.04675,-0.19162 2.91893,-1.55056 z m 4.04236,3.30056 4.1e-4,-6.25 4.99959,-0.11238 4.9996,-0.11238 0,6.56238 c 0,7.78386 -1.72774,7.34254 -2.19272,-0.56009 -0.30631,-5.20592 -0.3152,-5.21851 -2.80728,-3.97615 -2.0541,1.02401 -2.55436,2.08927 -2.80479,5.97246 -0.44911,6.96404 -2.19528,5.75169 -2.19481,-1.52384 z m 13.00107,0.2 0.001,-6.45 3.92852,-0.26901 c 4.89798,-0.33539 7.06855,2.27214 7.06855,8.49152 0,6.1143 -1.83652,5.30164 -2.19774,-0.97251 -0.2936,-5.0995 -0.38826,-5.25 -3.30226,-5.25 -2.8425,0 -3.01644,0.23625 -3.31313,4.5 -0.50658,7.28 -2.18706,7.24155 -2.1854,-0.05 z M 224,129 c 0,-0.55 0.675,-1 1.5,-1 0.825,0 1.5,0.45 1.5,1 0,0.55 -0.675,1 -1.5,1 -0.825,0 -1.5,-0.45 -1.5,-1 z m 43,0 c 0,-0.55 0.45,-1 1,-1 0.55,0 1,0.45 1,1 0,0.55 -0.45,1 -1,1 -0.55,0 -1,-0.45 -1,-1 z m 112,0 c 0,-0.55 0.675,-1 1.5,-1 0.825,0 1.5,0.45 1.5,1 0,0.55 -0.675,1 -1.5,1 -0.825,0 -1.5,-0.45 -1.5,-1 z m 51,0 c 0,-0.55 0.675,-1 1.5,-1 0.825,0 1.5,0.45 1.5,1 0,0.55 -0.675,1 -1.5,1 -0.825,0 -1.5,-0.45 -1.5,-1 z M 302,71.5 302,28 l 6.375,0 c 6.34,0 6.37843,0.01716 7,3.125 0.34375,1.71875 0.625,21.29375 0.625,43.5 l 0,40.375 -7,0 -7,0 0,-43.5 z m 67.01101,40.25 c 0.006,-1.7875 0.28993,-4.9375 0.63084,-7 0.60302,-3.64828 0.73519,-3.75 4.87236,-3.75 4.84571,0 5.44847,1.0189 5.47214,9.25 L 380,115 l -5.5,0 -5.5,0 0.011,-3.25 z M 383,109.5 l 0,-5.5 5,0 5,0 0,5.5 0,5.5 -5,0 -5,0 0,-5.5 z m 13.00869,3.75 c 0.005,-0.9625 0.29246,-4.1125 0.63929,-7 l 0.6306,-5.25 4.25372,0 c 4.97401,0 5.4677,0.77487 5.4677,8.58179 l 0,5.41821 -5.5,0 c -4.57474,0 -5.49854,-0.2944 -5.49131,-1.75 z m 13.76498,1 c -0.18939,-0.4125 -0.10345,-2.55 0.19099,-4.75 0.52938,-3.95546 0.58268,-4 4.78663,-4 l 4.2513,0 -10e-4,4.75 -0.001,4.75 -4.44098,0 c -2.44254,0 -4.59595,-0.3375 -4.78535,-0.75 z m 13.23998,-4 c 0.0237,-8.22795 0.6274,-9.25 5.46409,-9.25 l 4.24448,0 0.56375,6.21708 c 0.31006,3.41939 0.346,6.56939 0.0799,7 C 433.09971,114.64768 430.65852,115 427.94098,115 L 423,115 l 0.0136,-4.75 z M 436,109.96862 c 0,-5.40488 0.17389,-5.58025 6.25,-6.30283 l 3.75,-0.44596 0,5.89008 0,5.89009 -5,0 -5,0 0,-5.03138 z m 13,-3.41636 0,-8.55226 5,0 5,0 0.15,7 c 0.0825,3.85 0.195,7.5625 0.25,8.25 0.0656,0.81949 -1.70815,1.3541 -5.15,1.55226 l -5.25,0.30226 0,-8.55226 z M 9.6902689,89.95374 C 7.5949168,89.432721 5.0077648,88.539339 3.9410423,87.968447 2.0500219,86.956403 2.0644327,86.806361 4.5176192,81.96523 5.9014591,79.234354 7.2734581,77 7.5665058,77 c 0.2930477,0 1.8398013,0.675869 3.4372302,1.501932 4.298531,2.222857 18.750843,2.182894 23.487817,-0.06495 C 40.267498,75.696119 43.5,69.95162 43.5,62.428017 43.5,52.819385 39.604925,50.017474 26.230948,50.005577 L 19.961896,50 20.543694,47.25 c 0.319989,-1.5125 0.787136,-3.7625 1.038104,-5 C 22.009441,40.141333 22.542543,40 30.068712,40 40.01126,40 43.449181,38.426754 46.056621,32.683683 48.114681,28.150662 48.587815,20.966859 47.021109,18.039442 45.015096,14.291173 33.979559,12.76734 25.630108,15.085685 20.936542,16.38892 20.204455,15.770805 19.388192,9.8155187 18.64493,4.3928317 18.648096,4.3909228 30.608801,3.0495843 50.009129,0.87392604 60.85226,6.8094159 61.815948,20.132261 62.51392,29.781628 57.876894,38.4267 49.748674,42.629966 l -2.872901,1.485635 3.288317,2.215996 C 55.603681,49.997337 58,54.473865 58,60.969744 58,72.677449 51.843241,82.478026 41.214439,87.689676 36.128913,90.183275 34.289375,90.51418 24.5,90.696349 18.45,90.808933 11.785621,90.474759 9.6902689,89.95374 Z M 73.423858,88.25 C 73.74438,86.7375 77.159911,67.5 81.013925,45.5 84.86794,23.5 88.227326,4.9375 88.479227,4.25 89.085915,2.5942037 103,2.4886623 103,4.1398567 103,4.7667779 99.625,24.352929 95.5,47.664637 91.375,70.976345 88,90.263409 88,90.52478 88,90.786151 84.589245,91 80.420545,91 l -7.579456,0 0.582769,-2.75 z M 92,90.549221 c 0,-0.247928 0.473328,-2.65783 1.05184,-5.355338 l 1.051839,-4.904558 9.071641,-0.587726 c 10.3839,-0.672743 17.95337,-3.688967 22.3396,-8.901703 7.13684,-8.48165 11.95582,-23.80679 11.33734,-36.054567 -0.31936,-6.324147 -0.80452,-7.993963 -3.2568,-11.209057 -3.75234,-4.919574 -11.09125,-8.170157 -20.458,-9.061353 l -7.36254,-0.700505 0.60154,-3.637207 c 0.33084,-2.000464 0.60648,-4.4848706 0.61253,-5.5209039 0.0102,-1.7504209 0.70085,-1.8476752 9.76101,-1.374573 12.95609,0.6765386 19.96195,3.3397872 26.81624,10.1940719 9.12274,9.12274 11.49167,23.432592 6.54967,39.564198 -6.38709,20.848647 -19.13857,33.590667 -37.00673,36.979295 C 107.77626,90.990662 92,91.416605 92,90.549221 Z M 163,50 l 0,-41 7,0 7,0 0,41 0,41 -7,0 -7,0 0,-41 z M 196.72193,76.75 189.26866,62.5 185.13433,62.192502 181,61.885004 181,56.442502 181,51 l 5.54966,0 C 196.86027,51 201.273,46.387201 201.41918,35.45631 201.55248,25.488323 196.17542,20.010805 186.25,20.003738 L 181,20 l 0,-5.5 0,-5.5 4.8185,0 c 11.55884,0 21.75353,5.770826 26.511,15.006869 2.51339,4.879445 2.78229,6.291282 2.40697,12.637424 -0.50668,8.567105 -3.81274,15.04831 -9.78041,19.173514 -2.13409,1.475206 -3.89724,3.032847 -3.91811,3.461425 -0.0209,0.428578 3.78705,7.342934 8.46205,15.365236 4.675,8.022302 8.5,14.984148 8.5,15.470768 C 218,90.601856 214.88942,91 211.0876,91 l -6.91241,0 -7.45326,-14.25 z M 245,90.278468 c -6.50916,-2.445869 -10.94118,-9.535382 -10.97804,-17.560587 -0.0543,-11.82699 7.91754,-19.04043 22.55265,-20.407078 L 263,51.71079 l 0,4.517376 0,4.517375 -5.19061,0.498752 c -4.22033,0.405521 -5.71577,1.086504 -8,3.643006 -4.75153,5.317887 -3.27799,13.843444 2.79152,16.151068 C 254.64516,81.815589 255,82.619735 255,86.475249 L 255,91 250.75,90.92105 c -2.3375,-0.04342 -4.925,-0.332585 -5.75,-0.642585 z m 28.88235,-3.160821 C 271.74706,84.982353 270,83.613384 270,84.075493 270,85.077775 261.82647,90 260.16214,90 259.45623,90 259,88.28105 259,85.62132 c 0,-3.93463 0.30811,-4.506303 3.03822,-5.63715 1.67102,-0.692159 3.47102,-2.067169 4,-3.055579 1.30791,-2.443854 1.2244,-31.10764 -0.10078,-34.593139 -1.42076,-3.73689 -2.53792,-4.302126 -8.5385,-4.320139 -3.50251,-0.01051 -6.53144,0.745227 -9.66547,2.411609 l -4.56442,2.426923 -2.56227,-3.87185 -2.56227,-3.871849 2.61528,-2.057175 c 6.32299,-4.97367 22.23381,-6.66511 29.84021,-3.17224 8.60974,3.953608 9.65679,7.024855 10.43874,30.619269 0.45958,13.867116 1.01464,19.594269 2.05465,21.199759 1.24903,1.928187 1.21594,2.638054 -0.26804,5.75 C 281.7942,89.402391 280.29714,91 279.39853,91 c -0.8986,0 -3.38088,-1.747059 -5.51618,-3.882353 z M 323.25,89.509132 C 320.09117,88.136174 320,87.924845 320,81.975694 l 0,-6.120854 2.63486,2.07258 c 3.22853,2.539563 8.5207,2.684476 12.48635,0.341909 9.3863,-5.544626 10.76309,-26.948056 2.30999,-35.91095 C 334.74919,39.514614 333.57475,39 329.76678,39 c -3.03536,0 -5.35348,0.67366 -7.13192,2.07258 L 320,43.14516 l 0,-6.474755 c 0,-6.363282 0.0542,-6.493655 3.14922,-7.57258 C 324.8813,28.494021 329.10491,28 332.53503,28 c 12.24526,0 21.90517,8.17815 24.52025,20.759033 1.55762,7.493534 0.6818,19.299299 -1.9491,26.273373 -2.26547,6.005369 -8.67491,13.125524 -13.42128,14.909504 -3.9727,1.493187 -14.57648,1.244253 -18.4349,-0.432778 z m 46.20455,-0.963677 C 364.3744,83.465308 368.01519,75 375.28023,75 379.74936,75 383,78.427649 383,83.140137 c 0,7.163842 -8.42495,10.525821 -13.54545,5.405318 z M 396,59.5 396,28 l 7,0 7,0 0,31.5 0,31.5 -7,0 -7,0 0,-31.5 z m 42.54289,28.242887 c -1.83521,-1.835204 -3.83061,-5.115619 -4.43424,-7.289811 C 433.48797,78.217448 433.00873,68.136673 433.00558,57.25 L 433,38 l -4,0 -4,0 0,-5 0,-5 4,0 4,0 0,-8.5 0,-8.5 4.5,-0.111111 c 2.475,-0.06111 5.5125,-0.162172 6.75,-0.22458 2.14942,-0.108396 2.26292,0.276546 2.53893,8.611111 L 447.07787,28 l 4.96106,0 4.96107,0 0,5 0,5 -5,0 -5,0 0,18.452947 c 0,21.381824 0.43451,23.052928 6.41471,24.670465 2.24691,0.60775 4.67517,1.27499 5.39613,1.482757 0.85793,0.247236 1.20345,1.676221 1,4.135794 L 459.5,90.5 l -8.81019,0.289811 c -8.80792,0.289736 -8.81105,0.288953 -12.14692,-3.046924 z M 397.45455,14.545455 c -3.32937,-3.329361 -3.313,-8.3903572 0.0373,-11.5378076 7.68783,-7.2223459 18.51367,4.0777283 11.05359,11.5378076 -3.24734,3.247346 -7.84356,3.247346 -11.0909,0 z"
     style="fill:#ffffff;fill-opacity:1" />
</svg>
