<?xml version="1.0" encoding="UTF-8" standalone="no"?>
<svg
   xmlns:dc="http://purl.org/dc/elements/1.1/"
   xmlns:cc="http://creativecommons.org/ns#"
   xmlns:rdf="http://www.w3.org/1999/02/22-rdf-syntax-ns#"
   xmlns:svg="http://www.w3.org/2000/svg"
   xmlns="http://www.w3.org/2000/svg"
   xmlns:xlink="http://www.w3.org/1999/xlink"
   xmlns:sodipodi="http://sodipodi.sourceforge.net/DTD/sodipodi-0.dtd"
   xmlns:inkscape="http://www.inkscape.org/namespaces/inkscape"
   version="1.1"
   id="svg2"
   height="44.105064"
   width="116.77937"
   inkscape:version="0.91 r13725"
   sodipodi:docname="2560_0_dslak.svg">
  <sodipodi:namedview
     pagecolor="#ffffff"
     bordercolor="#666666"
     borderopacity="1"
     objecttolerance="10"
     gridtolerance="10"
     guidetolerance="10"
     inkscape:pageopacity="0"
     inkscape:pageshadow="2"
     inkscape:window-width="1280"
     inkscape:window-height="977"
     id="namedview20"
     showgrid="false"
     fit-margin-top="0"
     fit-margin-left="0"
     fit-margin-right="0"
     fit-margin-bottom="0"
     inkscape:zoom="2.9276735"
     inkscape:cx="86.929092"
     inkscape:cy="78.366165"
     inkscape:window-x="1278"
     inkscape:window-y="24"
     inkscape:window-maximized="1"
     inkscape:current-layer="layer1" />
  <defs
     id="defs4">
    <pattern
       id="pattern3027"
       patternTransform="translate(-304.03979,561.33801)"
       height="200"
       width="200"
       patternUnits="userSpaceOnUse">
      <image
         width="200"
         height="200"
         id="image3013"
         x="0"
         y="-1.1368684e-13"
         xlink:href="file:///archive/DSLAK/ABOUT/VISIT/bg_texture_grey.jpg" />
    </pattern>
    <pattern
       xlink:href="#pattern4526-8"
       id="pattern4723"
       patternTransform="matrix(0.6701195,0,0,0.75925927,-422.39307,1208.7618)" />
    <pattern
       patternTransform="matrix(0.6701195,0,0,0.75925927,-169.69952,1204.4455)"
       id="pattern4526-8"
       xlink:href="#pattern3027-2" />
    <pattern
       id="pattern3027-2"
       patternTransform="translate(-304.03979,561.33801)"
       height="200"
       width="200"
       patternUnits="userSpaceOnUse">
      <image
         width="200"
         height="200"
         id="image3013-7"
         x="0"
         y="-1.1368684e-13"
         xlink:href="file:///archive/DSLAK/ABOUT/VISIT/bg_texture_grey.jpg" />
    </pattern>
  </defs>
  <metadata
     id="metadata7">
    <rdf:RDF>
      <cc:Work
         rdf:about="">
        <dc:format>image/svg+xml</dc:format>
        <dc:type
           rdf:resource="http://purl.org/dc/dcmitype/StillImage" />
        <dc:title></dc:title>
      </cc:Work>
    </rdf:RDF>
  </metadata>
  <g
     transform="translate(-18.722052,-977.91672)"
     id="layer1">
    <g
       id="g4164">
      <path
         id="path2985-4-0-3-9-8-0-64"
         d="m 67.70559,977.91672 c -9.617382,4.27559 -21.87226,14.56369 -25.741921,26.61538 l 0.06648,0.084 c 4.260553,-12.0032 17.576151,-21.78779 22.87049,-24.32635 -13.206505,10.22759 -15.584402,16.57719 -19.797619,27.12835 -1.234389,3.1022 -2.316095,5.8783 -3.610464,8.0834 -1.29438,2.2053 -2.779289,3.8338 -4.851546,4.7484 -2.858055,1.2616 -8.064608,0.2286 -11.91342,-1.9895 -1.924411,-1.1091 -3.507881,-2.4986 -4.330264,-3.9263 -0.822384,-1.4278 -0.945094,-2.8209 7.33e-4,-4.2937 1.935278,-3.013 7.344911,-5.6363 11.985228,-6.8138 2.320164,-0.5888 4.461937,-0.8227 5.806898,-0.6565 0.672486,0.084 1.122751,0.2775 1.292879,0.4504 0.170127,0.1729 0.214954,0.29 0.03301,0.7305 -1.448943,3.5082 -5.759298,5.8817 -9.521344,6.965 -1.881029,0.5417 -3.623095,0.7682 -4.712481,0.6973 -0.544687,-0.035 -0.918777,-0.1756 -1.001611,-0.2404 5.15e-4,0 -0.0057,5e-4 0.04585,-0.082 3.517646,-5.7084 11.479946,-6.2723 11.479946,-6.2723 l 0.183721,-0.2081 c 0,0 -8.636677,-0.4396 -12.542706,5.899 -0.147261,0.239 -0.239403,0.5099 -0.205407,0.8046 0.03404,0.2948 0.208444,0.5545 0.412808,0.7143 0.408727,0.3196 0.928313,0.4163 1.571022,0.4582 1.285428,0.084 3.089399,-0.1614 5.056896,-0.728 3.935016,-1.1331 8.526254,-3.5482 10.192351,-7.5823 0.287049,-0.6949 0.19022,-1.4547 -0.265696,-1.918 -0.455915,-0.4633 -1.113192,-0.659 -1.903058,-0.7566 -1.579698,-0.1953 -3.781589,0.07 -6.179143,0.6782 -4.795109,1.2167 -10.342501,3.7533 -12.597608,7.2645 -1.149354,1.7895 -0.993485,3.7562 -0.02602,5.4359 0.967524,1.6798 2.689887,3.1448 4.723392,4.3168 4.06701,2.3438 9.397545,3.5535 12.824941,2.0406 2.317655,-1.0229 3.96876,-2.8585 5.329148,-5.1762 1.360389,-2.3177 2.453706,-5.1282 3.686238,-8.2257 2.465065,-6.195 5.482266,-13.52317 12.137521,-20.27199 4.145764,-4.20395 7.419102,-6.95111 9.662461,-8.6517 l -0.161783,-0.995 z"
         style="color:#000000;font-style:normal;font-variant:normal;font-weight:normal;font-stretch:normal;font-size:medium;line-height:normal;font-family:Sans;-inkscape-font-specification:Sans;text-indent:0;text-align:start;text-decoration:none;text-decoration-line:none;letter-spacing:normal;word-spacing:normal;text-transform:none;direction:ltr;block-progression:tb;writing-mode:lr-tb;baseline-shift:baseline;text-anchor:start;display:inline;overflow:visible;visibility:visible;fill:#ffffff;fill-opacity:1;stroke:none;stroke-width:5;marker:none;enable-background:accumulate"
         inkscape:connector-curvature="0" />
      <path
         id="path2986-9-0-7-5-1-4-9"
         d="m 90.983995,979.69605 c -1.65307,0.50592 -3.56041,1.87859 -5.71738,4.11719 -5.24571,5.34475 -11.430641,14.61034 -18.54447,27.79296 -0.443479,0.8594 -1.145972,1.7703 -2.115479,2.7392 -0.429909,0.3963 -0.881366,0.7971 -1.346073,1.1922 -1.069442,0.8106 -1.604192,1.3195 -1.610233,1.5254 -0.0011,0.052 0.03576,0.076 0.105334,0.078 0.104417,0 0.313767,-0.042 0.630135,-0.1344 l 4.58906,-3.3433 c -0.09743,2.134 0.772273,3.4224 2.606308,3.8761 0.867417,0.1349 2.025081,-0.012 3.466963,-0.4472 1.476679,-0.4352 2.674666,-0.9968 3.601088,-1.6839 -1.789312,0.3979 -2.962288,0.5863 -3.519366,0.5657 -2.886869,-0.2089 -4.301885,-1.1091 -4.255086,-2.7043 0.01032,-0.3344 0.08642,-0.6945 0.237018,-1.0753 14.995971,-16.91107 22.552741,-27.34886 22.669011,-31.31086 0.0219,-0.74605 -0.24053,-1.14125 -0.79683,-1.18744 z m 43.896255,2.19516 c -2.0891,-0.0768 -5.09735,2.09246 -9.02608,6.50674 -3.78647,4.31651 -9.26834,11.69345 -16.44144,22.14395 l -5.59739,3.6954 c -0.15134,0.4065 0.0346,0.6766 0.55384,0.7987 0.24297,0.034 0.80782,-0.2078 1.69411,-0.7162 0.88705,-0.534 1.46536,-0.7554 1.74163,-0.6681 0.0689,0.029 0.10488,0.095 0.10179,0.1984 -0.009,0.3087 -0.42251,1.1849 -1.23152,2.6233 -0.77419,1.4396 -1.16447,2.3393 -1.17504,2.6996 -0.006,0.18 0.0581,0.2708 0.19739,0.2759 0.27778,0.036 1.20161,-0.9985 2.76217,-3.1046 2.10473,-2.833 3.65589,-4.8017 4.66401,-5.8979 1.90949,-2.1189 3.41988,-3.1771 4.53557,-3.1876 2.54471,-0.011 3.81675,0.3023 3.79791,0.9455 -0.0159,0.5403 -0.89086,1.2022 -2.62182,1.9886 -1.731,0.7863 -3.51154,1.381 -5.33565,1.7777 -1.01653,0.1944 -1.53688,0.6925 -1.56027,1.49 -0.0249,0.849 0.46397,1.9035 1.47227,3.1767 0.87432,1.088 1.70735,1.8559 2.4961,2.2969 0.47912,0.3009 1.27765,0.473 2.39184,0.514 3.20322,0.1176 5.78416,-0.7017 7.75276,-2.4581 -0.98626,0.3501 -2.13413,0.4962 -3.45719,0.4476 -1.42755,-0.053 -2.87169,-0.2936 -4.3227,-0.7331 -0.6207,-0.2289 -1.47683,-0.6891 -2.57212,-1.3732 -1.40263,-0.9013 -2.0952,-1.6208 -2.07935,-2.1611 0.009,-0.3086 0.26208,-0.5534 0.75558,-0.7413 8.27653,-2.9155 12.42722,-4.7116 12.44687,-5.3805 0.003,-0.1032 -0.0466,-0.1818 -0.14959,-0.2372 -0.82509,-0.3908 -1.9861,-0.6103 -3.48324,-0.6652 -1.67129,-0.061 -3.78869,0.093 -6.34397,0.462 -1.01501,0.143 -2.04499,0.2934 -3.09556,0.4609 0.14832,-0.3036 3.85183,-4.4297 11.12584,-12.37841 7.05826,-7.72479 10.60398,-11.93367 10.62439,-12.62837 0.003,-0.10316 -0.20339,-0.15565 -0.62117,-0.17101 z m -44.252185,-0.73493 c 0.0696,0 0.0967,0.0378 0.0944,0.11462 -0.26327,1.84466 -1.53149,4.32041 -3.81858,7.42999 -1.23366,1.65451 -3.82712,4.81876 -7.763397,9.49036 -3.791001,4.47085 -6.661916,8.08765 -8.625103,10.84855 12.36253,-18.63019 19.06803,-27.92192 20.1126,-27.88352 z m -30.361693,23.71762 c -1.619001,0.533 -3.211078,1.3115 -4.774764,2.3358 -1.776371,1.1453 -2.607466,2.0833 -2.489329,2.8089 0.0886,0.544 0.805592,0.9107 2.159722,1.0892 1.354119,0.1784 2.028233,0.5682 2.010112,1.1857 -0.02189,0.746 -1.48366,2.3983 -4.381636,4.9445 -2.825332,2.4461 -4.11507,4.0294 -3.857672,4.76 0.06361,0.2083 1.458948,-0.9516 4.182098,-3.4787 3.332401,-3.097 5.356541,-4.9074 6.06951,-5.4478 1.035378,-0.8376 1.563457,-1.5987 1.583092,-2.2676 0.0057,-0.2058 -0.07828,-0.397 -0.247059,-0.5835 -0.133232,-0.2109 -0.61143,-0.3376 -1.447051,-0.3682 -0.174094,-0.012 -0.420281,0 -0.73438,0.019 -0.313366,-0.012 -0.558957,-0.021 -0.733039,-0.028 -0.974906,-0.035 -1.489036,-0.2294 -1.548855,-0.5664 -0.09238,-0.4155 0.632668,-1.2825 2.1706,-2.6167 1.323722,-1.1619 2.003051,-1.7631 2.038651,-1.7876 z m 34.111933,2.5309 c -2.79074,0.078 -5.34665,0.5239 -7.67103,1.3399 -3.06313,1.0466 -5.31197,2.6153 -6.7325,4.7008 -0.58427,0.9057 -0.882467,1.7318 -0.904359,2.4778 -0.04,1.3635 0.926569,2.0818 2.911189,2.1546 1.70608,0.063 4.07712,-0.3562 7.1009,-1.2496 3.72692,-1.0994 5.99761,-1.9754 6.81883,-2.6406 -0.28989,0.3757 -0.44357,0.7782 -0.45639,1.2156 -0.0355,1.2091 0.92455,2.0042 2.86531,2.3845 2.873275,0.6721 4.692075,1.0247 5.458095,1.0529 -2.99975,-1.1146 -4.465385,-2.8743 -4.395175,-5.2668 0.0135,-0.4631 0.0938,-0.9455 0.24815,-1.4549 0.14605,-0.2264 0.22792,-0.4322 0.23323,-0.6122 0.0128,-0.4374 -0.30108,-0.7029 -0.92552,-0.8031 -1.94076,-0.3803 -3.42484,-0.698 -4.46332,-0.9421 0.78569,0.5438 1.17062,1.1184 1.15328,1.7101 -0.0332,1.1319 -1.32246,2.2189 -3.86254,3.2588 -2.32819,0.9447 -4.11733,1.3531 -5.3685,1.2298 -2.46831,-0.2193 -3.68112,-0.924 -3.64641,-2.1074 0.0287,-0.9776 0.72065,-2.0093 2.07694,-3.0927 1.8142,-1.2469 4.99952,-2.3638 9.55982,-3.3554 z"
         style="font-style:normal;font-variant:normal;font-weight:bold;font-stretch:normal;font-size:147.50212097px;line-height:125%;font-family:Dali;-inkscape-font-specification:'Dali Bold';text-align:end;letter-spacing:0px;word-spacing:0px;text-anchor:end;fill:#ffffff;fill-opacity:1;stroke:none"
         inkscape:connector-curvature="0" />
    </g>
  </g>
</svg>
