<?xml version="1.0" encoding="UTF-8" standalone="no"?>
<!-- Created with Inkscape (http://www.inkscape.org/) -->

<svg
   xmlns:dc="http://purl.org/dc/elements/1.1/"
   xmlns:cc="http://creativecommons.org/ns#"
   xmlns:rdf="http://www.w3.org/1999/02/22-rdf-syntax-ns#"
   xmlns:svg="http://www.w3.org/2000/svg"
   xmlns="http://www.w3.org/2000/svg"
   xmlns:sodipodi="http://sodipodi.sourceforge.net/DTD/sodipodi-0.dtd"
   xmlns:inkscape="http://www.inkscape.org/namespaces/inkscape"
   id="svg2"
   sodipodi:version="0.32"
   inkscape:version="0.91 r13725"
   width="1097.4023"
   height="362.37659"
   version="1.0"
   sodipodi:docname="irlug.svg"
   style="display:inline"
   inkscape:output_extension="org.inkscape.output.svg.inkscape">
  <metadata
     id="metadata7">
    <rdf:RDF>
      <cc:Work
         rdf:about="">
        <dc:format>image/svg+xml</dc:format>
        <dc:type
           rdf:resource="http://purl.org/dc/dcmitype/StillImage" />
        <dc:title></dc:title>
      </cc:Work>
    </rdf:RDF>
  </metadata>
  <defs
     id="defs5">
    <inkscape:perspective
       sodipodi:type="inkscape:persp3d"
       inkscape:vp_x="0 : 526.18109 : 1"
       inkscape:vp_y="0 : 1000 : 0"
       inkscape:vp_z="744.09448 : 526.18109 : 1"
       inkscape:persp3d-origin="372.04724 : 350.78739 : 1"
       id="perspective9" />
  </defs>
  <sodipodi:namedview
     inkscape:window-height="977"
     inkscape:window-width="1280"
     inkscape:pageshadow="2"
     inkscape:pageopacity="0.0"
     guidetolerance="10.0"
     gridtolerance="10.0"
     objecttolerance="10.0"
     borderopacity="1.0"
     bordercolor="#666666"
     pagecolor="#ffffff"
     id="base"
     showgrid="false"
     inkscape:zoom="0.3475"
     inkscape:cx="1422.6166"
     inkscape:cy="24.059173"
     inkscape:window-x="-2"
     inkscape:window-y="24"
     inkscape:current-layer="layer2"
     borderlayer="false"
     inkscape:showpageshadow="false"
     inkscape:window-maximized="1"
     fit-margin-top="0"
     fit-margin-left="0"
     fit-margin-right="0"
     fit-margin-bottom="0" />
  <g
     inkscape:groupmode="layer"
     id="layer2"
     inkscape:label="irlug"
     style="display:inline"
     transform="translate(436.77659,393.34581)">
    <path
       style="fill:#ffffff;fill-opacity:1"
       d="m -365.95373,-31.456622 c -5.76001,-1.079538 -11.10892,-4.213569 -14.5271,-8.511701 -2.26997,-2.854356 -2.48405,-3.974347 -1.77093,-9.266488 0.58211,-4.319922 0.55601,-4.5881 -0.7455,-7.661625 l -1.34868,-3.185008 1.89605,-15.121738 c 1.04286,-8.316954 2.02414,-15.856523 2.1806,-16.754588 0.27783,-1.594723 0.17703,-1.690017 -4.31626,-4.080319 -20.71006,-11.017111 -34.40962,-30.353591 -38.10094,-53.778121 -1.41684,-8.99121 -0.76256,-20.77111 1.62673,-29.28634 l 0.85299,-3.04016 -3.15294,-3.2835 c -5.58069,-5.81167 -9.79594,-13.24425 -12.21547,-21.53884 -1.06582,-3.65371 -1.21802,-5.27895 -1.20008,-12.81472 0.0188,-7.84376 0.1487,-9.04927 1.4263,-13.22705 2.70046,-8.83022 6.95248,-15.82054 13.39422,-22.01996 l 3.74325,-3.60249 -1.01388,-1.10496 c -1.82456,-1.98842 -5.90507,-8.69784 -7.93827,-13.05252 -7.43715,-15.92876 -8.57713,-34.39644 -3.14872,-51.00812 5.74969,-17.59467 18.84728,-32.78854 35.12977,-40.75232 10.78408,-5.27451 17.53258,-6.89582 30.27496,-7.27349 l 9.15337,-0.2713 2.0922,-1.99032 c 3.53886,-3.36655 11.55074,-8.69884 17.15532,-11.4177 10.36474,-5.0281 19.52596,-7.31764 31.09124,-7.77025 13.28877,-0.52004 24.35161,1.62522 36.23251,7.02605 3.08661,1.40311 4.09303,1.57764 10.72252,1.8593 4.02391,0.17096 9.08149,0.69359 11.23907,1.16139 8.73828,1.89462 18.05764,5.70033 25.23793,10.30629 l 4.12052,2.64321 4.54286,-1.38643 c 7.09033,-2.16391 11.35786,-2.93684 18.14215,-3.28593 34.24672,-1.76216 64.03209,20.28893 72.91344,53.98025 0.54534,2.06875 0.65436,2.14924 4.88159,3.60389 11.20672,3.85637 22.867078,11.29412 31.815468,20.29402 16.3088,16.40268 25.07324,37.58917 25.04869,60.55084 -0.0213,19.88667 -6.32691,37.98194 -18.68235,53.61261 -3.0049,3.80146 -12.49694,13.33778 -13.27584,13.33778 -0.24461,0 -0.44613,1.35339 -0.44783,3.00754 -0.005,4.50362 -1.34951,12.44946 -2.84658,16.81796 -5.199308,15.17178 -18.004938,27.21507 -33.440508,31.44976 -7.46274,2.04738 -19.09638,2.17441 -25.48147,0.27824 -2.39676,-0.71176 -2.43228,-0.70385 -5.35792,1.19435 -2.92845,1.90002 -2.94519,1.92571 -2.9511,4.52612 -0.0148,6.55185 3.59359,47.258509 4.71207,53.156211 0.64193,3.384886 -0.14801,7.389973 -2.0689,10.489535 -1.48095,2.38969 -1.50415,2.53617 -0.95923,6.056641 0.64366,4.158419 0.33719,5.917959 -1.30601,7.497873 -3.18942,3.066626 -9.5244,4.13517 -24.44624,4.123438 -10.73187,-0.0084 -14.94609,-0.633142 -19.3601,-2.869891 -5.14661,-2.607985 -9.9307,-8.120973 -9.9307,-11.44372 l 0,-1.289595 -3.26906,1.299998 c -4.47508,1.779594 -16.14256,4.748206 -22.55708,5.739302 -8.4562,1.306552 -31.13562,1.573642 -41.40902,0.487659 -15.48429,-1.636815 -27.36926,-4.667613 -36.92685,-9.416749 -2.63778,-1.310706 -4.82666,-2.32184 -4.8642,-2.24696 -0.0376,0.07487 -0.72675,1.119029 -1.53162,2.320333 -1.45464,2.171149 -1.45959,2.207673 -0.82941,6.114156 0.57785,3.582091 0.54704,4.078398 -0.34803,5.60688 -2.56792,4.385193 -6.11139,5.239888 -22.68855,5.472551 -7.0481,0.09892 -13.8739,-0.01867 -15.16845,-0.261274 z m 118.74795,-21.223121 c 29.62738,-3.629265 48.63078,-16.620313 47.41645,-32.414679 -0.48575,-6.317897 -7.60122,-39.599558 -16.66204,-77.934438 -2.03985,-8.63032 -4.10249,-17.44562 -4.58363,-19.58955 l -0.87479,-3.89806 -4.6793,-1.35883 c -11.51052,-3.34257 -21.20797,-9.6491 -28.36994,-18.4498 -2.9177,-3.58529 -7.43082,-10.54567 -7.43082,-11.46021 0,-0.96576 -0.85459,-0.32505 -1.363,1.02186 -1.23031,3.25944 -5.93431,9.57232 -10.63673,14.27474 -10.25045,10.25045 -21.79356,15.60609 -35.83823,16.62779 l -4.68635,0.34092 -1.24885,3.92287 c -14.89543,46.78927 -22.46521,85.421909 -19.19666,97.970752 2.36994,9.098825 9.94628,17.583552 20.34633,22.785827 7.91766,3.960544 18.21351,6.664587 30.91692,8.119837 8.85589,1.014497 28.76281,1.036607 36.89064,0.04095 z m -4.34919,-13.199196 c -3.4037,-3.761048 -4.00365,-18.258668 -1.01494,-24.526035 1.12915,-2.367855 3.05073,-2.886961 4.34332,-1.173326 3.34312,4.432064 3.39984,20.546159 0.0879,24.986465 -1.28841,1.727404 -2.30603,1.939751 -3.41633,0.712896 z m -45.49876,-1.910617 c -3.61251,-3.612508 -3.27721,-23.287284 0.42105,-24.706441 2.21613,-0.850407 3.8896,4.471905 3.8896,12.370549 0,5.746268 -1.00041,10.664114 -2.46785,12.131557 -0.92908,0.929078 -1.0992,0.947939 -1.8428,0.204335 z m -43.00903,12.382076 c 1.53377,-0.481655 1.56542,-0.560751 1.40376,-3.507604 -0.14607,-2.662952 -0.46894,-3.432201 -2.76623,-6.590679 -4.24872,-5.841469 -7.75779,-14.308987 -7.7927,-18.804084 -0.008,-1.006871 -0.18715,-2.094647 -0.3985,-2.417281 -0.21136,-0.322632 -2.62032,-0.752114 -5.35325,-0.954404 -2.73294,-0.202288 -6.55774,-0.666391 -8.49956,-1.031333 -1.94183,-0.364937 -3.53399,-0.523887 -3.53815,-0.353216 -0.004,0.170671 -0.70935,5.841562 -1.5671,12.601982 -0.85776,6.760421 -1.56047,13.048443 -1.5616,13.973383 -0.004,2.864797 3.80276,6.40405 8.10523,7.536705 2.07455,0.546142 19.96066,0.176932 21.9681,-0.453469 z m 166.85292,-0.01888 c 0.86303,-0.272728 1.51914,-0.736914 1.45801,-1.031518 -0.51273,-2.471091 -2.4143,-21.986867 -3.29991,-33.867046 -0.60047,-8.054968 -1.20624,-15.404616 -1.34615,-16.332546 l -0.25439,-1.68716 -1.94013,0.75239 c -1.06707,0.4138 -3.80168,1.23006 -6.07692,1.81389 -2.27523,0.58383 -4.24299,1.16771 -4.37279,1.29751 -0.12979,0.12979 0.37749,3.60335 1.12731,7.719001 1.83393,10.066317 2.09053,13.10283 1.47213,17.420963 -0.97681,6.820942 -4.1547,13.183274 -9.6506,19.321123 -1.65414,1.847355 -3.00753,3.485757 -3.00753,3.640888 0,0.155131 1.11802,0.64116 2.48449,1.080067 1.97531,0.63447 4.46759,0.753981 12.1609,0.583158 5.32204,-0.118168 10.38255,-0.437992 11.24558,-0.71072 z m -175.74919,-48.10557 c 2.5913,-20.04405 7.26293,-40.13386 16.55401,-71.18865 2.00995,-6.71813 3.54041,-12.32882 3.40101,-12.46822 -0.13939,-0.13938 -2.12824,-0.90262 -4.41968,-1.69607 -16.1669,-5.59808 -29.20643,-18.69519 -34.91107,-35.06522 -4.08364,-11.71842 -4.06086,-25.5127 0.0616,-37.34123 5.62349,-16.1351 19.04662,-29.45451 35.29987,-35.0271 7.96143,-2.72965 19.01131,-3.7127 27.17023,-2.4172 11.85008,1.88161 23.66251,8.00317 32.01315,16.59017 3.76402,3.87057 9.29565,11.63033 10.06153,14.11433 0.19957,0.64727 0.52352,1.16668 0.7199,1.15424 0.19636,-0.0124 1.48586,-1.96479 2.86553,-4.33855 3.24547,-5.58389 8.451,-11.58854 13.70605,-15.8101 5.23589,-4.20617 14.04808,-8.64986 20.922,-10.55025 4.85042,-1.34098 5.94013,-1.44605 14.99634,-1.44605 l 9.76586,0 0.36882,-5.41239 c 2.16113,-31.71399 -20.13795,-60.27644 -51.30135,-65.71088 -6.59115,-1.1494 -16.42972,-1.03489 -22.81079,0.26549 -16.58766,3.38034 -29.58059,12.09363 -40.15083,26.92583 -1.84346,2.58676 -3.51948,4.89639 -3.7245,5.13249 -0.205,0.2361 -2.97326,-1.88278 -6.15168,-4.70863 -3.17841,-2.82584 -7.6755,-6.28442 -9.99353,-7.68573 -18.06236,-10.91916 -40.34726,-10.91871 -58.77764,8e-4 -4.98712,2.95482 -14.21403,11.77054 -17.31462,16.54293 -12.76054,19.64115 -12.71132,43.51701 0.12977,62.88222 3.30531,4.98468 10.41607,12.00837 15.65039,15.45881 l 4.33885,2.86012 -0.32503,5.75355 c -0.57823,10.23718 1.97881,17.62415 8.7953,25.4085 2.12169,2.42294 4.25072,4.72838 4.73118,5.1232 0.48046,0.39483 0.87356,0.89486 0.87356,1.1112 0,0.21634 -2.52305,2.12934 -5.60678,4.25112 -9.93371,6.83495 -17.02648,14.64101 -21.49076,23.65195 -17.35511,35.03053 2.68157,76.7536 40.69683,84.7445 5.44744,1.14507 6.07711,1.22711 10.03667,1.30773 l 3.49854,0.0712 0.3212,-2.48449 z m 166.14331,-16.92215 c 17.61162,-6.03112 32.25368,-20.14707 39.67675,-38.25111 1.06289,-2.5923 2.26369,-4.89236 2.66844,-5.11126 0.40473,-0.2189 3.08961,-0.80982 5.96638,-1.31314 15.13991,-2.64894 28.22367,-9.40407 38.986868,-20.12888 10.38518,-10.34815 17.17861,-22.79074 20.13308,-36.87503 1.92091,-9.15716 1.56689,-22.58945 -0.8451,-32.06484 -6.79521,-26.69472 -28.143898,-47.19301 -55.398078,-53.19138 -6.17758,-1.35962 -19.63935,-1.63739 -26.23085,-0.54124 -6.80562,1.13174 -13.99219,3.39411 -20.05906,6.31468 -5.06349,2.43755 -10.72252,5.84097 -10.72252,6.44868 0,0.20557 1.35338,1.0351 3.00754,1.84341 21.97248,10.73683 34.67858,35.43715 30.73544,59.74891 -4.06297,25.05068 -24.58668,44.7556 -49.56525,47.58786 -2.3403,0.26536 -3.00753,0.53711 -3.00753,1.2249 0,0.48613 1.77693,8.39955 3.94874,17.58537 3.24543,13.72686 11.21971,48.67031 11.21971,49.16506 0,0.27372 6.26553,-1.33932 9.48544,-2.44199 z m 49.35767,-10.75444 c 9.75486,-2.38896 18.45701,-9.47199 23.02882,-18.74409 1.9272,-3.90855 3.52888,-9.3102 2.83929,-9.57545 -0.22956,-0.0883 -1.55405,0.41445 -2.94329,1.11723 -3.35659,1.69802 -12.88828,4.92825 -17.2108,5.83264 -1.90555,0.39869 -3.50228,0.79949 -3.54828,0.89066 -0.046,0.0912 -0.87163,1.81338 -1.8347,3.82712 -2.05927,4.30584 -6.66176,11.5491 -9.51442,14.97349 -1.10892,1.33117 -1.86019,2.57633 -1.66949,2.76702 0.4902,0.49021 7.1225,-0.17506 10.85287,-1.08862 z m -273.17636,-75.75653 c 1.44006,-1.72606 4.35366,-4.7859 6.47473,-6.79965 l 3.85645,-3.66134 -1.81163,-2.83233 c -3.39596,-5.30932 -5.73724,-13.02276 -6.3639,-20.96645 -0.35683,-4.52257 -0.43078,-4.67695 -3.16388,-6.60011 -1.08103,-0.76071 -1.28011,-0.70844 -3.21069,0.84301 -3.18239,2.55745 -7.19429,7.8193 -9.22973,12.10538 -5.71636,12.03695 -4.11772,26.74985 4.04144,37.19552 l 1.53201,1.96135 2.62844,-4.05354 c 1.44571,-2.22944 3.8067,-5.46577 5.24676,-7.19184 z m 102.2485,6.51036 c 9.3583,-2.15461 17.43288,-7.24582 23.61457,-14.88954 4.18484,-5.17459 7.87488,-12.98679 8.76576,-18.55803 l 0.33454,-2.09206 -18.1679,0 -18.16789,0 -2.45532,2.61525 c -2.46154,2.62187 -3.37524,2.97754 -6.83094,2.65896 -1.92981,-0.1779 -4.14269,-1.66289 -5.32629,-3.57429 l -1.05263,-1.69992 -16.60776,0 c -9.13427,0 -16.73754,0.12978 -16.89615,0.28839 -0.58512,0.58513 1.82525,8.41957 3.82077,12.41861 9.10907,18.25471 28.85796,27.46292 48.96924,22.83263 z m 102.21203,0.25676 c 12.83403,-2.43713 24.12406,-11.25988 30.00194,-23.44543 2.34336,-4.85806 4.22027,-10.93681 3.65789,-11.84678 -0.19024,-0.30781 -7.07314,-0.49645 -17.67214,-0.48433 l -17.36054,0.0199 -1.44421,2.0875 c -0.79432,1.14813 -2.08887,2.34091 -2.87678,2.65062 -3.62819,1.42614 -7.78845,0.13869 -9.62829,-2.97961 l -1.06098,-1.79818 -17.43964,0 c -9.59179,0 -17.56627,0.20489 -17.72104,0.45532 -0.37282,0.60323 0.99602,5.77943 2.53771,9.59628 3.93355,9.73848 12.75324,18.74989 22.52683,23.01651 8.57627,3.74393 16.71485,4.58248 26.47925,2.72827 z m -69.63087,-49.8238 c 0,-1.34593 -1.44674,-6.0807 -2.98571,-9.77136 -4.07524,-9.77303 -13.25876,-18.71388 -23.38774,-22.76972 -5.56472,-2.22822 -10.09509,-3.10143 -16.14641,-3.11217 -17.2631,-0.0306 -32.01075,9.23127 -39.36835,24.72428 -1.90348,4.00821 -4.02117,11.05354 -3.48395,11.59076 0.15916,0.15915 19.433,0.28937 42.83078,0.28937 40.77735,0 42.54138,-0.0395 42.54138,-0.95116 z m 103.31342,-1.01027 c -2.35579,-12.59454 -11.80708,-24.69431 -23.84329,-30.52473 -6.46935,-3.13379 -9.99577,-3.85751 -18.79634,-3.85751 -7.05768,0 -8.61514,0.15957 -12.03015,1.23259 -15.86491,4.98487 -27.13538,17.29891 -30.57967,33.41117 l -0.36339,1.69991 42.98986,0 42.98987,0 -0.36689,-1.96143 z m -13.88532,-63.45349 c 5.37221,-2.54145 13.14569,-5.07122 19.50867,-6.34882 4.85583,-0.97498 7.61204,-1.18111 15.91801,-1.19043 l 10.04533,-0.0113 -0.30686,-1.30762 c -0.49756,-2.12026 -4.71202,-10.36647 -6.78166,-13.2693 -8.54867,-11.99018 -19.7535,-19.70921 -33.9592,-23.3946 -3.91297,-1.01514 -6.03256,-1.21582 -13.04118,-1.23468 -7.36732,-0.0199 -14.90692,0.81722 -14.90692,1.65501 0,0.12484 0.91589,1.32837 2.03531,2.67453 9.20621,11.07092 15.5743,26.46107 16.64952,40.23792 0.17505,2.24292 0.53222,3.79195 0.87428,3.7917 0.31807,-2.2e-4 2.10218,-0.72132 3.9647,-1.60242 z m -135.62653,-46.00286 c 5.95971,-6.43719 13.8329,-12.27085 22.09495,-16.37132 l 4.40276,-2.18509 -2.04903,-0.364 c -3.64855,-0.64814 -14.60742,-0.44509 -19.1998,0.35576 -8.1689,1.42454 -17.57694,4.99299 -24.0394,9.11812 -2.34602,1.49751 -3.18116,2.65504 -1.91559,2.65504 1.15608,0 11.30111,5.35261 14.33803,7.56487 1.72606,1.25736 3.20956,2.30569 3.29666,2.3296 0.0871,0.0239 1.46924,-1.37243 3.07142,-3.10298 z"
       id="path4167"
       inkscape:connector-curvature="0" />
    <text
       xml:space="preserve"
       style="font-style:normal;font-variant:normal;font-weight:normal;font-stretch:normal;font-size:263.75527954px;line-height:125%;font-family:Papyrus;-inkscape-font-specification:Papyrus;letter-spacing:0px;word-spacing:0px;fill:#ffffff;fill-opacity:1;stroke:none;stroke-width:1px;stroke-linecap:butt;stroke-linejoin:miter;stroke-opacity:1;"
       x="-46.312561"
       y="-111.64238"
       id="text4138"
       sodipodi:linespacing="125%"><tspan
         sodipodi:role="line"
         id="tspan4140"
         x="-46.312561"
         y="-111.64238"
         style="font-style:normal;font-variant:normal;font-weight:800;font-stretch:normal;font-family:Raleway;-inkscape-font-specification:'Raleway Ultra-Bold';fill:#ffffff;fill-opacity:1;">IrLUG</tspan></text>
    <text
       xml:space="preserve"
       style="font-style:normal;font-variant:normal;font-weight:normal;font-stretch:normal;font-size:59.42232132px;line-height:125%;font-family:Raleway;-inkscape-font-specification:Raleway;letter-spacing:0px;word-spacing:0px;display:inline;fill:#ffffff;fill-opacity:1;stroke:none;stroke-width:1px;stroke-linecap:butt;stroke-linejoin:miter;stroke-opacity:1;"
       x="-32.826359"
       y="-53.256657"
       id="text4138-3"
       sodipodi:linespacing="125%"><tspan
         sodipodi:role="line"
         id="tspan4140-1"
         x="-32.826359"
         y="-53.256657"
         style="font-style:normal;font-variant:normal;font-weight:normal;font-stretch:normal;font-family:Raleway;-inkscape-font-specification:Raleway;fill:#ffffff;fill-opacity:1;">Irpinia Linux Users Group</tspan></text>
  </g>
</svg>
