<?xml version="1.0" encoding="utf-8"?>
<!-- Generator: Adobe Illustrator 17.0.0, SVG Export Plug-In . SVG Version: 6.00 Build 0)  -->
<!DOCTYPE svg PUBLIC "-//W3C//DTD SVG 1.1//EN" "http://www.w3.org/Graphics/SVG/1.1/DTD/svg11.dtd">
<svg version="1.1" id="Layer_1" xmlns="http://www.w3.org/2000/svg" xmlns:xlink="http://www.w3.org/1999/xlink" x="0px" y="0px"
	 width="268.981px" height="94.469px" viewBox="0 0 268.981 94.469" enable-background="new 0 0 268.981 94.469"
	 xml:space="preserve">
<g>
	<path fill="none" stroke="#FFFFFF" stroke-width="3.482" d="M78.327,61.373c-1.169,3.248-3.206,6.079-5.826,8.225
		c1.292,0.527,2.704,0.823,4.186,0.823c6.122,0,11.084-4.962,11.084-11.084c0-0.564-0.056-1.114-0.137-1.655
		C84.939,59.611,81.773,60.925,78.327,61.373z"/>
	<path fill="none" stroke="#FFFFFF" stroke-width="3.482" d="M79.562,17.223C76.203,8.587,66.479,4.308,57.843,7.667
		c-0.345,0.134-0.666,0.301-0.996,0.454c4.013,3.296,6.574,8.295,6.574,13.893c0,0.806-0.054,1.598-0.156,2.376
		c3.448-2.588,7.733-4.122,12.375-4.122c1.683,0,3.309,0.224,4.875,0.604C80.334,19.647,80.029,18.425,79.562,17.223z M28.395,3
		c-2.648,1.03-4.909,2.616-6.738,4.554c3.423,0.545,6.498,2.131,8.871,4.445c2.994-4.452,7.929-7.487,13.592-7.902
		C39.467,1.509,33.746,0.92,28.395,3z"/>
	<path fill="none" stroke="#FFFFFF" stroke-width="3.482" d="M13.196,46.235c-1.833-1.839-2.966-4.375-2.966-7.176
		c0-0.472,0.035-0.934,0.096-1.388c-0.984-0.619-1.892-1.345-2.721-2.151c-3.489,1.867-5.865,5.544-5.865,9.778
		c0,3.771,1.886,7.096,4.763,9.099C7.835,51.028,10.193,48.178,13.196,46.235z"/>
	<path fill="#FFFFFF" d="M27.652,85.958c-0.154-0.147-0.307-0.295-0.451-0.449c0.085,0.727,0.169,1.317,0.247,1.707
		c0.58,2.901-2.321,2.901-6.674,2.901s-5.223-3.482-5.223-3.482l1.209-9.676c1.813,0.646,3.756,1.018,5.792,1.018
		c0.663,0,1.317-0.04,1.961-0.115c0.033-0.764,0.106-1.588,0.211-2.453h-8.168l-2.447,15.697c0,0,1.049,3.364,6.293,3.364
		s8.74,0,8.041-2.803C28.201,90.7,27.919,88.468,27.652,85.958z"/>
	<path fill="#FFFFFF" d="M71.78,91.568c-0.699-2.902-1.748-16.83-1.748-16.83h-0.406c0.305,4.345,0.79,10.633,1.159,12.478
		c0.581,2.901-2.321,2.901-6.674,2.901c-2.966,0-4.313-1.616-4.872-2.646c-0.434,0.276-0.892,0.542-1.383,0.789l-0.411,2.728
		c0,0,1.049,3.482,6.293,3.482C68.983,94.469,72.479,94.469,71.78,91.568z"/>
	<path fill="none" stroke="#FFFFFF" stroke-width="3.482" d="M70.785,87.216c-0.474-2.368-1.14-12.072-1.37-15.566
		c-2.145,1.144-4.535,1.883-7.07,2.125c0.524,2.469,0.943,4.582,1.157,5.948c0.476,3.045-1.149,5.76-4.263,7.748
		c0.559,1.03,1.906,2.646,4.872,2.646C68.464,90.117,71.366,90.117,70.785,87.216z"/>
	<path fill="none" stroke="#FFFFFF" stroke-width="3.482" d="M27.201,85.509c-1.035-1.11-1.815-2.387-2.329-3.836
		c-0.329-0.927-0.427-2.246-0.36-3.812c-0.644,0.075-1.297,0.115-1.961,0.115c-2.035,0-3.979-0.371-5.792-1.018l-1.209,9.676
		c0,0,0.871,3.482,5.223,3.482c4.353,0,7.254,0,6.674-2.901C27.37,86.826,27.287,86.235,27.201,85.509z"/>
	<circle fill="none" stroke="#FFFFFF" stroke-width="3.482" cx="58.82" cy="39.336" r="13.072"/>
	<circle fill="#FFFFFF" cx="58.82" cy="40.507" r="1.951"/>
	<ellipse fill="#FFFFFF" cx="36.676" cy="81.673" rx="0.914" ry="3.317"/>
	<ellipse fill="#FFFFFF" cx="48.675" cy="81.966" rx="1.171" ry="3.609"/>
	<circle fill="none" stroke="#FFFFFF" stroke-width="3.482" cx="31.896" cy="39.336" r="13.072"/>
	<g>
		<path fill="#FFFFFF" d="M138.127,72.621v1.471c0,0.377,0.004,0.6,0.012,0.667c0.037,0.34,0.14,0.509,0.306,0.509
			c0.037,0,0.132-0.019,0.282-0.057c0.038-0.015,0.095-0.022,0.17-0.022c0.286,0,0.43,0.125,0.43,0.373
			c0,0.106-0.047,0.196-0.142,0.271c-0.095,0.076-0.214,0.113-0.357,0.113c-0.121,0-0.305-0.017-0.551-0.051
			s-0.43-0.051-0.551-0.051c-0.196,0-0.416,0.016-0.658,0.045c-0.295,0.038-0.492,0.057-0.59,0.057
			c-0.303,0-0.454-0.128-0.454-0.385c0-0.248,0.129-0.373,0.388-0.373c0.061,0,0.15,0.012,0.269,0.034
			c0.117,0.022,0.207,0.034,0.269,0.034c0.182,0,0.292-0.241,0.331-0.725c0-0.029,0-0.357,0-0.983V72.62c0-0.626,0-0.954,0-0.984
			c-0.039-0.475-0.152-0.713-0.343-0.713c-0.062,0-0.146,0.014-0.257,0.04s-0.192,0.039-0.245,0.039
			c-0.274,0-0.411-0.12-0.411-0.361c0-0.257,0.166-0.385,0.497-0.385c0.144,0,0.245,0.004,0.306,0.011
			c0.241,0.03,0.396,0.046,0.464,0.046c0.061,0,0.152-0.01,0.277-0.028c0.124-0.019,0.217-0.028,0.277-0.028
			c0.219,0,0.328,0.146,0.328,0.441c0,0.03-0.003,0.075-0.01,0.136c-0.006,0.061-0.009,0.105-0.009,0.136
			c-0.006,0.061-0.012,0.294-0.019,0.701C138.13,71.98,138.127,72.297,138.127,72.621z M137.539,69.657
			c-0.174,0-0.322-0.062-0.447-0.187c-0.124-0.125-0.187-0.273-0.187-0.447c0-0.173,0.062-0.32,0.187-0.44
			c0.125-0.121,0.273-0.182,0.447-0.182c0.173,0,0.322,0.061,0.446,0.182c0.125,0.12,0.188,0.268,0.188,0.44
			c0,0.174-0.062,0.322-0.188,0.447C137.862,69.594,137.712,69.657,137.539,69.657z"/>
		<path fill="#FFFFFF" d="M141.51,70.568v0.311c0.392-0.551,0.916-0.826,1.572-0.826c0.527,0,0.956,0.149,1.284,0.447
			s0.492,0.681,0.492,1.148c0,0.332-0.084,0.602-0.249,0.809c-0.166,0.207-0.385,0.311-0.656,0.311c-0.174,0-0.32-0.053-0.441-0.158
			s-0.181-0.233-0.181-0.385c0-0.12,0.045-0.228,0.136-0.322c0.09-0.094,0.195-0.142,0.316-0.142c0.022,0,0.071,0.012,0.147,0.034
			c0.045-0.09,0.067-0.173,0.067-0.249c0-0.218-0.096-0.403-0.288-0.554s-0.432-0.227-0.719-0.227c-0.588,0-0.98,0.265-1.176,0.792
			c-0.121,0.324-0.182,0.814-0.182,1.471v0.746c0,0.506,0.004,0.788,0.012,0.849c0.037,0.43,0.154,0.645,0.351,0.645
			c0.098,0,0.199-0.013,0.306-0.038c0.083-0.02,0.154-0.029,0.215-0.029c0.241,0,0.361,0.119,0.361,0.356
			c0,0.26-0.153,0.39-0.462,0.39h-0.045c-0.112,0-0.284-0.013-0.513-0.039s-0.4-0.04-0.514-0.04c-0.301,0-0.537,0.008-0.71,0.022
			l-0.631,0.057c-0.309,0-0.463-0.132-0.463-0.396c0-0.233,0.145-0.351,0.434-0.351c0.076,0,0.134,0.004,0.172,0.011l0.171,0.034
			c0.076,0.016,0.13,0.022,0.16,0.022c0.19,0,0.293-0.173,0.309-0.521V74.17l-0.034-2.568c-0.022-0.444-0.136-0.667-0.34-0.667
			c-0.061,0-0.144,0.011-0.249,0.034c-0.105,0.022-0.188,0.033-0.248,0.033c-0.249,0-0.374-0.12-0.374-0.361
			c0-0.264,0.162-0.396,0.486-0.396c0.076,0,0.188,0.01,0.34,0.028c0.15,0.02,0.264,0.028,0.339,0.028
			c0.061,0,0.159-0.009,0.295-0.028c0.06-0.019,0.132-0.028,0.215-0.028C141.411,70.245,141.51,70.353,141.51,70.568z"/>
		<path fill="#FFFFFF" d="M147.086,70.573v0.362c0.422-0.588,0.999-0.883,1.73-0.883c0.754,0,1.354,0.261,1.799,0.781
			c0.445,0.52,0.667,1.226,0.667,2.115c0,0.958-0.235,1.721-0.707,2.29c-0.471,0.57-1.103,0.854-1.895,0.854
			c-0.656,0-1.188-0.23-1.595-0.69v0.939c0,0.286,0.008,0.471,0.022,0.554c0.046,0.234,0.154,0.351,0.328,0.351
			c0.053,0,0.132-0.011,0.237-0.033s0.185-0.034,0.238-0.034c0.241,0,0.361,0.124,0.361,0.373s-0.157,0.373-0.474,0.373
			c-0.112,0-0.281-0.015-0.507-0.045c-0.165-0.022-0.413-0.034-0.744-0.034c-0.181,0-0.33,0.008-0.451,0.023
			c-0.3,0.037-0.499,0.056-0.597,0.056c-0.128,0-0.237-0.039-0.327-0.116c-0.09-0.078-0.136-0.17-0.136-0.273
			c0-0.237,0.127-0.356,0.382-0.356c0.044,0,0.115,0.01,0.213,0.029c0.126,0.025,0.22,0.038,0.279,0.038
			c0.143,0,0.23-0.073,0.264-0.22c0.033-0.147,0.055-0.557,0.062-1.228v-4.366c-0.007-0.348-0.104-0.521-0.291-0.521
			c-0.053,0-0.133,0.013-0.241,0.039s-0.192,0.04-0.252,0.04c-0.276,0-0.415-0.125-0.415-0.373c0-0.241,0.166-0.362,0.498-0.362
			c0.083,0,0.174,0.004,0.271,0.011c0.188,0.016,0.328,0.023,0.419,0.023c0.067,0,0.165-0.006,0.294-0.018
			c0.128-0.011,0.223-0.017,0.282-0.017C146.992,70.257,147.086,70.362,147.086,70.573z M147.256,71.953
			c-0.068,0.295-0.105,0.652-0.113,1.075c0,0.03-0.004,0.087-0.012,0.17c0,0.067,0,0.12,0,0.158c0,0.505,0.042,0.873,0.125,1.103
			c0.083,0.23,0.247,0.436,0.492,0.616c0.244,0.182,0.548,0.271,0.91,0.271c0.543,0,0.963-0.197,1.262-0.594
			c0.298-0.396,0.446-0.959,0.446-1.69c0-1.509-0.535-2.263-1.606-2.263c-0.361,0-0.684,0.109-0.967,0.328
			S147.331,71.622,147.256,71.953z"/>
		<path fill="#FFFFFF" d="M153.975,72.621v1.471c0,0.377,0.004,0.6,0.012,0.667c0.037,0.34,0.14,0.509,0.306,0.509
			c0.037,0,0.132-0.019,0.282-0.057c0.038-0.015,0.095-0.022,0.17-0.022c0.286,0,0.43,0.125,0.43,0.373
			c0,0.106-0.047,0.196-0.142,0.271c-0.095,0.076-0.214,0.113-0.357,0.113c-0.121,0-0.305-0.017-0.551-0.051
			s-0.43-0.051-0.551-0.051c-0.196,0-0.416,0.016-0.658,0.045c-0.295,0.038-0.492,0.057-0.59,0.057
			c-0.303,0-0.454-0.128-0.454-0.385c0-0.248,0.129-0.373,0.388-0.373c0.061,0,0.15,0.012,0.269,0.034
			c0.117,0.022,0.207,0.034,0.269,0.034c0.182,0,0.292-0.241,0.331-0.725c0-0.029,0-0.357,0-0.983V72.62c0-0.626,0-0.954,0-0.984
			c-0.039-0.475-0.152-0.713-0.343-0.713c-0.062,0-0.146,0.014-0.257,0.04s-0.192,0.039-0.245,0.039
			c-0.274,0-0.411-0.12-0.411-0.361c0-0.257,0.166-0.385,0.497-0.385c0.144,0,0.245,0.004,0.306,0.011
			c0.241,0.03,0.396,0.046,0.464,0.046c0.061,0,0.152-0.01,0.277-0.028c0.124-0.019,0.217-0.028,0.277-0.028
			c0.219,0,0.328,0.146,0.328,0.441c0,0.03-0.003,0.075-0.01,0.136c-0.006,0.061-0.009,0.105-0.009,0.136
			c-0.006,0.061-0.012,0.294-0.019,0.701C153.978,71.98,153.975,72.297,153.975,72.621z M153.387,69.657
			c-0.174,0-0.322-0.062-0.447-0.187c-0.124-0.125-0.187-0.273-0.187-0.447c0-0.173,0.062-0.32,0.187-0.44
			c0.125-0.121,0.273-0.182,0.447-0.182c0.173,0,0.322,0.061,0.446,0.182c0.125,0.12,0.188,0.268,0.188,0.44
			c0,0.174-0.062,0.322-0.188,0.447C153.709,69.594,153.56,69.657,153.387,69.657z"/>
		<path fill="#FFFFFF" d="M157.38,70.591v0.322c0.452-0.573,1.056-0.86,1.81-0.86c0.407,0,0.792,0.104,1.154,0.312
			s0.606,0.466,0.735,0.774c0.105,0.257,0.158,0.593,0.158,1.007v2.149c0,0.324,0.004,0.517,0.012,0.577
			c0.037,0.257,0.139,0.385,0.305,0.385c0.068,0,0.156-0.01,0.266-0.028s0.188-0.028,0.232-0.028c0.098,0,0.183,0.034,0.255,0.102
			c0.071,0.068,0.107,0.151,0.107,0.249c0,0.113-0.046,0.207-0.136,0.282c-0.091,0.076-0.2,0.113-0.328,0.113
			c-0.106,0-0.279-0.015-0.521-0.045s-0.468-0.045-0.679-0.045c-0.196,0-0.358,0.007-0.486,0.022
			c-0.377,0.045-0.577,0.067-0.6,0.067c-0.302,0-0.452-0.132-0.452-0.396c0-0.233,0.13-0.351,0.392-0.351
			c0.062,0,0.131,0.008,0.208,0.022c0.146,0.03,0.238,0.045,0.276,0.045c0.185,0,0.284-0.207,0.3-0.622v-0.577v-0.689v-0.859
			c0-0.4-0.019-0.675-0.057-0.826c-0.067-0.286-0.214-0.509-0.438-0.667c-0.248-0.174-0.53-0.261-0.846-0.261
			c-0.601,0-1.033,0.215-1.296,0.645c-0.18,0.295-0.271,0.796-0.271,1.505v1.505c0,0.331,0.022,0.558,0.068,0.679
			c0.045,0.12,0.128,0.181,0.249,0.181c0.06,0,0.143-0.013,0.248-0.04c0.105-0.026,0.192-0.039,0.261-0.039
			c0.233,0,0.351,0.126,0.351,0.379c0,0.245-0.151,0.367-0.452,0.367c-0.061,0-0.257-0.022-0.589-0.067
			c-0.166-0.022-0.351-0.034-0.554-0.034c-0.158,0-0.37,0.016-0.634,0.045c-0.332,0.038-0.521,0.057-0.565,0.057
			c-0.316,0-0.476-0.128-0.476-0.385c0-0.241,0.123-0.361,0.369-0.361c0.038,0,0.109,0.011,0.213,0.034
			c0.104,0.022,0.205,0.033,0.306,0.033c0.23,0,0.35-0.219,0.357-0.656v-1.255v-1.369v-0.396c-0.016-0.257-0.049-0.432-0.099-0.526
			s-0.136-0.142-0.259-0.142c-0.054,0-0.133,0.01-0.236,0.028c-0.104,0.02-0.183,0.028-0.236,0.028c-0.276,0-0.415-0.12-0.415-0.361
			c0-0.249,0.17-0.374,0.51-0.374c0.045,0,0.082,0.004,0.112,0.012l0.419,0.045c0.12,0,0.227-0.009,0.316-0.028
			c0.196-0.019,0.298-0.028,0.306-0.028C157.271,70.245,157.38,70.36,157.38,70.591z"/>
		<path fill="#FFFFFF" d="M164.687,72.621v1.471c0,0.377,0.004,0.6,0.012,0.667c0.037,0.34,0.14,0.509,0.306,0.509
			c0.037,0,0.132-0.019,0.282-0.057c0.038-0.015,0.095-0.022,0.17-0.022c0.286,0,0.43,0.125,0.43,0.373
			c0,0.106-0.047,0.196-0.142,0.271c-0.095,0.076-0.214,0.113-0.357,0.113c-0.121,0-0.305-0.017-0.551-0.051
			s-0.43-0.051-0.551-0.051c-0.196,0-0.416,0.016-0.658,0.045c-0.295,0.038-0.492,0.057-0.59,0.057
			c-0.303,0-0.454-0.128-0.454-0.385c0-0.248,0.129-0.373,0.388-0.373c0.061,0,0.15,0.012,0.269,0.034
			c0.117,0.022,0.207,0.034,0.269,0.034c0.182,0,0.292-0.241,0.331-0.725c0-0.029,0-0.357,0-0.983V72.62c0-0.626,0-0.954,0-0.984
			c-0.039-0.475-0.152-0.713-0.343-0.713c-0.062,0-0.146,0.014-0.257,0.04s-0.192,0.039-0.245,0.039
			c-0.274,0-0.411-0.12-0.411-0.361c0-0.257,0.166-0.385,0.497-0.385c0.144,0,0.245,0.004,0.306,0.011
			c0.241,0.03,0.396,0.046,0.464,0.046c0.061,0,0.152-0.01,0.277-0.028c0.124-0.019,0.217-0.028,0.277-0.028
			c0.219,0,0.328,0.146,0.328,0.441c0,0.03-0.003,0.075-0.01,0.136c-0.006,0.061-0.009,0.105-0.009,0.136
			c-0.006,0.061-0.012,0.294-0.019,0.701C164.69,71.98,164.687,72.297,164.687,72.621z M164.099,69.657
			c-0.174,0-0.322-0.062-0.447-0.187c-0.124-0.125-0.187-0.273-0.187-0.447c0-0.173,0.062-0.32,0.187-0.44
			c0.125-0.121,0.273-0.182,0.447-0.182c0.173,0,0.322,0.061,0.446,0.182c0.125,0.12,0.188,0.268,0.188,0.44
			c0,0.174-0.062,0.322-0.188,0.447C164.421,69.594,164.272,69.657,164.099,69.657z"/>
		<path fill="#FFFFFF" d="M171.226,76.049c-0.619,0-1-0.268-1.143-0.804c-0.385,0.565-0.988,0.849-1.811,0.849
			c-0.61,0-1.099-0.151-1.465-0.452c-0.365-0.302-0.548-0.705-0.548-1.211c0-0.626,0.268-1.086,0.803-1.38
			c0.203-0.113,0.379-0.187,0.526-0.221c0.146-0.034,0.442-0.077,0.888-0.13c0.634-0.068,1.046-0.162,1.238-0.283
			c0.192-0.12,0.289-0.343,0.289-0.667c0-0.31-0.107-0.553-0.323-0.729c-0.215-0.178-0.515-0.266-0.898-0.266
			c-0.34,0-0.656,0.094-0.95,0.282c-0.113,0.075-0.17,0.155-0.17,0.237c0,0.03,0.034,0.068,0.102,0.113
			c0.105,0.076,0.158,0.204,0.158,0.385c0,0.151-0.055,0.275-0.164,0.373c-0.109,0.099-0.247,0.147-0.412,0.147
			c-0.196,0-0.36-0.068-0.492-0.204c-0.133-0.136-0.198-0.301-0.198-0.497c0-0.423,0.209-0.784,0.628-1.086
			c0.418-0.302,0.926-0.453,1.521-0.453c1.372,0,2.059,0.659,2.059,1.976v2.28c0,0.361,0.008,0.576,0.022,0.644
			c0.045,0.264,0.174,0.395,0.385,0.395c0.264,0,0.396-0.239,0.396-0.719v-0.55c0-0.24,0.115-0.36,0.346-0.36
			c0.245,0,0.367,0.182,0.367,0.543v0.057v0.646C172.365,75.686,171.98,76.049,171.226,76.049z M169.97,73.797v-0.803
			c-0.165,0.151-0.34,0.257-0.524,0.316c-0.184,0.061-0.513,0.113-0.985,0.159c-0.856,0.083-1.284,0.399-1.284,0.95
			c0,0.286,0.104,0.513,0.311,0.679c0.208,0.166,0.488,0.248,0.843,0.248c0.506,0,0.903-0.137,1.193-0.412
			S169.962,74.28,169.97,73.797z"/>
		<path fill="#FFFFFF" d="M175.807,68.231h0.521c0.03,0,0.128,0,0.294,0h0.102c0.105,0,0.174,0.034,0.204,0.102
			c0.015,0.03,0.022,0.109,0.022,0.237v5.267c0,0.872,0.03,1.4,0.091,1.585c0.06,0.184,0.237,0.275,0.531,0.275
			c0.053,0,0.132,0,0.237,0s0.185,0,0.238,0h0.056c0.159,0,0.238,0.042,0.238,0.125c0,0.091-0.068,0.136-0.204,0.136h-0.034
			l-0.396-0.034l-0.464-0.034h-0.328h-0.226h-0.328l-0.464,0.034l-0.396,0.034h-0.045c-0.136,0-0.204-0.042-0.204-0.125
			c0-0.09,0.083-0.136,0.249-0.136h0.046c0.053,0,0.134,0,0.243,0c0.108,0,0.19,0,0.243,0c0.294,0,0.471-0.09,0.531-0.271
			c0.061-0.18,0.091-0.71,0.091-1.59V69.9c0-0.684-0.022-1.094-0.068-1.229c-0.045-0.136-0.177-0.203-0.396-0.203
			c-0.113,0-0.237,0.004-0.373,0.014c-0.204,0.014-0.317,0.02-0.34,0.02c-0.15,0-0.227-0.045-0.227-0.136
			c0-0.09,0.064-0.136,0.192-0.136h0.034h0.33V68.231z"/>
		<path fill="#FFFFFF" d="M180.445,73.831c0,0.883,0.03,1.414,0.091,1.595c0.061,0.182,0.233,0.271,0.521,0.271
			c0.053,0,0.132,0,0.237,0s0.185,0,0.237,0h0.057c0.166,0,0.249,0.042,0.249,0.125c0,0.091-0.067,0.136-0.203,0.136
			c-0.038,0-0.053,0-0.046,0l-0.396-0.034l-0.464-0.034H180.4h-0.215h-0.316l-0.476,0.034l-0.396,0.034c-0.008,0-0.02,0-0.034,0
			c-0.144,0-0.215-0.042-0.215-0.125c0-0.09,0.083-0.136,0.249-0.136h0.057c0.053,0,0.134,0,0.243,0s0.19,0,0.243,0
			c0.286,0,0.46-0.09,0.521-0.271c0.06-0.181,0.09-0.712,0.09-1.595v-1.775c0-0.551,0-0.788,0-0.713
			c-0.015-0.393-0.071-0.618-0.169-0.679c-0.061-0.038-0.159-0.057-0.295-0.057c-0.045,0-0.169,0.008-0.373,0.022l-0.306,0.022
			c-0.007,0-0.019,0-0.033,0c-0.151,0-0.227-0.049-0.227-0.146c0-0.099,0.063-0.147,0.192-0.147h0.034l0.339,0.034h0.543
			c0.045,0,0.113-0.006,0.204-0.017c0.09-0.012,0.158-0.018,0.203-0.018c0.121,0,0.181,0.087,0.181,0.261v3.213H180.445z
			 M180.185,68.673c0.113,0,0.209,0.042,0.288,0.125s0.119,0.181,0.119,0.294s-0.04,0.209-0.119,0.288s-0.171,0.119-0.276,0.119
			c-0.121,0-0.221-0.04-0.3-0.119s-0.119-0.175-0.119-0.288c0-0.121,0.04-0.221,0.119-0.3S180.072,68.673,180.185,68.673z"/>
		<path fill="#FFFFFF" d="M183.94,70.822v0.611c0.265-0.476,0.6-0.8,1.007-0.974c0.347-0.143,0.705-0.215,1.075-0.215
			c0.543,0,0.987,0.119,1.335,0.356c0.347,0.237,0.565,0.571,0.655,1.001c0.061,0.294,0.091,0.758,0.091,1.392v0.837
			c0,0.883,0.03,1.414,0.091,1.595c0.06,0.182,0.233,0.271,0.521,0.271c0.053,0,0.134,0,0.243,0s0.19,0,0.243,0h0.057
			c0.165,0,0.248,0.042,0.248,0.125c0,0.091-0.071,0.136-0.215,0.136h-0.033l-0.396-0.034l-0.475-0.034h-0.317h-0.215h-0.328
			l-0.464,0.034l-0.396,0.034h-0.045c-0.136,0-0.204-0.042-0.204-0.125c0-0.09,0.083-0.136,0.249-0.136h0.045
			c0.053,0,0.134,0,0.243,0s0.19,0,0.243,0c0.295,0,0.47-0.088,0.526-0.266c0.057-0.177,0.085-0.71,0.085-1.601V72.98
			c0-0.957-0.105-1.583-0.316-1.877c-0.302-0.423-0.808-0.634-1.517-0.634c-0.867,0-1.474,0.343-1.82,1.029
			c-0.144,0.279-0.216,0.728-0.216,1.346v0.984c0,0.883,0.03,1.414,0.091,1.595c0.061,0.182,0.233,0.271,0.521,0.271
			c0.053,0,0.132,0,0.237,0s0.185,0,0.237,0h0.057c0.166,0,0.249,0.042,0.249,0.125c0,0.091-0.067,0.136-0.203,0.136
			c-0.038,0-0.053,0-0.046,0l-0.396-0.034l-0.464-0.034h-0.339h-0.204h-0.316l-0.476,0.034l-0.396,0.034c-0.008,0-0.02,0-0.034,0
			c-0.144,0-0.215-0.042-0.215-0.125c0-0.09,0.083-0.136,0.249-0.136h0.057c0.053,0,0.132,0,0.237,0s0.185,0,0.237,0
			c0.294,0,0.472-0.09,0.532-0.271c0.06-0.181,0.09-0.712,0.09-1.595v-1.775c0-0.543,0-0.781,0-0.713
			c-0.015-0.393-0.071-0.618-0.169-0.679c-0.061-0.038-0.159-0.057-0.295-0.057c-0.045,0-0.169,0.008-0.373,0.022l-0.339,0.022
			c-0.151,0-0.227-0.049-0.227-0.146c0-0.099,0.067-0.147,0.203-0.147c0.053,0,0.17,0.008,0.352,0.022
			c0.09,0.008,0.177,0.012,0.26,0.012h0.215c0.045,0,0.117-0.006,0.215-0.017c0.098-0.012,0.17-0.018,0.215-0.018
			c0.105,0,0.172,0.026,0.198,0.079S183.94,70.619,183.94,70.822z"/>
		<path fill="#FFFFFF" d="M194.992,75.317v-0.435c-0.136,0.265-0.29,0.476-0.464,0.634c-0.407,0.37-0.92,0.555-1.538,0.555
			c-0.739,0-1.282-0.208-1.629-0.622c-0.188-0.227-0.313-0.502-0.373-0.826c-0.03-0.188-0.046-0.498-0.046-0.928v-1.651
			c0-0.679-0.022-1.09-0.068-1.233c-0.045-0.143-0.179-0.215-0.399-0.215c-0.106,0-0.228,0.008-0.364,0.023
			c-0.198,0.022-0.309,0.033-0.331,0.033c-0.145,0-0.217-0.053-0.217-0.158c0-0.091,0.057-0.136,0.17-0.136h0.034l0.316,0.034h0.656
			l0.113-0.012l0.181-0.022c0.136,0,0.204,0.14,0.204,0.419v0.067c0,0.061,0,0.147,0,0.261v2.624c0,0.399,0.019,0.69,0.056,0.871
			c0.053,0.302,0.178,0.554,0.374,0.758c0.309,0.324,0.754,0.486,1.335,0.486c0.769,0,1.315-0.268,1.64-0.803
			c0.233-0.385,0.351-0.958,0.351-1.72v-1.278c0-0.762-0.028-1.193-0.086-1.295s-0.183-0.153-0.374-0.153
			c-0.115,0-0.241,0.008-0.379,0.023l-0.334,0.033c-0.146,0-0.219-0.049-0.219-0.146c0-0.099,0.061-0.147,0.182-0.147h0.034
			l0.305,0.034h0.565c0.113,0,0.192-0.006,0.238-0.017c0.045-0.012,0.094-0.018,0.146-0.018c0.144,0,0.215,0.151,0.215,0.452
			c0,0.106,0,0.182,0,0.227c0,0.022,0,0.136,0,0.34c0,0.211,0,0.411,0,0.6v2.284c0,0.762,0.026,1.193,0.079,1.296
			c0.053,0.102,0.178,0.152,0.374,0.152c0.022,0,0.143-0.004,0.361-0.012c0.151-0.029,0.268-0.045,0.351-0.045
			c0.144,0,0.216,0.049,0.216,0.147s-0.068,0.146-0.204,0.146h-0.022l-0.328-0.022l-0.26-0.011h-0.136
			c-0.023,0-0.061,0.011-0.113,0.033c-0.053,0-0.099,0-0.136,0c-0.053,0-0.117,0-0.192,0c-0.113,0-0.188-0.032-0.227-0.097
			s-0.057-0.192-0.057-0.383L194.992,75.317L194.992,75.317z"/>
		<path fill="#FFFFFF" d="M202.017,75.294l-0.158-0.156l-1.46-1.715c-0.09-0.104-0.15-0.157-0.181-0.157s-0.091,0.053-0.181,0.158
			l-1.595,1.855c-0.068,0.083-0.103,0.162-0.103,0.237c0,0.113,0.117,0.17,0.351,0.17c0.091,0,0.196-0.004,0.317-0.012l0.385-0.022
			c0.173,0,0.26,0.053,0.26,0.158c0,0.099-0.072,0.147-0.215,0.147h-0.034l-0.418-0.045c-0.212-0.023-0.524-0.034-0.939-0.034
			c-0.302,0-0.551,0.015-0.746,0.045c-0.144,0.022-0.257,0.034-0.34,0.034c-0.136,0-0.203-0.045-0.203-0.136
			c0-0.113,0.082-0.17,0.248-0.17c0.083,0,0.174,0.006,0.271,0.018c0.016,0,0.042,0.005,0.08,0.017c0.029,0,0.052,0,0.067,0
			c0.196,0,0.381-0.099,0.555-0.295l0.226-0.261l1.675-1.961c0.067-0.083,0.102-0.144,0.102-0.182c0-0.03-0.034-0.087-0.102-0.17
			l-1.596-1.928c-0.136-0.182-0.32-0.271-0.554-0.271h-0.182h-0.181h-0.034c-0.166,0-0.248-0.044-0.248-0.131
			c0-0.086,0.09-0.13,0.271-0.13c0.037,0,0.154,0.008,0.351,0.022c0.392,0.03,0.667,0.046,0.825,0.046
			c0.174,0,0.445-0.016,0.814-0.046c0.188-0.015,0.302-0.022,0.34-0.022c0.136,0,0.203,0.042,0.203,0.125
			c0,0.09-0.064,0.136-0.192,0.136c-0.09,0-0.177,0-0.26,0h-0.249h-0.203c-0.227,0-0.34,0.06-0.34,0.181
			c0,0.083,0.094,0.233,0.283,0.452l1.108,1.301c0.09,0.106,0.15,0.158,0.181,0.158s0.091-0.052,0.181-0.158l1.233-1.425
			c0.158-0.182,0.237-0.294,0.237-0.34c0-0.113-0.113-0.169-0.339-0.169c-0.068,0-0.174,0.005-0.317,0.017s-0.248,0.017-0.316,0.017
			c-0.15,0-0.227-0.049-0.227-0.146c0-0.099,0.08-0.147,0.238-0.147c0.113,0,0.215,0.004,0.305,0.012l0.396,0.033
			c0.091,0.008,0.196,0.012,0.316,0.012c0.324,0,0.648-0.012,0.973-0.034c0.219-0.015,0.32-0.022,0.306-0.022
			c0.158,0,0.237,0.038,0.237,0.114c0,0.098-0.083,0.146-0.248,0.146c-0.068,0-0.119,0-0.153,0s-0.073,0-0.118,0
			c-0.038,0-0.064,0-0.08,0c-0.264,0-0.588,0.222-0.973,0.667l-1.312,1.527c-0.068,0.075-0.103,0.132-0.103,0.169
			c0,0.038,0.034,0.099,0.103,0.182l1.798,2.104c0.241,0.279,0.468,0.419,0.679,0.419c0.046,0,0.113,0,0.204,0s0.158,0,0.203,0
			c0.159,0,0.238,0.045,0.238,0.136s-0.083,0.136-0.249,0.136c-0.008,0-0.136-0.012-0.385-0.034
			c-0.332-0.03-0.581-0.045-0.747-0.045c-0.309,0-0.588,0.015-0.837,0.045c-0.188,0.022-0.302,0.034-0.339,0.034
			c-0.174,0-0.261-0.045-0.261-0.136s0.083-0.136,0.249-0.136c0.083,0,0.188,0,0.317,0c0.098,0,0.181,0,0.248,0
			c0.068,0,0.105,0,0.113,0c0.219,0,0.328-0.06,0.328-0.18C202.118,75.462,202.084,75.391,202.017,75.294z"/>
		<path fill="#FFFFFF" d="M212.027,75.317v-0.435c-0.136,0.265-0.29,0.476-0.464,0.634c-0.407,0.37-0.92,0.555-1.538,0.555
			c-0.739,0-1.282-0.208-1.629-0.622c-0.188-0.227-0.313-0.502-0.373-0.826c-0.03-0.188-0.046-0.498-0.046-0.928v-1.651
			c0-0.679-0.022-1.09-0.068-1.233c-0.045-0.143-0.179-0.215-0.399-0.215c-0.106,0-0.228,0.008-0.364,0.023
			c-0.198,0.022-0.309,0.033-0.331,0.033c-0.145,0-0.217-0.053-0.217-0.158c0-0.091,0.057-0.136,0.17-0.136h0.034l0.316,0.034h0.656
			l0.113-0.012l0.181-0.022c0.136,0,0.204,0.14,0.204,0.419v0.067c0,0.061,0,0.147,0,0.261v2.624c0,0.399,0.019,0.69,0.056,0.871
			c0.053,0.302,0.178,0.554,0.374,0.758c0.309,0.324,0.754,0.486,1.335,0.486c0.769,0,1.315-0.268,1.64-0.803
			c0.233-0.385,0.351-0.958,0.351-1.72v-1.278c0-0.762-0.028-1.193-0.086-1.295s-0.183-0.153-0.374-0.153
			c-0.115,0-0.241,0.008-0.379,0.023l-0.334,0.033c-0.146,0-0.219-0.049-0.219-0.146c0-0.099,0.061-0.147,0.182-0.147h0.034
			l0.305,0.034h0.565c0.113,0,0.192-0.006,0.238-0.017c0.045-0.012,0.094-0.018,0.146-0.018c0.144,0,0.215,0.151,0.215,0.452
			c0,0.106,0,0.182,0,0.227c0,0.022,0,0.136,0,0.34c0,0.211,0,0.411,0,0.6v2.284c0,0.762,0.026,1.193,0.079,1.296
			c0.053,0.102,0.178,0.152,0.374,0.152c0.022,0,0.143-0.004,0.361-0.012c0.151-0.029,0.268-0.045,0.351-0.045
			c0.144,0,0.216,0.049,0.216,0.147s-0.068,0.146-0.204,0.146h-0.022l-0.328-0.022l-0.26-0.011h-0.136
			c-0.023,0-0.061,0.011-0.113,0.033c-0.053,0-0.099,0-0.136,0c-0.053,0-0.117,0-0.192,0c-0.113,0-0.188-0.032-0.227-0.097
			s-0.057-0.192-0.057-0.383L212.027,75.317L212.027,75.317z"/>
		<path fill="#FFFFFF" d="M216.659,76.071c-0.888,0-1.542-0.317-1.963-0.95c0.013,0.139,0.021,0.235,0.027,0.289
			c0.012,0.31,0.019,0.444,0.019,0.406c0,0.17-0.05,0.255-0.147,0.255c-0.113,0-0.17-0.076-0.17-0.227
			c0-0.091,0.012-0.231,0.034-0.424s0.034-0.451,0.034-0.775c0-0.354-0.012-0.629-0.034-0.825s-0.034-0.298-0.034-0.306
			c0-0.128,0.051-0.192,0.152-0.192c0.109,0,0.165,0.094,0.165,0.28c0,0.008-0.006,0.043-0.016,0.106s-0.015,0.133-0.015,0.207
			c-0.011,0.105-0.016,0.21-0.016,0.314c0,0.479,0.182,0.867,0.543,1.166c0.362,0.299,0.833,0.448,1.414,0.448
			c0.543,0,0.98-0.128,1.312-0.385c0.332-0.256,0.498-0.592,0.498-1.007c0-0.377-0.125-0.652-0.374-0.825
			c-0.249-0.174-0.687-0.298-1.312-0.374c-0.732-0.082-1.222-0.177-1.471-0.282c-0.212-0.091-0.381-0.239-0.509-0.447
			c-0.129-0.207-0.192-0.432-0.192-0.673c0-0.452,0.183-0.833,0.548-1.143c0.366-0.309,0.824-0.464,1.375-0.464
			c0.746,0,1.319,0.31,1.719,0.928V70.63c0-0.219,0.046-0.328,0.136-0.328c0.091,0,0.136,0.061,0.136,0.182
			c0,0.037-0.011,0.132-0.033,0.282c0,0.016-0.004,0.064-0.012,0.147s-0.011,0.158-0.011,0.226l-0.012,0.419
			c0,0.31,0.004,0.496,0.012,0.56c0.007,0.064,0.015,0.127,0.022,0.187v0.103c0,0.128-0.05,0.192-0.147,0.192
			c-0.091,0-0.136-0.061-0.136-0.182v-0.022l0.03-0.26c0.01-0.091,0.015-0.117,0.015-0.079c0-0.468-0.156-0.849-0.471-1.143
			s-0.725-0.441-1.231-0.441c-0.469,0-0.856,0.123-1.163,0.367c-0.307,0.245-0.46,0.561-0.46,0.945c0,0.369,0.119,0.635,0.356,0.797
			s0.673,0.277,1.307,0.346c0.671,0.067,1.169,0.173,1.493,0.316c0.467,0.203,0.701,0.573,0.701,1.108
			c0,0.506-0.197,0.918-0.593,1.238C217.793,75.911,217.284,76.071,216.659,76.071z"/>
		<path fill="#FFFFFF" d="M224.798,72.722c0,0.158-0.036,0.253-0.107,0.283s-0.183,0.045-0.334,0.045h-4.004
			c-0.105,0-0.172,0.016-0.198,0.045c-0.026,0.03-0.039,0.106-0.039,0.227c0,0.754,0.205,1.363,0.616,1.827s0.948,0.695,1.612,0.695
			c0.716,0,1.278-0.253,1.686-0.758c0.158-0.196,0.271-0.411,0.339-0.645c0-0.022,0.019-0.117,0.057-0.283
			c0.03-0.128,0.087-0.192,0.17-0.192c0.09,0,0.136,0.053,0.136,0.158c0,0.129-0.042,0.299-0.125,0.51
			c-0.181,0.452-0.469,0.805-0.865,1.058c-0.396,0.252-0.857,0.379-1.386,0.379c-0.769,0-1.388-0.261-1.854-0.781
			c-0.468-0.52-0.702-1.206-0.702-2.059c0-0.882,0.243-1.601,0.729-2.154c0.487-0.555,1.114-0.832,1.884-0.832
			c0.671,0,1.236,0.24,1.697,0.719C224.569,71.442,224.798,72.029,224.798,72.722z M220.16,72.621c0,0.113,0.083,0.17,0.249,0.17
			h3.892c0.128,0,0.191-0.061,0.191-0.182c0-0.482-0.166-0.942-0.497-1.38c-0.385-0.505-0.92-0.758-1.606-0.758
			c-0.521,0-0.967,0.146-1.341,0.436c-0.373,0.29-0.639,0.699-0.797,1.228C220.191,72.331,220.16,72.493,220.16,72.621z"/>
		<path fill="#FFFFFF" d="M227.343,71.331c0.415-0.724,1.007-1.086,1.776-1.086c0.452,0,0.824,0.127,1.114,0.379
			c0.29,0.253,0.436,0.579,0.436,0.979c0,0.265-0.066,0.485-0.198,0.662s-0.3,0.266-0.503,0.266c-0.271,0-0.407-0.124-0.407-0.373
			c0-0.227,0.113-0.34,0.339-0.34c0.061,0,0.121,0.023,0.182,0.068c0.06,0.045,0.102,0.067,0.124,0.067
			c0.098,0,0.147-0.136,0.147-0.407c0-0.316-0.117-0.574-0.351-0.774c-0.234-0.2-0.54-0.3-0.917-0.3
			c-0.648,0-1.119,0.241-1.414,0.724c-0.219,0.362-0.328,0.921-0.328,1.675v0.961c0,0.883,0.03,1.414,0.091,1.595
			c0.061,0.182,0.233,0.271,0.521,0.271c0.053,0,0.132,0,0.237,0s0.185,0,0.237,0h0.057c0.166,0,0.249,0.042,0.249,0.125
			c0,0.091-0.071,0.136-0.215,0.136h-0.034l-0.396-0.034l-0.464-0.034h-0.339h-0.204h-0.328l-0.464,0.034l-0.396,0.034
			c-0.008,0-0.02,0-0.034,0c-0.144,0-0.215-0.042-0.215-0.125c0-0.09,0.083-0.136,0.249-0.136h0.057c0.053,0,0.132,0,0.237,0
			s0.185,0,0.237,0c0.294,0,0.472-0.09,0.532-0.271c0.06-0.181,0.09-0.712,0.09-1.595v-1.775c0-0.543,0-0.781,0-0.713
			c-0.015-0.393-0.071-0.618-0.169-0.679c-0.061-0.038-0.159-0.057-0.295-0.057c-0.045,0-0.169,0.008-0.373,0.022l-0.339,0.022
			c-0.151,0-0.227-0.049-0.227-0.146c0-0.099,0.063-0.147,0.192-0.147c0.067,0,0.188,0.008,0.362,0.022
			c0.082,0.008,0.169,0.012,0.26,0.012h0.17c0.083,0,0.203-0.009,0.361-0.025c0.016,0,0.034-0.003,0.057-0.009
			c0.03,0,0.049,0,0.057,0c0.158,0,0.237,0.082,0.237,0.246v0.726H227.343z"/>
		<path fill="#FFFFFF" d="M237.083,73.899c-0.694,0-1.252-0.211-1.674-0.634h-0.068c-0.181,0-0.328,0.054-0.441,0.16
			s-0.169,0.247-0.169,0.422c0,0.532,0.505,0.806,1.516,0.82h0.803c0.912,0.016,1.584,0.109,2.014,0.283
			c0.663,0.271,0.995,0.728,0.995,1.369c0,0.558-0.253,0.983-0.758,1.278c-0.505,0.294-1.236,0.44-2.194,0.44
			c-0.942,0-1.674-0.146-2.194-0.436s-0.78-0.703-0.78-1.238c0-0.701,0.467-1.214,1.402-1.538c-0.747-0.113-1.12-0.445-1.12-0.996
			c0-0.43,0.271-0.713,0.814-0.849c-0.128-0.271-0.192-0.543-0.192-0.814c0-0.558,0.194-1.018,0.583-1.38
			c0.388-0.361,0.88-0.543,1.476-0.543c0.423,0,0.864,0.129,1.324,0.385c-0.03-0.128-0.046-0.229-0.046-0.306
			c0-0.256,0.101-0.471,0.3-0.645c0.2-0.173,0.451-0.26,0.753-0.26c0.256,0,0.467,0.071,0.633,0.215s0.249,0.324,0.249,0.543
			c0,0.15-0.047,0.281-0.142,0.39c-0.094,0.109-0.209,0.164-0.345,0.164c-0.233,0-0.351-0.112-0.351-0.339
			c0-0.211,0.094-0.316,0.283-0.316c0.007,0,0.041,0.007,0.102,0.022c-0.016,0,0.004,0.004,0.057,0.011
			c0.053,0,0.079-0.029,0.079-0.09c0-0.091-0.055-0.17-0.164-0.238c-0.109-0.067-0.239-0.102-0.391-0.102
			c-0.241,0-0.434,0.068-0.577,0.204c-0.143,0.136-0.215,0.316-0.215,0.543c0,0.12,0.03,0.241,0.091,0.361l0.227,0.453
			c0.128,0.256,0.192,0.539,0.192,0.848c0,0.543-0.19,0.98-0.571,1.312S237.701,73.899,237.083,73.899z M237.14,77.813
			c0.821,0,1.461-0.129,1.917-0.385c0.456-0.257,0.685-0.619,0.685-1.086c0-0.966-0.92-1.448-2.76-1.448
			c-0.808,0-1.432,0.128-1.872,0.385c-0.441,0.257-0.662,0.622-0.662,1.098c0,0.459,0.231,0.814,0.695,1.062
			C235.607,77.688,236.273,77.813,237.14,77.813z M237.094,73.673c0.528,0,0.95-0.144,1.268-0.43
			c0.316-0.286,0.475-0.671,0.475-1.154c0-0.489-0.156-0.882-0.469-1.176c-0.313-0.294-0.73-0.441-1.25-0.441
			c-0.528,0-0.954,0.152-1.278,0.458s-0.486,0.707-0.486,1.205c0,0.468,0.158,0.841,0.475,1.119
			C236.144,73.533,236.567,73.673,237.094,73.673z"/>
		<path fill="#FFFFFF" d="M242.534,71.331c0.415-0.724,1.007-1.086,1.776-1.086c0.452,0,0.824,0.127,1.114,0.379
			c0.29,0.253,0.436,0.579,0.436,0.979c0,0.265-0.066,0.485-0.198,0.662s-0.3,0.266-0.503,0.266c-0.271,0-0.407-0.124-0.407-0.373
			c0-0.227,0.113-0.34,0.339-0.34c0.061,0,0.121,0.023,0.182,0.068c0.06,0.045,0.102,0.067,0.124,0.067
			c0.098,0,0.147-0.136,0.147-0.407c0-0.316-0.117-0.574-0.351-0.774c-0.234-0.2-0.54-0.3-0.917-0.3
			c-0.648,0-1.119,0.241-1.414,0.724c-0.219,0.362-0.328,0.921-0.328,1.675v0.961c0,0.883,0.03,1.414,0.091,1.595
			c0.061,0.182,0.233,0.271,0.521,0.271c0.053,0,0.132,0,0.237,0s0.185,0,0.237,0h0.057c0.166,0,0.249,0.042,0.249,0.125
			c0,0.091-0.071,0.136-0.215,0.136h-0.034l-0.396-0.034l-0.464-0.034h-0.339h-0.204h-0.328l-0.464,0.034l-0.396,0.034
			c-0.008,0-0.02,0-0.034,0c-0.144,0-0.215-0.042-0.215-0.125c0-0.09,0.083-0.136,0.249-0.136h0.057c0.053,0,0.132,0,0.237,0
			s0.185,0,0.237,0c0.294,0,0.472-0.09,0.532-0.271c0.06-0.181,0.09-0.712,0.09-1.595v-1.775c0-0.543,0-0.781,0-0.713
			c-0.015-0.393-0.071-0.618-0.169-0.679c-0.061-0.038-0.159-0.057-0.295-0.057c-0.045,0-0.169,0.008-0.373,0.022l-0.339,0.022
			c-0.151,0-0.227-0.049-0.227-0.146c0-0.099,0.063-0.147,0.192-0.147c0.067,0,0.188,0.008,0.362,0.022
			c0.082,0.008,0.169,0.012,0.26,0.012h0.17c0.083,0,0.203-0.009,0.361-0.025c0.016,0,0.034-0.003,0.057-0.009
			c0.03,0,0.049,0,0.057,0c0.158,0,0.237,0.082,0.237,0.246v0.726H242.534z"/>
		<path fill="#FFFFFF" d="M249.141,70.245c0.792,0,1.435,0.271,1.929,0.814s0.741,1.252,0.741,2.127
			c0,0.853-0.247,1.546-0.741,2.081c-0.494,0.536-1.137,0.804-1.929,0.804c-0.77,0-1.398-0.279-1.889-0.837
			c-0.49-0.559-0.735-1.274-0.735-2.149c0-0.837,0.245-1.52,0.735-2.048C247.742,70.509,248.371,70.245,249.141,70.245z
			 M249.141,75.844c0.693,0,1.26-0.243,1.697-0.729c0.437-0.486,0.655-1.118,0.655-1.895c0-0.814-0.217-1.477-0.65-1.985
			s-0.997-0.764-1.69-0.764c-0.694,0-1.254,0.243-1.68,0.729c-0.427,0.486-0.64,1.122-0.64,1.906c0,0.822,0.211,1.483,0.634,1.985
			C247.889,75.593,248.448,75.844,249.141,75.844z"/>
		<path fill="#FFFFFF" d="M257.703,75.317v-0.435c-0.136,0.265-0.29,0.476-0.464,0.634c-0.407,0.37-0.92,0.555-1.538,0.555
			c-0.739,0-1.282-0.208-1.629-0.622c-0.188-0.227-0.313-0.502-0.373-0.826c-0.03-0.188-0.046-0.498-0.046-0.928v-1.651
			c0-0.679-0.022-1.09-0.068-1.233c-0.045-0.143-0.179-0.215-0.399-0.215c-0.106,0-0.228,0.008-0.364,0.023
			c-0.198,0.022-0.309,0.033-0.331,0.033c-0.145,0-0.217-0.053-0.217-0.158c0-0.091,0.057-0.136,0.17-0.136h0.034l0.316,0.034h0.656
			l0.113-0.012l0.181-0.022c0.136,0,0.204,0.14,0.204,0.419v0.067c0,0.061,0,0.147,0,0.261v2.624c0,0.399,0.019,0.69,0.056,0.871
			c0.053,0.302,0.178,0.554,0.374,0.758c0.309,0.324,0.754,0.486,1.335,0.486c0.769,0,1.315-0.268,1.64-0.803
			c0.233-0.385,0.351-0.958,0.351-1.72v-1.278c0-0.762-0.028-1.193-0.086-1.295s-0.183-0.153-0.374-0.153
			c-0.115,0-0.241,0.008-0.379,0.023l-0.334,0.033c-0.146,0-0.219-0.049-0.219-0.146c0-0.099,0.061-0.147,0.182-0.147h0.034
			l0.305,0.034h0.565c0.113,0,0.192-0.006,0.238-0.017c0.045-0.012,0.094-0.018,0.146-0.018c0.144,0,0.215,0.151,0.215,0.452
			c0,0.106,0,0.182,0,0.227c0,0.022,0,0.136,0,0.34c0,0.211,0,0.411,0,0.6v2.284c0,0.762,0.026,1.193,0.079,1.296
			c0.053,0.102,0.178,0.152,0.374,0.152c0.022,0,0.143-0.004,0.361-0.012c0.151-0.029,0.268-0.045,0.351-0.045
			c0.144,0,0.216,0.049,0.216,0.147s-0.068,0.146-0.204,0.146h-0.022l-0.328-0.022l-0.26-0.011h-0.136
			c-0.023,0-0.061,0.011-0.113,0.033c-0.053,0-0.099,0-0.136,0c-0.053,0-0.117,0-0.192,0c-0.113,0-0.188-0.032-0.227-0.097
			s-0.057-0.192-0.057-0.383L257.703,75.317L257.703,75.317z"/>
		<path fill="#FFFFFF" d="M261.2,71.523c0.407-0.852,1.082-1.278,2.024-1.278c0.731,0,1.312,0.253,1.742,0.758
			c0.43,0.506,0.645,1.192,0.645,2.06c0,0.897-0.231,1.623-0.695,2.177c-0.464,0.555-1.073,0.832-1.827,0.832
			c-0.875,0-1.504-0.358-1.889-1.075v0.95c0,0.89,0.03,1.428,0.091,1.612c0.06,0.185,0.233,0.277,0.52,0.277
			c0.053,0,0.132-0.004,0.238-0.012c0.105-0.008,0.185-0.011,0.237-0.011c0.015-0.008,0.037-0.012,0.067-0.012
			c0.159,0,0.238,0.049,0.238,0.147c0,0.09-0.072,0.136-0.216,0.136h-0.034l-0.397-0.057h-0.783h-0.228h-0.317h-0.478l-0.397,0.057
			c-0.007,0-0.019,0-0.033,0c-0.145,0-0.216-0.046-0.216-0.136c0-0.099,0.083-0.147,0.251-0.147c0.015,0,0.034,0.004,0.057,0.012
			c0.054,0,0.135,0.003,0.245,0.011s0.192,0.012,0.245,0.012c0.289,0,0.464-0.091,0.524-0.272c0.062-0.181,0.092-0.714,0.092-1.598
			v-3.92c0-0.551,0-0.789,0-0.713c-0.016-0.394-0.072-0.62-0.172-0.681c-0.061-0.037-0.159-0.057-0.296-0.057
			c-0.046,0-0.171,0.012-0.376,0.034l-0.343,0.022c-0.151,0-0.228-0.049-0.228-0.146c0-0.099,0.063-0.147,0.192-0.147h0.033
			l0.328,0.022h0.261h0.136c0.06,0,0.148-0.003,0.266-0.011s0.205-0.012,0.266-0.012c0.151,0,0.227,0.079,0.227,0.237
			c0,0.046,0,0.083,0,0.113L261.2,71.523L261.2,71.523z M263.134,75.844c0.66,0,1.186-0.245,1.575-0.735s0.585-1.146,0.585-1.968
			c0-0.853-0.178-1.511-0.534-1.975s-0.864-0.695-1.524-0.695c-0.623,0-1.117,0.215-1.485,0.645
			c-0.217,0.249-0.363,0.511-0.438,0.786s-0.112,0.673-0.112,1.193c0,0.559,0.011,0.924,0.033,1.098
			c0.053,0.407,0.188,0.735,0.405,0.984C262.021,75.622,262.519,75.844,263.134,75.844z"/>
	</g>
	<g>
		<path fill="#FFFFFF" d="M119.685,26.336l-4.714,38.677l-12.535-1.554l4.714-38.677L119.685,26.336z"/>
		<path fill="#FFFFFF" d="M157.933,38.657c-0.644,5.07-3.18,7.964-7.606,8.678c2.07,1.071,3.463,2.071,4.178,3
			c0.857,1.107,1.285,2.714,1.285,4.821c0,0.964-0.071,2.035-0.214,3.214l-0.321,2.357c-0.215,1.749-0.268,2.928-0.16,3.535
			c0.07,0.606,0.392,0.946,0.964,1.018l-0.161,1.179L143.2,64.905c-0.106-0.535-0.16-1.393-0.16-2.571
			c0.036-1.214,0.16-2.642,0.375-4.284c0.106-0.893,0.161-1.696,0.161-2.411c0-1.928-0.607-3.249-1.821-3.964
			c-0.894-0.536-2.304-0.928-4.232-1.179l-3.856-0.482l-1.66,13.499l-12.536-1.5l4.768-38.677l18.053,2.196
			c8.178,1.001,13.106,3.215,14.785,6.643c0.643,1.286,0.964,2.786,0.964,4.5C158.039,37.282,158.003,37.943,157.933,38.657z
			 M146.094,39.258c0.321-2.704-1.198-4.251-4.557-4.643l-5.891-0.77l-0.904,7.666l4.925,0.669c1.32,0.151,2.428,0.155,3.321,0.013
			C144.844,41.943,145.879,40.965,146.094,39.258z"/>
		<path fill="#FFFFFF" d="M192.055,62.061l-29.731,4.183l-5.41-38.568l12.533-1.715l4.125,29.507l17.195-2.416L192.055,62.061z"/>
		<path fill="#FFFFFF" d="M230.57,45.513c0.644,6.179-0.357,10.848-3,14.008s-7.16,5.08-13.553,5.759
			c-1.392,0.143-2.696,0.215-3.91,0.215c-4.286,0-7.696-0.911-10.231-2.732c-3.464-2.535-5.536-7.018-6.215-13.445l-2.303-21.856
			l12.589-1.285l2.41,23.142c0.214,2.071,0.66,3.607,1.34,4.606c0.892,1.286,2.267,1.929,4.124,1.929
			c0.393,0,0.786-0.018,1.179-0.054c3.464-0.357,5.196-2.41,5.196-6.16c0-0.5-0.019-1.019-0.053-1.554l-2.465-23.195l12.589-1.286
			L230.57,45.513z"/>
		<path fill="#FFFFFF" d="M268.978,41.175l-11.892-1.446c-0.251-1.821-0.991-3.232-2.224-4.232c-1.231-0.999-2.759-1.5-4.58-1.5
			c-4.285,0-6.856,3.482-7.714,10.446c-0.107,0.964-0.16,1.875-0.16,2.732c0,5.249,2.303,8.16,6.91,8.731
			c1.393,0.179,2.749-0.054,4.071-0.696c1.464-0.679,2.428-1.661,2.892-2.947l-5.517-0.643l1.024-8.456l17.191,2.166l-2.626,21.397
			l-8.09-1.019v-3.857c-2.501,2.322-5.679,3.482-9.536,3.482c-2.928,0-5.696-0.571-8.303-1.714
			c-2.714-1.179-4.946-2.856-6.696-5.036c-2.606-3.285-3.91-7.302-3.91-12.053c0-1.142,0.071-2.321,0.214-3.535
			c0.75-6.249,3.16-11.053,7.232-14.41c3.321-2.75,7.393-4.125,12.213-4.125c6.108,0,10.999,1.769,14.679,5.303
			C267.265,32.729,268.87,36.532,268.978,41.175z"/>
	</g>
	<line fill="none" stroke="#FFFFFF" stroke-width="3.482" x1="18.824" y1="39.336" x2="71.697" y2="39.336"/>
	<circle fill="#FFFFFF" cx="31.506" cy="40.507" r="1.951"/>
	<path fill="none" stroke="#FFFFFF" stroke-width="3.482" d="M75.639,20.267c-4.643,0-8.927,1.534-12.375,4.122
		c0.102-0.778,0.156-1.57,0.156-2.376c0-9.925-8.045-17.97-17.97-17.97c-6.216,0-11.696,3.157-14.922,7.955
		c-2.961-2.888-7.005-4.67-11.468-4.67c-9.074,0-16.43,7.356-16.43,16.43c0,5.863,3.074,11.006,7.695,13.913
		c-0.062,0.454-0.096,0.916-0.096,1.388c0,2.801,1.133,5.337,2.966,7.176C8.446,49.308,5.3,54.647,5.3,60.725
		c0,9.527,7.724,17.251,17.251,17.251c0.664,0,1.316-0.048,1.961-0.121c0.372-8.646,5.822-24.862,5.822-24.862l0.236-0.652
		c-6.597-0.664-11.747-6.232-11.747-13.005c0-7.219,5.853-13.071,13.072-13.071c7.075,0,12.822,5.624,13.05,12.643l0.826-0.053
		c0.255-6.994,5.991-12.59,13.047-12.59c7.219,0,13.072,5.853,13.072,13.071c0,7.22-5.852,13.072-13.072,13.072
		c-0.47,0-0.934-0.027-1.392-0.076c0.684,2.852,3.301,13.832,4.918,21.443c7.397-0.7,13.554-5.657,15.981-12.402
		c10.129-1.317,17.952-9.978,17.952-20.466C96.279,29.509,87.038,20.267,75.639,20.267z"/>
	<path fill="none" stroke="#FFFFFF" stroke-width="3.482" d="M57.428,52.332c-6.564-0.695-11.68-6.247-11.68-12.996
		c0-0.163,0.019-0.32,0.024-0.481l-0.826,0.053c0.004,0.144,0.021,0.284,0.021,0.429c0,7.22-5.853,13.072-13.072,13.072
		c-0.447,0-0.889-0.023-1.325-0.067l-0.236,0.652c0,0-7.608,22.632-5.462,28.68s8.779,9.17,20.291,9.17
		c11.511,0,19.314-4.878,18.339-11.12C62.631,74.141,58.33,56.097,57.428,52.332z"/>
</g>
</svg>
