<?xml version="1.0" encoding="UTF-8" standalone="no"?>
<svg
   xmlns:dc="http://purl.org/dc/elements/1.1/"
   xmlns:cc="http://creativecommons.org/ns#"
   xmlns:rdf="http://www.w3.org/1999/02/22-rdf-syntax-ns#"
   xmlns:svg="http://www.w3.org/2000/svg"
   xmlns="http://www.w3.org/2000/svg"
   xmlns:sodipodi="http://sodipodi.sourceforge.net/DTD/sodipodi-0.dtd"
   xmlns:inkscape="http://www.inkscape.org/namespaces/inkscape"
   viewBox="0 0 365.47235 140"
   height="140"
   width="365.47235"
   version="1.1"
   id="svg2"
   inkscape:version="0.91 r13725"
   sodipodi:docname="2594_0_marte.svg">
  <sodipodi:namedview
     pagecolor="#ffffff"
     bordercolor="#666666"
     borderopacity="1"
     objecttolerance="10"
     gridtolerance="10"
     guidetolerance="10"
     inkscape:pageopacity="0"
     inkscape:pageshadow="2"
     inkscape:window-width="1280"
     inkscape:window-height="977"
     id="namedview6"
     showgrid="false"
     fit-margin-top="0"
     fit-margin-left="0"
     fit-margin-right="0"
     fit-margin-bottom="0"
     inkscape:zoom="0.67417219"
     inkscape:cx="182.73618"
     inkscape:cy="61.23477"
     inkscape:window-x="-2"
     inkscape:window-y="24"
     inkscape:window-maximized="1"
     inkscape:current-layer="svg2" />
  <metadata
     id="metadata8">
    <rdf:RDF>
      <cc:Work
         rdf:about="">
        <dc:format>image/svg+xml</dc:format>
        <dc:type
           rdf:resource="http://purl.org/dc/dcmitype/StillImage" />
        <dc:title></dc:title>
      </cc:Work>
    </rdf:RDF>
  </metadata>
  <defs
     id="defs6" />
  <path
     id="path4162"
     d="M 1.05251,138.87965 0,137.7593 0,78.898081 0,20.036866 l 1.48935,-1.253207 1.48934,-1.253202 28.06293,0 c 24.78202,0 28.24404,0.09074 29.6121,0.776137 0.85206,0.426882 7.87482,7.070734 15.60614,14.764116 11.989,11.93017 14.26507,13.987978 15.47159,13.987978 1.20701,0 3.51316,-2.087888 15.71331,-14.226179 7.86428,-7.824395 14.77448,-14.468247 15.35601,-14.764115 0.76701,-0.390228 33.85638,-0.537937 120.50679,-0.537937 l 119.44945,0 1.35767,1.300738 1.35768,1.300738 0,58.881518 0,58.881519 -1.12035,1.05252 L 363.23165,140 243.4097,140 c -115.46681,0 -119.85109,-0.0322 -120.62309,-0.88523 -0.70329,-0.77712 -0.80204,-2.47683 -0.80855,-13.917 -0.007,-11.53224 -0.2904,-15.01867 -1.15835,-14.22791 -0.13766,0.12541 -6.41787,6.38175 -13.95604,13.90298 -11.68062,11.65436 -13.91446,13.67496 -15.11815,13.67496 -1.20356,0 -3.46799,-2.04757 -15.31622,-13.84943 -7.8794,-7.84856 -14.13103,-13.70901 -14.42817,-13.52537 -0.35578,0.21988 -0.52432,4.59413 -0.52432,13.60739 0,12.63791 -0.0471,13.33038 -0.96814,14.25148 C 59.56229,139.97825 58.8951,140 30.82278,140 l -28.71774,0 -1.05253,-1.12035 z m 181.80746,-60.518109 0.12379,-40.568231 -1.09193,0.155047 -1.09193,0.155048 -0.12502,39.935726 c -0.0688,21.964639 -0.015,40.224109 0.11955,40.576579 0.13452,0.35248 0.62644,0.56734 1.09317,0.47746 0.7995,-0.15394 0.85574,-2.5098 0.97237,-40.731629 z m 30.08007,20.53401 c 0.37159,-0.23529 0.5418,-0.77653 0.37824,-1.20276 -0.24532,-0.6393 -1.14742,-0.77496 -5.15327,-0.77496 l -4.85588,0 0,-8.18959 c 0,-4.50427 -0.13222,-8.53415 -0.29383,-8.95528 -0.34715,-0.90467 -2.11785,-1.0372 -2.14583,-0.16061 -0.12344,3.86769 0.11871,19.01098 0.30892,19.31874 0.33525,0.54244 10.89925,0.51053 11.76165,-0.0355 z m 7.20043,-9.88513 0.13094,-10.07309 -1.09908,0.15598 c -1.09451,0.15534 -1.09963,0.19523 -1.23093,9.58108 -0.0725,5.18379 -0.0187,9.71989 0.11955,10.08021 0.13827,0.36032 0.63326,0.58173 1.09999,0.49203 0.77122,-0.14825 0.86052,-1.08139 0.97953,-10.23621 z m 13.58555,9.48064 c 0.24127,-0.46592 1.80504,-4.83482 3.47505,-9.70867 2.16798,-6.32713 2.88737,-9.01058 2.51533,-9.38261 -1.16156,-1.16157 -2.01039,0.32297 -4.46389,7.80691 -1.40563,4.28762 -2.63949,7.71188 -2.74193,7.60945 -0.10243,-0.10243 -1.34124,-3.64687 -2.75292,-7.87654 -2.18501,-6.5467 -2.72274,-7.7133 -3.61606,-7.84499 -0.74531,-0.10986 -1.04935,0.098 -1.04935,0.7173 0,1.07789 5.7753,18.08632 6.42479,18.92118 0.6697,0.86085 1.69612,0.74839 2.20898,-0.24203 z m 23.26433,0.40449 c 0.37159,-0.23529 0.5418,-0.77653 0.37824,-1.20276 -0.24532,-0.6393 -1.14742,-0.77496 -5.15327,-0.77496 l -4.85588,0 0,-3.38848 0,-3.38849 4.12978,0 c 3.34008,0 4.18665,-0.14819 4.42716,-0.77496 0.46602,-1.21441 -0.75312,-1.62997 -4.8054,-1.63798 l -3.75154,-0.007 0,-3.12952 0,-3.12951 4.96171,-0.13796 c 4.59302,-0.1277 4.96171,-0.20989 4.96171,-1.10609 0,-0.91849 -0.32271,-0.96814 -6.2929,-0.96814 l -6.2929,0 -0.13168,9.37692 c -0.0914,6.50694 0.0379,9.58122 0.42233,10.04444 0.63887,0.76979 10.84021,0.96094 12.00264,0.22489 z m 15.78273,-9.72946 c 0,-9.91553 -1.4e-4,-9.91681 -1.08916,-10.07148 l -1.08915,-0.15468 0,9.87641 c 0,5.43203 0.15275,10.02916 0.33945,10.21586 0.18669,0.18669 0.67681,0.27447 1.08915,0.19506 0.6478,-0.12475 0.74971,-1.49233 0.74971,-10.06117 z m 13.20181,1.08955 0.13194,-8.82803 2.8935,0 c 2.77184,0 2.89349,-0.0514 2.89349,-1.22311 l 0,-1.22312 -7.14002,0.13396 c -6.77266,0.12707 -7.14003,0.18377 -7.14003,1.1021 0,0.8495 0.37076,0.9858 3.02544,1.11225 l 3.02543,0.14412 0,8.60947 c 0,4.73521 0.15275,8.76222 0.33945,8.94892 0.1867,0.18669 0.67682,0.27465 1.08916,0.19546 0.63836,-0.12261 0.7693,-1.45504 0.88164,-8.97202 z m -80.87907,-22.01892 c 0.21539,-0.3328 0.50054,-4.63496 0.63365,-9.56037 l 0.24204,-8.955282 2.87649,6.534932 c 3.2911,7.47685 3.80259,8.22918 5.59472,8.22918 2.01679,0 2.00858,0.014 7.83615,-13.311904 0.55859,-1.277342 0.65099,-0.378198 0.76733,7.467034 0.0827,5.57822 0.33158,9.15939 0.66436,9.56037 0.8152,0.98224 3.20092,0.79619 3.78501,-0.29519 0.31148,-0.58201 0.5011,-6.10853 0.5011,-14.60498 0,-12.039532 -0.0955,-13.774175 -0.80113,-14.553904 -0.44062,-0.486882 -1.26348,-0.885237 -1.82857,-0.885237 -1.1095,0 -3.17914,1.248623 -3.17914,1.917989 0,0.225983 -1.31815,3.426645 -2.92923,7.112572 -1.61107,3.685931 -3.28114,7.52579 -3.71127,8.53301 -0.43013,1.00722 -0.94134,1.66072 -1.13602,1.45221 -0.19469,-0.20851 -2.02975,-4.19116 -4.07793,-8.850324 -2.04818,-4.659168 -4.06462,-8.852419 -4.48099,-9.318336 -0.95477,-1.068394 -2.92409,-1.090603 -4.07837,-0.04599 -0.81903,0.741212 -0.88524,1.856299 -0.88524,14.90934 0,10.32762 0.15566,14.26386 0.58088,14.68909 0.76215,0.76214 3.12745,0.74636 3.62616,-0.0242 z m 32.28964,-0.48407 c 0.38382,-0.59903 0.94182,-2.01494 1.23999,-3.14645 l 0.54213,-2.05729 5.93658,0 5.93658,0 0.89344,2.54136 c 0.49139,1.39775 1.10567,2.81365 1.36507,3.14645 0.80831,1.03703 3.1571,0.72427 3.9788,-0.52981 0.70206,-1.07147 0.47323,-1.88997 -4.09368,-14.6431 -4.9779,-13.900822 -5.6696,-15.202441 -8.07887,-15.202441 -1.28022,0 -3.55489,1.957944 -3.55489,3.059894 0,0.375958 -0.42668,1.747302 -0.94817,3.04744 -0.52149,1.300133 -1.73715,4.542192 -2.70148,7.204573 -0.96432,2.662384 -2.49812,6.860744 -3.40845,9.329694 -2.3503,6.37435 -2.14986,8.33884 0.85085,8.33884 0.86454,0 1.59327,-0.38868 2.0421,-1.08916 z m 4.16515,-10.86163 c 0,-0.95323 3.44828,-10.902034 3.69363,-10.656684 0.45641,0.45641 3.90547,10.974454 3.67448,11.205454 -0.14764,0.14763 -1.86586,0.26842 -3.81827,0.26842 -3.00857,0 -3.54984,-0.1246 -3.54984,-0.81719 z m 25.25451,11.14966 c 0.7585,-0.68644 0.88523,-1.58733 0.88523,-6.2929 l 0,-5.49178 2.90038,0 2.90037,0 2.71883,5.44579 c 3.17434,6.35814 3.77626,7.14002 5.49665,7.14002 3.20424,0 3.19413,-2.44131 -0.0351,-8.48513 l -2.47729,-4.63641 1.95825,-1.6762 c 1.07704,-0.92191 2.21634,-2.458182 2.53177,-3.413948 0.80347,-2.434526 0.39468,-6.953347 -0.76933,-8.50431 -2.40469,-3.204099 -5.62855,-4.234794 -13.30149,-4.252607 -7.85324,-0.01825 -7.24775,-1.310734 -7.24775,15.471255 0,12.06002 0.10428,14.08027 0.76068,14.73667 0.98652,0.98652 2.56321,0.96918 3.67885,-0.0405 z m 0.98741,-20.860976 0.13986,-4.235607 4.28958,0.01404 c 4.0813,0.01336 4.34572,0.07929 5.44578,1.358183 1.56283,1.816896 1.54923,4.329632 -0.032,5.91084 -1.0871,1.087128 -1.56212,1.188173 -5.58562,1.188173 l -4.39747,0 0.13987,-4.235607 z m 33.5132,20.586256 c 0.6328,-0.90345 0.75355,-2.99779 0.75355,-13.06987 l 0,-11.994027 3.81328,0 c 4.13578,0 5.10276,-0.502469 4.81611,-2.502605 -0.28601,-1.99561 -1.91499,-2.323819 -11.53381,-2.323819 -9.798,0 -11.26956,0.31405 -11.52112,2.458729 -0.21538,1.836216 0.7426,2.307936 5.00912,2.466585 l 3.84962,0.143144 0.1295,12.304393 c 0.0851,8.08665 0.31284,12.5253 0.66436,12.94885 0.85716,1.03282 3.16749,0.78487 4.01939,-0.43138 z m 32.59441,0.3223 c 1.19224,-0.83508 1.42515,-2.71057 0.43832,-3.52957 -0.37465,-0.31093 -3.41857,-0.58487 -7.38206,-0.66436 l -6.74452,-0.13525 -0.14059,-3.99357 -0.1406,-3.99357 5.58638,0 c 4.94094,0 5.69822,-0.11186 6.55451,-0.96814 1.18523,-1.18523 1.20074,-1.54992 0.12101,-2.845542 -0.75739,-0.908845 -1.43676,-1.029892 -6.41391,-1.142786 l -5.5668,-0.126265 0,-3.872555 0,-3.872555 6.74452,-0.135253 c 4.12245,-0.08267 7.0019,-0.34885 7.40653,-0.684668 1.02044,-0.846884 0.53932,-2.943142 -0.83914,-3.656234 -1.72749,-0.89365 -16.94811,-0.641242 -18.07979,0.299823 -0.70866,0.589306 -0.79892,2.240408 -0.79892,14.615645 0,13.86812 0.006,13.95578 1.07585,14.70485 0.86855,0.60835 2.61998,0.75355 9.08961,0.75355 6.46963,0 8.22106,-0.1452 9.0896,-0.75355 z"
     style="fill:#ffffff;fill-opacity:1"
     inkscape:connector-curvature="0" />
</svg>
