<?xml version="1.0" encoding="UTF-8" standalone="no"?>
<svg
   xmlns:dc="http://purl.org/dc/elements/1.1/"
   xmlns:cc="http://creativecommons.org/ns#"
   xmlns:rdf="http://www.w3.org/1999/02/22-rdf-syntax-ns#"
   xmlns:svg="http://www.w3.org/2000/svg"
   xmlns="http://www.w3.org/2000/svg"
   viewBox="0 0 540.72101 217.04025"
   height="217.04025"
   width="540.72101"
   version="1.1"
   id="svg2">
  <metadata
     id="metadata8">
    <rdf:RDF>
      <cc:Work
         rdf:about="">
        <dc:format>image/svg+xml</dc:format>
        <dc:type
           rdf:resource="http://purl.org/dc/dcmitype/StillImage" />
        <dc:title></dc:title>
      </cc:Work>
    </rdf:RDF>
  </metadata>
  <defs
     id="defs6" />
  <path
     id="path4185"
     d="m 3.421903,212.84045 c -3.66388002,-3.93272 -3.70711002,-5.01552 -3.17926002,-79.61373 0.52086,-73.60821 0.64155,-75.887973 4.52197002,-85.411732 8.66055,-21.255763 26.63116,-37.8711036 48.14821,-44.5170446 35.02524,-10.8181801 73.131627,5.713971 89.475157,38.8180886 5.56106,11.264035 5.89215,13.011552 5.96706,31.495592 0.074,18.27141 -0.28588,20.3405 -5.42494,31.184866 -6.69198,14.1213 -21.54717,29.544 -34.27925,35.58879 -5.02762,2.38696 -9.141117,4.76105 -9.141117,5.27575 0,0.51471 12.409067,13.32552 27.575707,28.46848 29.00261,28.95732 30.97906,32.1782 24.01755,39.13971 -3.43793,3.43793 -5.93025,3.55816 -73.762417,3.55816 l -70.20427,0 -3.7144,-3.98693 z m 112.099527,-17.8196 c 0,-0.25169 -20.815207,-21.26126 -46.256017,-46.68796 l -46.25602,-46.23037 0,46.68796 0,46.68797 46.25602,0 c 25.44081,0 46.256017,-0.20593 46.256017,-0.4576 z M 92.955723,123.26207 C 116.3979,115.27453 132.26174,86.405024 126.30549,62.571103 119.62009,35.819396 91.921653,17.516742 66.000313,22.722501 c -17.49172,3.512825 -32.37303,15.2304 -39.62773,31.202943 -6.01889,13.251683 -5.79565,13.651513 24.63643,44.12827 15.39979,15.422376 29.26742,28.040696 30.81694,28.040696 1.54952,0 6.55793,-1.27455 11.12977,-2.83234 z m 134.456307,90.98661 c -21.10412,-5.81994 -38.6127,-20.83147 -48.40424,-41.50092 -5.25207,-11.08686 -5.66633,-13.32974 -5.66633,-30.67906 0,-17.63938 0.34359,-19.41566 5.96407,-30.83249 18.94322,-38.479113 61.94795,-53.510034 100.71481,-35.201589 34.43689,16.263543 50.45749,57.027119 36.63114,93.206149 -4.51769,11.82129 -17.09128,28.71732 -20.02255,26.90568 -1.18419,-0.73185 -1.46875,-0.40607 -0.71316,0.81651 1.79803,2.90926 -13.56086,12.17459 -27.13629,16.37008 -12.79411,3.95405 -29.04526,4.31375 -41.36745,0.91564 z m 41.11009,-24.30975 c 40.32109,-17.75911 40.92808,-75.43172 0.99274,-94.324506 -26.14415,-12.3684 -57.01204,-1.73338 -69.28707,23.871716 -6.31992,13.18305 -7.41053,23.64823 -3.77625,36.2359 9.17367,31.77395 42.11187,47.41199 72.07058,34.21689 z m 89.84343,24.08738 c -3.4747,-2.62487 -3.5696,-5.06375 -4.04552,-103.97688 -0.47946,-99.647096 -0.42899,-101.3473416 3.11339,-104.8897166 3.35493,-3.354932 5.84332,-3.600747 36.45109,-3.600747 30.65736,0 32.97329,0.229714 34.69202,3.441199 1.20773,2.256671 1.84167,38.3531266 1.84167,104.8647046 l 0,101.42351 -3.95402,2.76951 c -5.7036,3.99495 -62.80351,3.96848 -68.09863,-0.0317 z m 50.70371,-104.83313 0,-86.285281 -16.0117,0 -16.0117,0 0,86.285281 0,86.28527 16.0117,0 16.0117,0 0,-86.28527 z m 58.09577,104.38073 c -2.66728,-2.94731 -2.94436,-12.79885 -2.94436,-104.68985 0,-96.010515 0.174,-101.5938836 3.25347,-104.3807376 2.77535,-2.511649 7.98956,-2.944356 35.48069,-2.944356 31.28588,0 32.30808,0.115462 34.9967,3.954018 2.42669,3.464594 2.76949,16.3053186 2.76949,103.7405756 0,97.96294 -0.0664,99.85773 -3.62747,103.6802 -3.46929,3.72384 -5.00871,3.89362 -35.30582,3.89362 -28.43005,0 -31.98027,-0.33361 -34.6227,-3.25347 z m 51.31752,-104.38073 0,-85.395742 -16.45647,-0.511538 -16.45647,-0.511521 0,85.165991 c 0,46.84128 0.56252,85.7285 1.25005,86.41603 0.68754,0.68752 8.09295,1.0211 16.45647,0.74129 l 15.20642,-0.50878 0,-85.39573 z"
     style="fill:#ffffff;fill-opacity:1" />
</svg>
