<?xml version="1.0" encoding="UTF-8" standalone="no"?>
<svg
   xmlns:dc="http://purl.org/dc/elements/1.1/"
   xmlns:cc="http://creativecommons.org/ns#"
   xmlns:rdf="http://www.w3.org/1999/02/22-rdf-syntax-ns#"
   xmlns:svg="http://www.w3.org/2000/svg"
   xmlns="http://www.w3.org/2000/svg"
   viewBox="0 0 742.5 134.98788"
   height="134.98788"
   width="742.5"
   version="1.1"
   id="svg2">
  <metadata
     id="metadata8">
    <rdf:RDF>
      <cc:Work
         rdf:about="">
        <dc:format>image/svg+xml</dc:format>
        <dc:type
           rdf:resource="http://purl.org/dc/dcmitype/StillImage" />
        <dc:title></dc:title>
      </cc:Work>
    </rdf:RDF>
  </metadata>
  <defs
     id="defs6" />
  <path
     id="path4138"
     d="m 384.22871,131.9973 c -3.51796,-1.63805 -7.85992,-4.89721 -9.64882,-7.24258 C 367.43243,115.38392 367.5,116.04332 367.5,55.665146 L 367.5,0 428.75,0 490,0 l 0,56.480346 c 0,54.718274 -0.0814,56.648544 -2.60989,61.871654 -3.19722,6.6046 -10.7295,13.25475 -17.21316,15.1973 -3.21048,0.96189 -17.42881,1.44659 -42.19698,1.43849 -36.71891,-0.0125 -37.46388,-0.0629 -43.75126,-2.99049 z m 68.51426,-26.71596 c 8.79706,-4.33078 13.11369,-8.915234 17.64493,-18.739674 2.32471,-5.04035 2.7295,-8.14222 2.73299,-20.94296 0.004,-14.51592 -0.1378,-15.31454 -4.17414,-23.513496 -2.91061,-5.9123 -5.75487,-9.63332 -9.375,-12.26488 -9.6602,-7.02227 -12.64866,-7.81908 -29.57175,-7.88472 -14.66037,-0.0569 -16.06674,0.15631 -22.78031,3.45307 -14.38863,7.06569 -21.25966,19.783786 -21.40026,39.611316 -0.12979,18.30421 5.30577,30.74589 16.73747,38.311024 7.66023,5.0693 15.20154,6.69518 29.39048,6.33645 11.30325,-0.28576 13.40245,-0.7265 20.7956,-4.36613 z M 421.3705,88.419076 c -5.98395,-3.07528 -8.0245,-7.57771 -8.62573,-19.03243 -1.03288,-19.67922 3.90416,-28.141016 16.41364,-28.131976 9.67025,0.007 13.98498,3.148876 16.57916,12.072606 2.47449,8.51193 1.83769,22.98411 -1.27632,29.00593 -1.10196,2.13096 -3.65361,4.72774 -5.67034,5.77063 -4.41393,2.28253 -13.28018,2.44297 -17.42041,0.31524 z M 28.278787,109.11213 C 27.790455,108.62379 27.470346,90.201906 27.567436,68.174626 L 27.743962,28.125 13.871981,27.77156 C 0.05314,27.41947 0,27.4063 0,24.33406 L 0,21.25 l 33.125,0 33.124998,0 0,3.125 0,3.125 -14.374998,0 -14.375,0 0,41.249996 0,41.250004 -4.166666,0 c -2.291668,0 -4.566213,-0.39955 -5.054547,-0.88787 z m 46.721211,-43.487134 0,-44.374996 24.375,0 24.375002,0 0,3.125 0,3.125 -20.03735,0 -20.037342,0 0.34984,15.9375 0.34985,15.937496 18.437502,0.34591 c 17.31689,0.3249 18.4375,0.4938 18.4375,2.77909 0,2.28529 -1.12061,2.45419 -18.4375,2.77909 l -18.437502,0.34591 -0.34506,19.0625 -0.34506,19.062504 20.032562,0 20.03256,0 0,3.125 0,3.125 -24.375002,0 -24.375,0 0,-44.375004 z m 91.000092,42.998544 c -13.69168,-1.95624 -24.49353,-9.787434 -29.99856,-21.748544 -2.51768,-5.4703 -2.87527,-8.19924 -2.86644,-21.875 0.009,-13.28501 0.40868,-16.49031 2.67166,-21.403006 3.83205,-8.31901 10.73151,-15.36843 18.2662,-18.66322 7.41605,-3.2429 22.92549,-4.56418 36.50506,-3.10993 7.95993,0.85243 8.17199,0.96819 8.17199,4.46063 0,3.51483 -0.08,3.55637 -4.0625,2.10833 -2.23438,-0.81243 -9.6875,-1.48629 -16.5625,-1.49748 -13.75428,-0.0224 -19.142,1.8369 -25.87049,8.9277 -8.47997,8.936616 -11.94137,27.483476 -7.99826,42.856296 4.72925,18.43772 16.18405,26.093584 36.86864,24.641304 5.91256,-0.41512 12.29698,-1.11641 14.18761,-1.55841 3.06284,-0.71606 3.4375,-0.45552 3.4375,2.39048 0,2.82362 -0.61624,3.2687 -5.3125,3.83702 -11.53431,1.39581 -20.63315,1.606 -27.43741,0.63383 z M 213.75,65.549536 l 0,-44.450456 4.6875,0.38796 4.6875,0.38796 0.34506,19.0625 0.34505,19.062496 24.96745,0 24.96744,0 0,-19.374996 0,-19.375 4.375,0 4.375,0 0,44.374996 0,44.375004 -4.375,0 -4.375,0 0,-22.500004 0,-22.5 -25,0 -25,0 0,22.5 0,22.500004 -5,0 -5,0 0,-44.450464 z m 112.5,43.061804 c -14.58921,-2.03573 -25.41029,-9.985334 -30.17186,-22.165484 -3.71007,-9.49037 -4.07808,-31.30414 -0.69227,-41.03401 3.00685,-8.640866 10.45412,-16.855916 18.62953,-20.550156 5.7888,-2.6158 8.47235,-2.98669 21.6096,-2.98669 9.28005,0 16.78749,0.63279 19.6875,1.65944 l 4.6875,1.65944 0,9.4118 c 0,8.45333 -0.22276,9.32543 -2.1875,8.56378 -18.48674,-7.16667 -32.38181,-5.01277 -37.63236,5.833426 -3.88219,8.01952 -3.81443,24.50532 0.13236,32.20226 5.09653,9.93914 16.60639,12.6905 31.5625,7.54485 3.99651,-1.375 7.45956,-2.5 7.69569,-2.5 0.23612,0 0.42931,4.20304 0.42931,9.34009 l 0,9.340074 -6.5625,1.80166 c -8.62936,2.36911 -18.69293,3.06482 -27.1875,1.87952 z M 500,65.624996 500,21.25 l 26.875,0 26.875,0 0,9.375 0,9.375 -15.625,0 -15.625,0 0,9.999996 0,10 14.375,0 14.375,0 0,8.75 0,8.75 -14.375,0 -14.375,0 0,16.25 0,16.250004 -11.25,0 -11.25,0 0,-44.375004 z m 63.75,0 0,-44.374996 26.875,0 26.875,0 0,9.375 0,9.375 -15,0 -15,0 0,9.999996 0,10 13.75,0 13.75,0 0,8.75 0,8.75 -13.75,0 -13.75,0 0,16.25 0,16.250004 -11.875,0 -11.875,0 0,-44.375004 z M 627.48311,109.375 c -0.009,-0.34375 -0.0249,-20.171884 -0.0345,-44.062504 L 627.43091,21.875 653.71546,21.53764 680,21.20028 l 0,9.39986 0,9.39986 -15.06533,0 -15.06532,0 0.37782,6.562496 0.37783,6.5625 13.4375,0.35479 13.4375,0.35478 0,8.66543 0,8.66542 -13.4375,0.35479 -13.4375,0.35479 -0.36507,9.6875 -0.36509,9.6875 15.05259,0 15.05257,0 0,9.375004 0,9.375 -26.25,0 c -14.4375,0 -26.2576,-0.28125 -26.26689,-0.625 z M 690,65.624996 690,21.25 l 26.25,0 26.25,0 0,9.375 0,9.375 -14.375,0 -14.375,0 0,6.874996 0,6.875 13.75,0 13.75,0 0,8.75 0,8.75 -13.75,0 -13.75,0 0,10 0,10 14.375,0 14.375,0 0,9.375004 0,9.375 -26.25,0 -26.25,0 0,-44.375004 z"
     style="fill:#ffffff;fill-opacity:1" />
</svg>
